{
.appVersion = "3105";
.formatVersion = 3;
DisplayStrings = (
"vindemiates öryggisverðina impressionnée Bermuda-rigged příležitost autokinetic geophysical calotypists perispermic troglodytical unemotional philanthropies disembodying trochometer vaccinators decrescendo byttehandel arrangieren soteriology interdictive zurückfahren inferiorities outsweetened Aquifoliaceae flower-clocks crateriform fractionlet sustinuisse Protoceratops fractionation Lebenszeichen disincentives overstained tranquillizers succursales kontrolloida nepríjemnosti peanøttsmør reciprocally quill-feather",
"§ 14.29",
"HH/Placeholder HOHO/Placeholder OO
THENACSGOHPRO QAHUOIPDCK PBDOPRAWN FOX JUNM/M.ss01 PS OVER THE LAZY DOHG

THE SUNDAY PAPER
MARXIST MATERIAL ANALYSIS
TITLE CASE.-,‘’“”
HH/Placeholder HOHO/Placeholder OO
11/Placeholder 1010/Placeholder 00
01203456789
10980 1543 1627

",
"HH/Placeholder HOHO/Placeholder OO
/A.ss01 AÆBCDÐEFG/G.ss01 HĦIĲǏÎÏĪJKLŁMNŊOØŒPÞQR/R.ss01 SꞋẞƏTUVWXYZM/M.ss01 Ŋɲɳ!?HH/Placeholder HOHO/Placeholder OO
0/one.ss01 123456789
",
"ÁĂ/brevecomb_acutecomb ẮẶ/brevecomb_gravecomb Ằ̆/brevecomb_hookabovecomb ẲẴǍÂ/circumflexcomb_acutecomb ẤẬ/circumflexcomb_gravecomb Ầ̂/circumflexcomb_hookabovecomb ẨẪÄẠÀẢĀĄAÅÃĆČÇĈĊĎ̵DÐĐḌḎÉĚÊẾỆỀỂỄËĖẸÈẺĒĘẼ/G.ss01 GĞĜĢĠ̄ḠĤÍǏÎÏİỊÌỈĪĮĨ/Jacute ĴĶĹL/caroncomb.alt ĽĻḶḺŁŃŇŅṆṈÑŊÓǑÔỐỘỒỔỖÖỌÒ̉ỎOƠỚỢỜỞỠŐŌØÕQŔ̂̌ŘŖṚṞŚŠŞŜȘŤŢȚṬṮÚŬǓÛ̈ÜǗǙǛǕỤÙỦƯỨƯƯỰỪỬ̂̃Ữ̋ŰŪŲ̊ŮŨẂŴẄẀÝŶŸỴỲỶỸŹŽŻÇ/_asterisk *̧/commaaccentcomb.loclMAH L/Lcommaaccent.loclMAH/Ncommaaccent.loclMAH 
HH/Placeholder HOHO/Placeholder OO
@[{(sadfasd)"
);
axes = (
{
name = Width;
tag = wdth;
}
);
date = "2021-02-15 03:08:08 +0000";
familyName = "Frick 0.3";
featurePrefixes = (
{
automatic = 1;
code = "languagesystem DFLT dflt;

languagesystem latn dflt;
languagesystem latn AZE;
languagesystem latn CRT;
languagesystem latn KAZ;
languagesystem latn TAT;
languagesystem latn TRK;
languagesystem latn ROM;
languagesystem latn MOL;
languagesystem latn MAH;
languagesystem latn NLD;
";
name = Languagesystems;
}
);

glyphs = (
{
glyphname = A;
kernLeft = A;
kernRight = A;
lastChange = "2021-10-27 07:12:59 +0000";
layers = (
{
anchors = (
{
name = bottom;
pos = (227,0);
},
{
name = ogonek;
pos = (454,0);
},
{
name = top;
pos = (227,700);
}
);
layerId = m01;
shapes = (
{
closed = 1;
nodes = (
(175,0,l),
(187,116,l),
(151,77,l),
(303,77,l),
(267,116,l),
(279,0,l),
(464,0,l),
(345,700,l),
(109,700,l),
(-10,0,l)
);
},
{
closed = 1;
nodes = (
(224,526,l),
(189,512,l),
(265,512,l),
(230,526,l),
(274,178,l),
(285,227,l),
(169,227,l),
(180,178,l)
);
}
);
width = 454;
},
{
anchors = (
{
name = bottom;
pos = (304,0);
},
{
name = ogonek;
pos = (547,10);
},
{
name = top;
pos = (304,700);
}
);
layerId = m002;
shapes = (
{
closed = 1;
nodes = (
(233,0,l),
(249,116,l),
(200,72,l),
(408,72,l),
(359,116,l),
(375,0,l),
(603,0,l),
(453,700,l),
(155,700,l),
(5,0,l)
);
},
{
closed = 1;
nodes = (
(300,496,l),
(252,482,l),
(356,482,l),
(308,496,l),
(369,178,l),
(384,222,l),
(224,222,l),
(239,178,l)
);
}
);
width = 608;
}
);
unicode = 65;
},
{
glyphname = AE;
kernLeft = A;
kernRight = E;
lastChange = "2021-10-28 01:51:21 +0000";
layers = (
{
anchors = (
{
name = bottom;
pos = (228,0);
},
{
name = ogonek;
pos = (475,10);
},
{
name = top;
pos = (228,700);
},
{
name = topleft;
pos = (243,700);
}
);
layerId = m01;
shapes = (
{
closed = 1;
nodes = (
(397,700,l),
(140,700,l),
(-10,0,l),
(184,0,l),
(200,116,l),
(158,84,l),
(352,84,l),
(328,224,l),
(182,224,l),
(197,178,l),
(258,526,l),
(210,512,l),
(300,512,l)
);
},
{
closed = 1;
nodes = (
(273,0,l),
(451,0,l),
(451,700,l),
(273,700,l)
);
},
{
closed = 1;
nodes = (
(402,281,l),
(573,281,l),
(573,431,l),
(402,431,l)
);
},
{
closed = 1;
nodes = (
(402,534,l),
(606,534,l),
(606,700,l),
(402,700,l)
);
},
{
closed = 1;
nodes = (
(402,0,l),
(613,0,l),
(613,170,l),
(402,170,l)
);
}
);
width = 629;
},
{
anchors = (
{
name = bottom;
pos = (293,0);
},
{
name = ogonek;
pos = (540,10);
},
{
name = top;
pos = (293,700);
},
{
name = topleft;
pos = (308,700);
}
);
layerId = m002;
shapes = (
{
closed = 1;
nodes = (
(462,700,l),
(155,700,l),
(5,0,l),
(219,0,l),
(235,116,l),
(193,84,l),
(417,84,l),
(393,224,l),
(217,224,l),
(232,178,l),
(293,526,l),
(245,512,l),
(365,512,l)
);
},
{
closed = 1;
nodes = (
(338,0,l),
(516,0,l),
(516,700,l),
(338,700,l)
);
},
{
closed = 1;
nodes = (
(467,281,l),
(678,281,l),
(678,431,l),
(467,431,l)
);
},
{
closed = 1;
nodes = (
(467,534,l),
(731,534,l),
(731,700,l),
(467,700,l)
);
},
{
closed = 1;
nodes = (
(467,0,l),
(738,0,l),
(738,170,l),
(467,170,l)
);
}
);
width = 773;
}
);
metricLeft = A;
metricRight = E;
unicode = 198;
},
{
glyphname = B;
kernLeft = H;
kernRight = B;
lastChange = "2021-10-27 06:23:07 +0000";
layers = (
{
anchors = (
{
name = bottom;
pos = (251,0);
},
{
name = center;
pos = (251,350);
},
{
name = top;
pos = (251,700);
}
);
layerId = m01;
shapes = (
{
closed = 1;
nodes = (
(297,0,ls),
(426,0,o),
(482,53,o),
(482,194,cs),
(482,226,ls),
(482,311,o),
(448,366,o),
(358,366,c),
(372,321,l),
(372,420,l),
(338,373,l),
(430,373,o),
(465,420,o),
(465,504,cs),
(465,526,ls),
(465,631,o),
(427,700,o),
(257,700,cs),
(50,700,l),
(50,0,l)
);
},
{
closed = 1;
nodes = (
(215,588,l),
(170,565,l),
(230,565,ls),
(284,565,o),
(300,538,o),
(300,490,cs),
(300,478,ls),
(300,430,o),
(284,403,o),
(230,403,cs),
(179,403,l),
(179,293,l),
(238,293,ls),
(295,293,o),
(310,264,o),
(310,218,cs),
(310,207,ls),
(310,160,o),
(295,132,o),
(238,132,cs),
(170,132,l),
(215,78,l)
);
}
);
width = 506;
},
{
anchors = (
{
name = bottom;
pos = (305,0);
},
{
name = center;
pos = (305,350);
},
{
name = top;
pos = (305,700);
}
);
layerId = m002;
shapes = (
{
closed = 1;
nodes = (
(350,0,ls),
(548,0,o),
(580,54,o),
(580,174,cs),
(580,226,ls),
(580,317,o),
(532,374,o),
(401,366,c),
(445,321,l),
(445,420,l),
(398,373,l),
(526,372,o),
(563,408,o),
(563,494,cs),
(563,526,ls),
(563,631,o),
(517,700,o),
(310,700,cs),
(50,700,l),
(50,0,l)
);
},
{
closed = 1;
nodes = (
(238,588,l),
(193,543,l),
(303,543,ls),
(357,543,o),
(373,521,o),
(373,482,cs),
(373,472,ls),
(373,433,o),
(357,411,o),
(303,411,cs),
(222,411,l),
(222,293,l),
(311,293,ls),
(368,293,o),
(383,269,o),
(383,230,cs),
(383,220,ls),
(383,181,o),
(368,157,o),
(311,157,cs),
(193,157,l),
(238,112,l)
);
}
);
width = 610;
}
);
metricLeft = H;
unicode = 66;
},
{
glyphname = C;
kernLeft = O;
kernRight = C;
lastChange = "2021-10-27 06:38:19 +0000";
layers = (
{
anchors = (
{
name = bottom;
pos = (250,0);
},
{
name = top;
pos = (250,700);
}
);
background = {
shapes = (
{
ref = O;
}
);
};
layerId = m01;
shapes = (
{
closed = 1;
nodes = (
(437,-12,o),
(464,76,o),
(464,257,cs),
(464,275,o),
(463,294,o),
(462,312,c),
(283,312,l),
(284,281,o),
(284,251,o),
(284,220,cs),
(284,181,o),
(277,158,o),
(248,158,cs),
(218,158,o),
(210,181,o),
(210,220,cs),
(210,480,ls),
(210,519,o),
(218,542,o),
(248,542,cs),
(277,542,o),
(284,519,o),
(284,480,cs),
(284,458,o),
(284,436,o),
(283,414,c),
(462,414,l),
(463,426,o),
(464,437,o),
(464,449,cs),
(464,627,o),
(435,712,o),
(248,712,cs),
(49,712,o),
(30,609,o),
(30,396,cs),
(30,304,ls),
(30,91,o),
(49,-12,o),
(248,-12,cs)
);
}
);
width = 491;
},
{
anchors = (
{
name = bottom;
pos = (303,0);
},
{
name = top;
pos = (303,700);
}
);
layerId = m002;
shapes = (
{
closed = 1;
nodes = (
(552,-12,o),
(576,84,o),
(576,254,cs),
(576,270,o),
(576,287,o),
(576,303,c),
(376,303,l),
(376,277,o),
(376,250,o),
(376,224,cs),
(376,183,o),
(360,158,o),
(303,158,cs),
(246,158,o),
(230,183,o),
(230,224,cs),
(230,476,ls),
(230,517,o),
(246,542,o),
(303,542,cs),
(360,542,o),
(376,517,o),
(376,476,cs),
(376,451,o),
(376,426,o),
(376,401,c),
(576,401,l),
(576,416,o),
(576,431,o),
(576,446,cs),
(576,616,o),
(552,712,o),
(303,712,cs),
(54,712,o),
(30,609,o),
(30,396,cs),
(30,304,ls),
(30,91,o),
(54,-12,o),
(303,-12,cs)
);
}
);
width = 606;
}
);
metricLeft = O;
metricRight = "=O-3";
unicode = 67;
},
{
glyphname = D;
kernLeft = H;
kernRight = O;
lastChange = "2021-10-29 03:22:19 +0000";
layers = (
{
anchors = (
{
name = bottom;
pos = (240,0);
},
{
name = center;
pos = (147,350);
},
{
name = top;
pos = (240,700);
}
);
layerId = m01;
shapes = (
{
closed = 1;
nodes = (
(240,0,ls),
(444,0,o),
(486,79,o),
(486,274,cs),
(486,406,ls),
(486,615,o),
(444,700,o),
(240,700,cs),
(50,700,l),
(50,0,l)
);
},
{
closed = 1;
nodes = (
(228,575,l),
(183,560,l),
(246,560,ls),
(294,560,o),
(306,531,o),
(306,480,cs),
(306,220,ls),
(306,176,o),
(294,150,o),
(246,150,cs),
(183,150,l),
(228,125,l)
);
}
);
width = 516;
},
{
anchors = (
{
name = bottom;
pos = (310,0);
},
{
name = center;
pos = (175,350);
},
{
name = top;
pos = (310,700);
}
);
layerId = m002;
shapes = (
{
closed = 1;
nodes = (
(300,0,ls),
(556,0,o),
(580,88,o),
(580,304,cs),
(580,396,ls),
(580,612,o),
(556,700,o),
(300,700,cs),
(50,700,l),
(50,0,l)
);
},
{
closed = 1;
nodes = (
(248,575,l),
(203,530,l),
(300,530,ls),
(364,530,o),
(380,504,o),
(380,460,cs),
(380,240,ls),
(380,196,o),
(364,170,o),
(300,170,cs),
(203,170,l),
(248,125,l)
);
}
);
width = 620;
}
);
metricLeft = H;
metricRight = O;
unicode = 68;
},
{
glyphname = E;
kernLeft = H;
kernRight = E;
lastChange = "2021-10-27 07:13:11 +0000";
layers = (
{
anchors = (
{
name = bottom;
pos = (223,0);
},
{
name = ogonek;
pos = (430,0);
},
{
name = top;
pos = (223,700);
},
{
name = topleft;
pos = (50,700);
}
);
layerId = m01;
shapes = (
{
closed = 1;
nodes = (
(430,0,l),
(430,165,l),
(183,165,l),
(228,120,l),
(228,594,l),
(183,549,l),
(423,549,l),
(423,700,l),
(50,700,l),
(50,0,l)
);
},
{
closed = 1;
nodes = (
(400,291,l),
(400,436,l),
(212,436,l),
(212,291,l)
);
}
);
width = 446;
},
{
anchors = (
{
name = bottom;
pos = (278,0);
},
{
name = ogonek;
pos = (520,0);
},
{
name = top;
pos = (278,700);
},
{
name = topleft;
pos = (20,700);
}
);
layerId = m002;
shapes = (
{
closed = 1;
nodes = (
(520,0,l),
(520,170,l),
(203,170,l),
(248,125,l),
(248,579,l),
(203,534,l),
(513,534,l),
(513,700,l),
(50,700,l),
(50,0,l)
);
},
{
closed = 1;
nodes = (
(450,281,l),
(450,431,l),
(232,431,l),
(232,281,l)
);
}
);
width = 555;
}
);
unicode = 69;
},
{
glyphname = F;
kernLeft = H;
kernRight = F;
lastChange = "2021-10-28 01:51:38 +0000";
layers = (
{
anchors = (
{
name = bottom;
pos = (277,0);
},
{
name = top;
pos = (226,700);
}
);
layerId = m01;
shapes = (
{
closed = 1;
nodes = (
(228,0,l),
(228,574,l),
(183,529,l),
(433,529,l),
(433,700,l),
(50,700,l),
(50,0,l)
);
},
{
closed = 1;
nodes = (
(410,254,l),
(410,421,l),
(172,421,l),
(172,254,l)
);
}
);
width = 443;
},
{
anchors = (
{
name = bottom;
pos = (277,0);
},
{
name = top;
pos = (277,700);
}
);
layerId = m002;
shapes = (
{
closed = 1;
nodes = (
(248,0,l),
(248,574,l),
(203,529,l),
(533,529,l),
(533,700,l),
(50,700,l),
(50,0,l)
);
},
{
closed = 1;
nodes = (
(500,234,l),
(500,401,l),
(232,401,l),
(232,234,l)
);
}
);
width = 553;
}
);
unicode = 70;
},
{
glyphname = G;
kernLeft = O;
kernRight = G;
lastChange = "2021-10-29 03:22:37 +0000";
layers = (
{
anchors = (
{
name = bottom;
pos = (251,0);
},
{
name = top;
pos = (251,700);
}
);
background = {
shapes = (
{
ref = C;
}
);
};
layerId = m01;
shapes = (
{
closed = 1;
nodes = (
(464,387,l),
(254,387,l),
(254,266,l),
(329,266,l),
(294,291,l),
(294,214,ls),
(294,173,o),
(286,148,o),
(254,148,cs),
(219,148,o),
(210,173,o),
(210,214,cs),
(210,495,ls),
(210,533,o),
(218,557,o),
(248,557,cs),
(277,557,o),
(284,534,o),
(284,495,cs),
(284,479,o),
(284,462,o),
(283,446,c),
(463,446,l),
(464,461,o),
(464,466,o),
(464,473,cs),
(464,618,o),
(446,712,o),
(250,712,cs),
(49,712,o),
(30,609,o),
(30,396,cs),
(30,304,ls),
(30,91,o),
(60,-12,o),
(220,-12,cs),
(302,-12,o),
(332,30,o),
(344,108,c),
(305,77,l),
(399,77,l),
(340,122,l),
(354,0,l),
(464,0,l)
);
}
);
width = 501;
},
{
anchors = (
{
name = bottom;
pos = (318,0);
},
{
name = top;
pos = (318,700);
}
);
layerId = m002;
shapes = (
{
closed = 1;
nodes = (
(590,387,l),
(287,387,l),
(287,266,l),
(435,266,l),
(390,291,l),
(390,224,ls),
(390,183,o),
(374,158,o),
(310,158,cs),
(246,158,o),
(230,183,o),
(230,224,cs),
(230,476,ls),
(230,517,o),
(246,542,o),
(310,542,cs),
(374,542,o),
(390,517,o),
(390,476,cs),
(390,466,o),
(390,456,o),
(390,446,c),
(590,446,l),
(590,451,o),
(590,456,o),
(590,461,cs),
(590,618,o),
(566,712,o),
(310,712,cs),
(54,712,o),
(30,609,o),
(30,396,cs),
(30,304,ls),
(30,91,o),
(71,-12,o),
(290,-12,cs),
(403,-12,o),
(443,30,o),
(460,108,c),
(411,77,l),
(505,77,l),
(460,122,l),
(460,0,l),
(590,0,l)
);
}
);
width = 635;
}
);
metricLeft = O;
unicode = 71;
},
{
glyphname = H;
kernLeft = H;
kernRight = H;
lastChange = "2021-10-28 01:51:44 +0000";
layers = (
{
anchors = (
{
name = bottom;
pos = (264,0);
},
{
name = center;
pos = (264,350);
},
{
name = top;
pos = (264,700);
},
{
name = topleft;
pos = (20,700);
}
);
layerId = m01;
shapes = (
{
closed = 1;
nodes = (
(478,0,l),
(478,700,l),
(300,700,l),
(300,0,l)
);
},
{
closed = 1;
nodes = (
(228,0,l),
(228,700,l),
(50,700,l),
(50,0,l)
);
},
{
closed = 1;
nodes = (
(360,272,l),
(360,422,l),
(159,422,l),
(159,272,l)
);
}
);
width = 528;
},
{
anchors = (
{
name = bottom;
pos = (319,0);
},
{
name = center;
pos = (319,350);
},
{
name = top;
pos = (319,700);
},
{
name = topleft;
pos = (20,700);
}
);
layerId = m002;
shapes = (
{
closed = 1;
nodes = (
(588,0,l),
(588,700,l),
(390,700,l),
(390,0,l)
);
},
{
closed = 1;
nodes = (
(248,0,l),
(248,700,l),
(50,700,l),
(50,0,l)
);
},
{
closed = 1;
nodes = (
(450,272,l),
(450,422,l),
(179,422,l),
(179,272,l)
);
}
);
width = 638;
}
);
unicode = 72;
},
{
glyphname = Hbar;
kernLeft = H;
kernRight = H;
lastChange = "2021-10-28 01:52:07 +0000";
layers = (
{
anchors = (
{
name = bottom;
pos = (369,0);
},
{
name = center;
pos = (369,350);
},
{
name = top;
pos = (369,700);
},
{
name = topleft;
pos = (70,700);
}
);
layerId = m01;
shapes = (
{
closed = 1;
nodes = (
(488,0,l),
(488,700,l),
(310,700,l),
(310,0,l)
);
},
{
closed = 1;
nodes = (
(238,0,l),
(238,700,l),
(60,700,l),
(60,0,l)
);
},
{
closed = 1;
nodes = (
(370,242,l),
(370,392,l),
(169,392,l),
(169,242,l)
);
},
{
closed = 1;
nodes = (
(16,475,l),
(532,475,l),
(532,585,l),
(16,585,l)
);
}
);
width = 548;
},
{
anchors = (
{
name = bottom;
pos = (359,0);
},
{
name = center;
pos = (359,350);
},
{
name = top;
pos = (359,700);
},
{
name = topleft;
pos = (60,700);
}
);
layerId = m002;
shapes = (
{
closed = 1;
nodes = (
(90,0,l),
(280,0,l),
(280,700,l),
(90,700,l)
);
},
{
closed = 1;
nodes = (
(438,0,l),
(628,0,l),
(628,700,l),
(438,700,l)
);
},
{
closed = 1;
nodes = (
(219,232,l),
(490,232,l),
(490,374,l),
(219,374,l)
);
},
{
closed = 1;
nodes = (
(6,475,l),
(703,475,l),
(703,585,l),
(6,585,l)
);
}
);
width = 709;
}
);
unicode = 294;
},
{
glyphname = I;
kernLeft = H;
kernRight = H;
lastChange = "2021-10-28 01:52:12 +0000";
layers = (
{
anchors = (
{
name = bottom;
pos = (143,0);
},
{
name = ogonek;
pos = (236,0);
},
{
name = top;
pos = (143,700);
},
{
name = topleft;
pos = (20,700);
}
);
layerId = m01;
shapes = (
{
closed = 1;
nodes = (
(236,0,l),
(236,700,l),
(50,700,l),
(50,0,l)
);
}
);
width = 286;
},
{
anchors = (
{
name = bottom;
pos = (153,0);
},
{
name = ogonek;
pos = (256,0);
},
{
name = top;
pos = (153,700);
},
{
name = topleft;
pos = (20,700);
}
);
layerId = m002;
shapes = (
{
closed = 1;
nodes = (
(256,0,l),
(256,700,l),
(50,700,l),
(50,0,l)
);
}
);
width = 306;
}
);
unicode = 73;
},
{
glyphname = IJ;
kernLeft = H;
kernRight = J;
lastChange = "2021-10-27 05:56:50 +0000";
layers = (
{
anchors = (
{
name = bottom;
pos = (528,0);
},
{
name = ogonek;
pos = (187,0);
},
{
name = top;
pos = (667,700);
},
{
name = topleft;
pos = (-39,700);
}
);
layerId = m01;
shapes = (
{
closed = 1;
nodes = (
(42,290,l),
(248,290,l),
(248,700,l),
(42,700,l)
);
},
{
closed = 1;
nodes = (
(367,700,l),
(367,214,ls),
(367,173,o),
(349,148,o),
(307,148,cs),
(265,148,o),
(247,165,o),
(247,194,cs),
(247,209,l),
(42,209,l),
(42,194,ls),
(42,49,o),
(97,-12,o),
(307,-12,cs),
(513,-12,o),
(567,64,o),
(567,244,cs),
(567,700,l)
);
}
);
width = 609;
},
{
anchors = (
{
name = bottom;
pos = (587,0);
},
{
name = top;
pos = (726,700);
}
);
associatedMasterId = m01;
layerId = "2C03E4B4-9441-44D6-BD9C-D9DDCE0584CF";
name = "16 Feb 21, 18:49";
shapes = (
{
ref = I;
},
{
closed = 1;
nodes = (
(371,700,l),
(371,234,ls),
(371,193,o),
(356,168,o),
(321,168,cs),
(301,168,l),
(301,-2,l),
(321,-2,ls),
(519,-2,o),
(571,77,o),
(571,264,cs),
(571,700,l)
);
}
);
width = 613;
},
{
anchors = (
{
name = bottom;
pos = (528,0);
},
{
name = ogonek;
pos = (187,0);
},
{
name = top;
pos = (667,700);
},
{
name = topleft;
pos = (-39,700);
}
);
layerId = m002;
shapes = (
{
closed = 1;
nodes = (
(42,290,l),
(248,290,l),
(248,700,l),
(42,700,l)
);
},
{
closed = 1;
nodes = (
(367,700,l),
(367,214,ls),
(367,173,o),
(349,148,o),
(307,148,cs),
(265,148,o),
(247,165,o),
(247,194,cs),
(247,209,l),
(42,209,l),
(42,194,ls),
(42,49,o),
(97,-12,o),
(307,-12,cs),
(513,-12,o),
(567,64,o),
(567,244,cs),
(567,700,l)
);
}
);
width = 609;
},
{
anchors = (
{
name = bottom;
pos = (587,0);
},
{
name = top;
pos = (726,700);
}
);
associatedMasterId = m002;
layerId = "6CE10A96-80C2-47E2-8056-071E88A80E9F";
name = "16 Feb 21, 18:49";
shapes = (
{
ref = I;
},
{
closed = 1;
nodes = (
(371,700,l),
(371,234,ls),
(371,193,o),
(356,168,o),
(321,168,cs),
(301,168,l),
(301,-2,l),
(321,-2,ls),
(519,-2,o),
(571,77,o),
(571,264,cs),
(571,700,l)
);
}
);
width = 613;
}
);
unicode = 306;
},
{
glyphname = Icaron;
kernLeft = H;
kernRight = H;
lastChange = "2021-10-28 01:52:25 +0000";
layers = (
{
layerId = m01;
shapes = (
{
closed = 1;
nodes = (
(223,752,l),
(289,900,l),
(186,900,l),
(143,809,l),
(180,840,l),
(126,840,l),
(163,809,l),
(120,900,l),
(17,900,l),
(83,752,l)
);
},
{
pos = (10,0);
ref = I;
}
);
width = 306;
},
{
layerId = m002;
shapes = (
{
closed = 1;
nodes = (
(223,752,l),
(289,900,l),
(186,900,l),
(143,809,l),
(180,840,l),
(126,840,l),
(163,809,l),
(120,900,l),
(17,900,l),
(83,752,l)
);
},
{
ref = I;
}
);
width = 306;
}
);
unicode = 463;
},
{
glyphname = Icircumflex;
kernLeft = H;
kernRight = H;
lastChange = "2021-10-28 01:52:39 +0000";
layers = (
{
anchors = (
{
name = _top;
pos = (153,700);
},
{
name = top;
pos = (153,900);
}
);
layerId = m01;
shapes = (
{
pos = (10,0);
ref = I;
},
{
closed = 1;
nodes = (
(17,752,l),
(120,752,l),
(163,843,l),
(126,812,l),
(180,812,l),
(143,843,l),
(186,752,l),
(289,752,l),
(223,900,l),
(83,900,l)
);
}
);
width = 306;
},
{
anchors = (
{
name = _top;
pos = (153,700);
},
{
name = top;
pos = (153,900);
}
);
layerId = m002;
shapes = (
{
ref = I;
},
{
closed = 1;
nodes = (
(17,752,l),
(120,752,l),
(163,843,l),
(126,812,l),
(180,812,l),
(143,843,l),
(186,752,l),
(289,752,l),
(223,900,l),
(83,900,l)
);
}
);
width = 306;
}
);
unicode = 206;
},
{
glyphname = Idieresis;
kernLeft = H;
kernRight = H;
lastChange = "2021-10-28 01:52:48 +0000";
layers = (
{
anchors = (
{
name = _top;
pos = (152.992,700);
},
{
name = top;
pos = (152.992,880);
}
);
layerId = m01;
shapes = (
{
pos = (10,0);
ref = I;
},
{
closed = 1;
nodes = (
(13,752,l),
(127,752,l),
(127,900,l),
(13,900,l)
);
},
{
closed = 1;
nodes = (
(179,752,l),
(292,752,l),
(292,900,l),
(179,900,l)
);
}
);
width = 306;
},
{
anchors = (
{
name = _top;
pos = (152.992,700);
},
{
name = top;
pos = (152.992,880);
}
);
layerId = m002;
shapes = (
{
ref = I;
},
{
closed = 1;
nodes = (
(13,752,l),
(127,752,l),
(127,900,l),
(13,900,l)
);
},
{
closed = 1;
nodes = (
(179,752,l),
(292,752,l),
(292,900,l),
(179,900,l)
);
}
);
width = 306;
}
);
unicode = 207;
},
{
glyphname = Imacron;
kernLeft = H;
kernRight = H;
lastChange = "2021-10-28 01:52:51 +0000";
layers = (
{
anchors = (
{
name = _top;
pos = (153,700);
},
{
name = top;
pos = (153,863);
}
);
layerId = m01;
shapes = (
{
pos = (10,0);
ref = I;
},
{
closed = 1;
nodes = (
(-8,752,l),
(314,752,l),
(314,841,l),
(-8,841,l)
);
}
);
width = 306;
},
{
anchors = (
{
name = _top;
pos = (153.115,699.778);
},
{
name = top;
pos = (153.115,862.889);
}
);
layerId = m002;
shapes = (
{
ref = I;
},
{
closed = 1;
nodes = (
(-8,752,l),
(314,752,l),
(314,841,l),
(-8,841,l)
);
}
);
width = 306;
}
);
unicode = 298;
},
{
glyphname = J;
kernLeft = J;
kernRight = J;
lastChange = "2021-10-27 06:16:44 +0000";
layers = (
{
anchors = (
{
name = bottom;
pos = (181,0);
},
{
name = top;
pos = (320,700);
}
);
layerId = m01;
shapes = (
{
closed = 1;
nodes = (
(359,-12,o),
(400,55,o),
(400,214,cs),
(400,700,l),
(220,700,l),
(220,178,ls),
(220,160,o),
(212,148,o),
(195,148,cs),
(178,148,o),
(170,167,o),
(170,197,cs),
(170,217,o),
(171,237,o),
(173,258,c),
(14,258,l),
(12,240,o),
(10,222,o),
(10,204,cs),
(10,52,o),
(51,-12,o),
(205,-12,cs)
);
}
);
width = 442;
},
{
associatedMasterId = m01;
layerId = "D0371591-94F5-4288-8A5A-3C62075C4B95";
name = "15 Feb 21, 16:34";
shapes = (
{
closed = 1;
nodes = (
(111,700,l),
(111,254,ls),
(111,213,o),
(96,188,o),
(36,188,cs),
(15,188,l),
(15,-2,l),
(36,-2,ls),
(269,-2,o),
(311,77,o),
(311,284,cs),
(311,700,l)
);
}
);
width = 349;
},
{
anchors = (
{
name = bottom;
pos = (281,0);
},
{
name = top;
pos = (420,700);
}
);
layerId = m002;
shapes = (
{
closed = 1;
nodes = (
(468,-12,o),
(520,67,o),
(520,254,cs),
(520,700,l),
(320,700,l),
(320,224,ls),
(320,183,o),
(305,158,o),
(270,158,cs),
(235,158,o),
(220,183,o),
(220,224,cs),
(220,252,o),
(220,281,o),
(220,309,c),
(20,309,l),
(20,291,o),
(20,272,o),
(20,254,cs),
(20,67,o),
(72,-12,o),
(270,-12,cs)
);
}
);
width = 562;
},
{
associatedMasterId = m002;
layerId = "01B6B96B-AC04-4589-AF8C-003144E1615B";
name = "15 Feb 21, 16:34";
shapes = (
{
closed = 1;
nodes = (
(111,700,l),
(111,254,ls),
(111,213,o),
(96,188,o),
(36,188,cs),
(15,188,l),
(15,-2,l),
(36,-2,ls),
(269,-2,o),
(311,77,o),
(311,284,cs),
(311,700,l)
);
}
);
width = 349;
}
);
metricRight = U;
unicode = 74;
},
{
glyphname = K;
kernLeft = H;
kernRight = K;
lastChange = "2021-10-28 01:52:56 +0000";
layers = (
{
anchors = (
{
name = bottom;
pos = (289,0);
},
{
name = top;
pos = (289,700);
}
);
layerId = m01;
shapes = (
{
closed = 1;
nodes = (
(517,0,l),
(368,421,l),
(362,341,l),
(521,700,l),
(346,700,l),
(197,340,l),
(210,359,l),
(324,0,l)
);
},
{
closed = 1;
nodes = (
(228,0,l),
(228,700,l),
(50,700,l),
(50,0,l)
);
}
);
width = 511;
},
{
anchors = (
{
name = bottom;
pos = (309,0);
},
{
name = top;
pos = (309,700);
}
);
layerId = m002;
shapes = (
{
closed = 1;
nodes = (
(617,0,l),
(418,421,l),
(416,341,l),
(625,700,l),
(400,700,l),
(201,340,l),
(230,359,l),
(394,0,l)
);
},
{
closed = 1;
nodes = (
(248,0,l),
(248,700,l),
(50,700,l),
(50,0,l)
);
}
);
width = 617;
}
);
metricLeft = H;
unicode = 75;
},
{
glyphname = L;
kernLeft = H;
kernRight = L;
lastChange = "2021-10-29 03:19:21 +0000";
layers = (
{
anchors = (
{
name = bottom;
pos = (227,0);
},
{
name = center;
pos = (227,350);
},
{
name = top;
pos = (141,700);
},
{
name = topright;
pos = (228,700);
}
);
layerId = m01;
shapes = (
{
closed = 1;
nodes = (
(444,0,l),
(444,183,l),
(183,183,l),
(228,138,l),
(228,700,l),
(50,700,l),
(50,0,l)
);
}
);
width = 454;
},
{
anchors = (
{
name = bottom;
pos = (282,0);
},
{
name = center;
pos = (282,350);
},
{
name = top;
pos = (152,700);
},
{
name = topright;
pos = (248,700);
}
);
layerId = m002;
shapes = (
{
closed = 1;
nodes = (
(544,0,l),
(544,188,l),
(203,188,l),
(248,143,l),
(248,700,l),
(50,700,l),
(50,0,l)
);
}
);
width = 564;
}
);
metricLeft = H;
unicode = 76;
},
{
glyphname = Lslash;
kernLeft = H;
kernRight = L;
lastChange = "2021-10-28 01:53:09 +0000";
layers = (
{
layerId = m01;
shapes = (
{
pos = (7,0);
ref = L;
},
{
closed = 1;
nodes = (
(8,208,l),
(332,428,l),
(332,582,l),
(8,362,l)
);
}
);
width = 461;
},
{
layerId = m002;
shapes = (
{
pos = (27,0);
ref = L;
},
{
closed = 1;
nodes = (
(8,208,l),
(382,428,l),
(382,582,l),
(8,362,l)
);
}
);
width = 591;
}
);
metricRight = L;
unicode = 321;
},
{
glyphname = M;
kernLeft = M;
kernRight = M;
lastChange = "2021-10-27 06:41:19 +0000";
layers = (
{
anchors = (
{
name = bottom;
pos = (333,0);
},
{
name = top;
pos = (333,700);
}
);
layerId = m01;
shapes = (
{
closed = 1;
nodes = (
(184,0,l),
(184,594,l),
(153,472,l),
(234,472,l),
(167,594,l),
(270,0,l),
(374,0,l),
(477,594,l),
(410,472,l),
(491,472,l),
(460,594,l),
(460,0,l),
(615,0,l),
(615,700,l),
(392,700,l),
(313,287,l),
(367,379,l),
(287,379,l),
(342,287,l),
(270,700,l),
(50,700,l),
(50,0,l)
);
}
);
width = 665;
},
{
anchors = (
{
name = bottom;
pos = (411,0);
},
{
name = top;
pos = (411,700);
}
);
layerId = m002;
shapes = (
{
closed = 1;
nodes = (
(223,0,l),
(223,614,l),
(188,462,l),
(280,462,l),
(204,614,l),
(329,0,l),
(492,0,l),
(617,614,l),
(541,462,l),
(633,462,l),
(598,614,l),
(598,0,l),
(771,0,l),
(771,700,l),
(493,700,l),
(399,287,l),
(456,349,l),
(365,349,l),
(422,287,l),
(328,700,l),
(50,700,l),
(50,0,l)
);
}
);
width = 821;
}
);
metricLeft = H;
metricRight = H;
unicode = 77;
},
{
glyphname = N;
kernLeft = H;
kernRight = H;
lastChange = "2021-10-27 07:02:24 +0000";
layers = (
{
anchors = (
{
name = bottom;
pos = (257,0);
},
{
name = top;
pos = (257,700);
}
);
layerId = m01;
shapes = (
{
closed = 1;
nodes = (
(194,0,l),
(194,492,l),
(167,492,l),
(298,0,l),
(464,0,l),
(464,700,l),
(320,700,l),
(320,246,l),
(354,262,l),
(239,700,l),
(50,700,l),
(50,0,l)
);
}
);
width = 514;
},
{
anchors = (
{
name = bottom;
pos = (314,0);
},
{
name = top;
pos = (314,700);
}
);
layerId = m002;
shapes = (
{
closed = 1;
nodes = (
(223,0,l),
(223,424,l),
(209,422,l),
(349,0,l),
(578,0,l),
(578,700,l),
(405,700,l),
(405,303,l),
(419,305,l),
(288,700,l),
(50,700,l),
(50,0,l)
);
}
);
width = 628;
}
);
metricLeft = H;
metricRight = H;
unicode = 78;
},
{
glyphname = Eng;
kernLeft = H;
kernRight = J;
lastChange = "2021-10-28 01:56:24 +0000";
layers = (
{
anchors = (
{
name = bottom;
pos = (257,0);
},
{
name = top;
pos = (257,700);
}
);
layerId = m01;
shapes = (
{
ref = N;
},
{
closed = 1;
nodes = (
(206,-211,l),
(257,-212,o),
(277,-212,o),
(304,-212,cs),
(431,-212,o),
(464,-151,o),
(464,-50,cs),
(464,0,l),
(328,0,l),
(328,-24,ls),
(328,-65,o),
(316,-82,o),
(274,-82,cs),
(257,-82,o),
(236,-82,o),
(206,-81,c)
);
}
);
width = 514;
},
{
anchors = (
{
name = bottom;
pos = (314,0);
},
{
name = top;
pos = (314,700);
}
);
layerId = m002;
shapes = (
{
ref = N;
},
{
closed = 1;
nodes = (
(280,-211,l),
(305,-212,o),
(315,-212,o),
(328,-212,cs),
(526,-212,o),
(578,-136,o),
(578,-10,cs),
(578,0,l),
(395,0,l),
(395,-24,ls),
(395,-65,o),
(380,-82,o),
(328,-82,cs),
(316,-82,o),
(301,-82,o),
(280,-81,c)
);
}
);
width = 628;
}
);
metricLeft = N;
metricRight = N;
unicode = 330;
},
{
glyphname = O;
kernLeft = O;
kernRight = O;
lastChange = "2021-10-29 03:08:22 +0000";
layers = (
{
anchors = (
{
name = bottom;
pos = (250,0);
},
{
name = center;
pos = (250,350);
},
{
name = ogonek;
pos = (376,10);
},
{
name = top;
pos = (250,700);
},
{
name = topleft;
pos = (-40,700);
},
{
name = topright;
pos = (432,700);
}
);
layerId = m01;
shapes = (
{
closed = 1;
nodes = (
(451,-12,o),
(470,91,o),
(470,304,cs),
(470,396,ls),
(470,609,o),
(451,712,o),
(250,712,cs),
(49,712,o),
(30,609,o),
(30,396,cs),
(30,304,ls),
(30,91,o),
(49,-12,o),
(250,-12,cs)
);
},
{
closed = 1;
nodes = (
(218,158,o),
(210,183,o),
(210,224,cs),
(210,476,ls),
(210,517,o),
(218,542,o),
(250,542,cs),
(282,542,o),
(290,517,o),
(290,476,cs),
(290,224,ls),
(290,183,o),
(282,158,o),
(250,158,cs)
);
}
);
width = 500;
},
{
anchors = (
{
name = bottom;
pos = (310,0);
},
{
name = center;
pos = (310,350);
},
{
name = ogonek;
pos = (558,10);
},
{
name = top;
pos = (310,700);
},
{
name = topleft;
pos = (20,700);
},
{
name = topright;
pos = (422,705);
}
);
layerId = m002;
shapes = (
{
closed = 1;
nodes = (
(566,-12,o),
(590,91,o),
(590,304,cs),
(590,396,ls),
(590,609,o),
(566,712,o),
(310,712,cs),
(54,712,o),
(30,609,o),
(30,396,cs),
(30,304,ls),
(30,91,o),
(54,-12,o),
(310,-12,cs)
);
},
{
closed = 1;
nodes = (
(246,158,o),
(230,183,o),
(230,224,cs),
(230,476,ls),
(230,517,o),
(246,542,o),
(310,542,cs),
(374,542,o),
(390,517,o),
(390,476,cs),
(390,224,ls),
(390,183,o),
(374,158,o),
(310,158,cs)
);
}
);
width = 620;
}
);
unicode = 79;
},
{
glyphname = Oslash;
kernLeft = O;
kernRight = O;
lastChange = "2021-10-28 01:54:16 +0000";
layers = (
{
anchors = (
{
name = bottom;
pos = (310,0);
},
{
name = top;
pos = (310,700);
}
);
layerId = m01;
shapes = (
{
ref = O;
},
{
closed = 1;
nodes = (
(-25,0,l),
(64,0,l),
(525,700,l),
(436,700,l)
);
}
);
width = 500;
},
{
anchors = (
{
name = bottom;
pos = (310,0);
},
{
name = top;
pos = (310,700);
}
);
layerId = m002;
shapes = (
{
pos = (10,0);
ref = O;
},
{
closed = 1;
nodes = (
(-44,0,l),
(74,0,l),
(684,700,l),
(566,700,l)
);
}
);
width = 640;
}
);
unicode = 216;
},
{
glyphname = OE;
kernLeft = O;
kernRight = E;
lastChange = "2021-10-27 05:56:50 +0000";
layers = (
{
anchors = (
{
name = bottom;
pos = (273,0);
},
{
name = center;
pos = (283,350);
},
{
name = ogonek;
pos = (531,10);
},
{
name = top;
pos = (273,700);
},
{
name = topleft;
pos = (-7,700);
},
{
name = topright;
pos = (573,700);
}
);
layerId = m01;
shapes = (
{
closed = 1;
nodes = (
(419,0,l),
(419,700,l),
(293,700,ls),
(65,700,o),
(30,602,o),
(30,396,cs),
(30,304,ls),
(30,98,o),
(65,0,o),
(293,0,cs)
);
},
{
closed = 1;
nodes = (
(237,158,o),
(223,183,o),
(223,224,cs),
(223,476,ls),
(223,517,o),
(237,542,o),
(293,542,cs),
(349,542,o),
(363,517,o),
(363,476,cs),
(363,224,ls),
(363,183,o),
(349,158,o),
(293,158,cs)
);
},
{
closed = 1;
nodes = (
(363,0,l),
(541,0,l),
(541,700,l),
(363,700,l)
);
},
{
closed = 1;
nodes = (
(492,281,l),
(703,281,l),
(703,431,l),
(492,431,l)
);
},
{
closed = 1;
nodes = (
(492,534,l),
(756,534,l),
(756,700,l),
(492,700,l)
);
},
{
closed = 1;
nodes = (
(492,0,l),
(763,0,l),
(763,170,l),
(492,170,l)
);
}
);
width = 798;
},
{
anchors = (
{
name = bottom;
pos = (273,0);
},
{
name = center;
pos = (283,350);
},
{
name = ogonek;
pos = (531,10);
},
{
name = top;
pos = (273,700);
},
{
name = topleft;
pos = (-7,700);
},
{
name = topright;
pos = (573,700);
}
);
layerId = m002;
shapes = (
{
closed = 1;
nodes = (
(419,0,l),
(419,700,l),
(293,700,ls),
(65,700,o),
(30,602,o),
(30,396,cs),
(30,304,ls),
(30,98,o),
(65,0,o),
(293,0,cs)
);
},
{
closed = 1;
nodes = (
(237,158,o),
(223,183,o),
(223,224,cs),
(223,476,ls),
(223,517,o),
(237,542,o),
(293,542,cs),
(349,542,o),
(363,517,o),
(363,476,cs),
(363,224,ls),
(363,183,o),
(349,158,o),
(293,158,cs)
);
},
{
closed = 1;
nodes = (
(363,0,l),
(541,0,l),
(541,700,l),
(363,700,l)
);
},
{
closed = 1;
nodes = (
(492,281,l),
(703,281,l),
(703,431,l),
(492,431,l)
);
},
{
closed = 1;
nodes = (
(492,534,l),
(756,534,l),
(756,700,l),
(492,700,l)
);
},
{
closed = 1;
nodes = (
(492,0,l),
(763,0,l),
(763,170,l),
(492,170,l)
);
}
);
width = 798;
}
);
metricLeft = O;
metricRight = E;
unicode = 338;
},
{
glyphname = P;
kernLeft = H;
kernRight = P;
lastChange = "2021-10-27 07:06:18 +0000";
layers = (
{
anchors = (
{
name = bottom;
pos = (148,0);
},
{
name = top;
pos = (262,700);
}
);
layerId = m01;
shapes = (
{
closed = 1;
nodes = (
(228,0,l),
(228,588,l),
(183,563,l),
(248,563,ls),
(285,563,o),
(295,542,o),
(295,506,cs),
(295,394,ls),
(295,358,o),
(285,337,o),
(248,337,cs),
(162,337,l),
(162,200,l),
(250,200,ls),
(417,200,o),
(465,280,o),
(465,411,cs),
(465,489,ls),
(465,627,o),
(422,700,o),
(270,700,cs),
(50,700,l),
(50,0,l)
);
}
);
width = 481;
},
{
anchors = (
{
name = bottom;
pos = (296,0);
},
{
name = top;
pos = (296,700);
}
);
layerId = m002;
shapes = (
{
closed = 1;
nodes = (
(248,0,l),
(248,588,l),
(203,543,l),
(308,543,ls),
(362,543,o),
(378,515,o),
(378,465,cs),
(378,455,ls),
(378,405,o),
(362,377,o),
(308,377,cs),
(232,377,l),
(232,220,l),
(320,220,ls),
(527,220,o),
(573,304,o),
(573,434,cs),
(573,496,ls),
(573,627,o),
(527,700,o),
(320,700,cs),
(50,700,l),
(50,0,l)
);
}
);
width = 591;
}
);
metricLeft = H;
unicode = 80;
},
{
glyphname = Thorn;
kernLeft = H;
kernRight = Thorn;
lastChange = "2021-10-28 01:55:05 +0000";
layers = (
{
anchors = (
{
name = bottom;
pos = (300,0);
},
{
name = top;
pos = (300,700);
}
);
layerId = m01;
shapes = (
{
closed = 1;
nodes = (
(250,107,ls),
(417,107,o),
(465,187,o),
(465,318,cs),
(465,396,ls),
(465,534,o),
(422,607,o),
(270,607,cs),
(172,607,l),
(172,470,l),
(248,470,ls),
(285,470,o),
(295,449,o),
(295,413,cs),
(295,301,ls),
(295,265,o),
(285,244,o),
(248,244,cs),
(162,244,l),
(162,107,l)
);
},
{
closed = 1;
nodes = (
(228,0,l),
(227,700,l),
(50,700,l),
(50,0,l)
);
}
);
width = 481;
},
{
anchors = (
{
name = bottom;
pos = (300,0);
},
{
name = top;
pos = (300,700);
}
);
layerId = m002;
shapes = (
{
closed = 1;
nodes = (
(320,116,ls),
(527,116,o),
(573,194,o),
(573,323,cs),
(573,385,ls),
(573,516,o),
(527,594,o),
(320,594,cs),
(192,594,l),
(192,441,l),
(308,441,ls),
(362,441,o),
(378,412,o),
(378,360,cs),
(378,350,ls),
(378,298,o),
(362,269,o),
(308,269,cs),
(172,269,l),
(172,116,l)
);
},
{
closed = 1;
nodes = (
(248,0,l),
(248,700,l),
(50,700,l),
(50,0,l)
);
}
);
width = 598;
}
);
metricLeft = P;
metricRight = P;
unicode = 222;
},
{
glyphname = Q;
kernLeft = O;
kernRight = O;
lastChange = "2021-10-28 01:49:56 +0000";
layers = (
{
anchors = (
{
name = bottom;
pos = (250,0);
},
{
name = top;
pos = (250,700);
}
);
layerId = m01;
shapes = (
{
ref = O;
},
{
closed = 1;
nodes = (
(427,-107,l),
(323,105,l),
(133,105,l),
(166,34,o),
(197,-36,o),
(214,-107,c)
);
}
);
width = 500;
},
{
associatedMasterId = m01;
layerId = "0087F603-54BA-410D-B248-37CBBC30C2FA";
name = "15 Feb 21, 16:07";
shapes = (
{
closed = 1;
nodes = (
(646,-2,l),
(673,164,l),
(554,148,l),
(449,184,l),
(493,21,l),
(526,38,o),
(541,42,o),
(559,42,cs),
(589,42,o),
(616,28,o),
(637,-2,c)
);
},
{
ref = O;
}
);
width = 620;
},
{
anchors = (
{
name = bottom;
pos = (310,0);
},
{
name = top;
pos = (310,700);
}
);
layerId = m002;
shapes = (
{
ref = O;
},
{
closed = 1;
nodes = (
(530,-147,l),
(410,105,l),
(190,105,l),
(228,21,o),
(264,-63,o),
(284,-147,c)
);
}
);
width = 620;
},
{
associatedMasterId = m002;
layerId = "84378609-1C81-4C26-ABD4-07FB0BFF6EEE";
name = "15 Feb 21, 16:07";
shapes = (
{
closed = 1;
nodes = (
(646,-2,l),
(673,164,l),
(554,148,l),
(449,184,l),
(493,21,l),
(526,38,o),
(541,42,o),
(559,42,cs),
(589,42,o),
(616,28,o),
(637,-2,c)
);
},
{
ref = O;
}
);
width = 620;
},
{
anchors = (
{
name = bottom;
pos = (324,0);
},
{
name = top;
pos = (324,700);
}
);
associatedMasterId = m01;
layerId = "FE7FD075-F58F-4938-9FE0-FE2B6BA64BDB";
name = "27 Oct 21, 17:30";
shapes = (
{
ref = O;
},
{
closed = 1;
nodes = (
(219,51,o),
(130,67,o),
(130,-55,cs),
(130,-171,o),
(166,-181,o),
(243,-181,cs),
(354,-181,l),
(354,-63,l),
(249,-63,ls),
(226,-63,o),
(214,-55,o),
(214,-37,cs),
(214,-19,o),
(226,-12,o),
(250,-12,c),
(263,104,l)
);
}
);
width = 500;
},
{
anchors = (
{
name = bottom;
pos = (324,0);
},
{
name = top;
pos = (324,700);
}
);
associatedMasterId = m002;
layerId = "AE9536F1-5BE4-458B-8877-271194A5833B";
name = "27 Oct 21, 17:30";
shapes = (
{
closed = 1;
nodes = (
(627,-9,c),
(647,164,l),
(536,164,l),
(449,184,l),
(396,-7,l),
(442,-1,o),
(484,2,o),
(504,2,cs),
(530,2,o),
(562,-1,o)
);
},
{
ref = O;
}
);
width = 647;
}
);
unicode = 81;
},
{
glyphname = R;
kernLeft = H;
kernRight = R;
lastChange = "2021-10-28 01:55:13 +0000";
layers = (
{
anchors = (
{
name = bottom;
pos = (259,0);
},
{
name = top;
pos = (259,700);
}
);
layerId = m01;
shapes = (
{
closed = 1;
nodes = (
(228,0,l),
(228,614,l),
(183,559,l),
(255,559,ls),
(294,559,o),
(305,537,o),
(305,491,cs),
(305,468,ls),
(305,426,o),
(294,406,o),
(255,406,cs),
(182,406,l),
(182,280,l),
(256,280,ls),
(291,280,o),
(300,264,o),
(300,224,cs),
(300,94,ls),
(300,51,o),
(302,24,o),
(307,0,c),
(485,0,l),
(485,6,l),
(479,24,o),
(478,38,o),
(478,79,cs),
(478,208,ls),
(478,286,o),
(452,330,o),
(366,330,c),
(386,284,l),
(386,377,l),
(362,335,l),
(444,335,o),
(477,377,o),
(477,495,cs),
(477,527,ls),
(477,638,o),
(439,700,o),
(270,700,cs),
(50,700,l),
(50,0,l)
);
}
);
width = 517;
},
{
anchors = (
{
name = bottom;
pos = (312,0);
},
{
name = top;
pos = (312,700);
}
);
layerId = m002;
shapes = (
{
closed = 1;
nodes = (
(248,0,l),
(248,588,l),
(203,543,l),
(325,543,ls),
(379,543,o),
(395,525,o),
(395,485,cs),
(395,465,ls),
(395,428,o),
(379,411,o),
(325,411,cs),
(202,411,l),
(202,262,l),
(325,262,ls),
(377,262,o),
(390,241,o),
(390,190,cs),
(390,64,ls),
(390,35,o),
(393,16,o),
(399,0,c),
(611,0,l),
(611,6,l),
(594,24,o),
(590,38,o),
(590,79,cs),
(590,226,ls),
(590,307,o),
(560,353,o),
(459,353,c),
(476,308,l),
(476,408,l),
(455,363,l),
(557,363,o),
(587,389,o),
(587,481,cs),
(587,516,ls),
(587,634,o),
(542,700,o),
(340,700,cs),
(50,700,l),
(50,0,l)
);
}
);
width = 636;
}
);
metricLeft = H;
unicode = 82;
},
{
glyphname = S;
kernLeft = S;
kernRight = S;
lastChange = "2021-10-27 07:13:54 +0000";
layers = (
{
anchors = (
{
name = bottom;
pos = (235,0);
},
{
name = top;
pos = (235,700);
}
);
layerId = m01;
shapes = (
{
closed = 1;
nodes = (
(377,-12,o),
(445,44,o),
(445,185,cs),
(445,192,ls),
(445,307,o),
(407,352,o),
(318,406,cs),
(252,446,ls),
(218,466,o),
(206,487,o),
(206,513,cs),
(206,544,o),
(216,561,o),
(238,561,cs),
(267,561,o),
(270,542,o),
(271,511,cs),
(271,499,o),
(271,487,o),
(269,475,c),
(430,475,l),
(432,494,o),
(432,512,o),
(432,527,cs),
(432,655,o),
(374,712,o),
(227,712,cs),
(92,712,o),
(25,650,o),
(25,524,cs),
(25,514,ls),
(25,420,o),
(60,363,o),
(149,302,cs),
(220,253,ls),
(253,230,o),
(267,211,o),
(267,182,cs),
(267,153,o),
(257,132,o),
(230,132,cs),
(200,132,o),
(189,153,o),
(189,185,cs),
(189,195,o),
(190,204,o),
(192,214,c),
(27,214,l),
(25,197,o),
(24,180,o),
(24,166,cs),
(24,37,o),
(97,-12,o),
(244,-12,cs)
);
}
);
width = 469;
},
{
associatedMasterId = m01;
layerId = "279C4C5A-A682-4E13-9A65-805823F7DE26";
name = "15 Feb 21, 19:28";
shapes = (
{
closed = 1;
nodes = (
(463,695,o),
(386,712,o),
(289,712,cs),
(103,712,o),
(24,620,o),
(24,473,cs),
(24,387,o),
(83,292,o),
(224,270,cs),
(333,253,ls),
(378,246,o),
(397,232,o),
(397,203,cs),
(397,168,o),
(377,152,o),
(322,152,cs),
(259,152,o),
(166,169,o),
(56,206,c),
(35,32,l),
(135,2,o),
(216,-12,o),
(321,-12,cs),
(502,-12,o),
(581,86,o),
(581,222,cs),
(581,316,o),
(539,413,o),
(389,434,cs),
(291,448,ls),
(232,456,o),
(219,472,o),
(219,499,cs),
(219,523,o),
(234,541,o),
(291,541,cs),
(351,541,o),
(431,528,o),
(532,493,c),
(556,661,l)
);
}
);
width = 605;
},
{
anchors = (
{
name = bottom;
pos = (313,0);
},
{
name = top;
pos = (293,700);
}
);
layerId = m002;
shapes = (
{
closed = 1;
nodes = (
(474,-12,o),
(558,29,o),
(558,195,cs),
(558,232,ls),
(558,335,o),
(519,388,o),
(408,416,cs),
(283,448,ls),
(226,463,o),
(214,472,o),
(214,499,cs),
(214,523,o),
(229,541,o),
(283,541,cs),
(334,541,o),
(357,527,o),
(358,489,cs),
(358,480,o),
(359,471,o),
(359,462,c),
(544,469,l),
(544,484,o),
(544,498,o),
(544,513,cs),
(544,656,o),
(474,712,o),
(288,712,cs),
(111,712,o),
(28,656,o),
(28,508,cs),
(28,468,ls),
(28,362,o),
(80,315,o),
(194,286,cs),
(322,253,ls),
(365,242,o),
(383,232,o),
(383,203,cs),
(383,168,o),
(361,152,o),
(302,152,cs),
(244,152,o),
(223,167,o),
(221,205,cs),
(221,213,o),
(220,221,o),
(220,229,c),
(27,219,l),
(27,207,o),
(27,195,o),
(27,183,cs),
(27,32,o),
(107,-12,o),
(299,-12,cs)
);
}
);
width = 586;
},
{
associatedMasterId = m002;
layerId = "E25B4A31-7782-4242-BF9A-E38053CFF62F";
name = "15 Feb 21, 19:28";
shapes = (
{
closed = 1;
nodes = (
(463,695,o),
(386,712,o),
(289,712,cs),
(103,712,o),
(24,620,o),
(24,473,cs),
(24,387,o),
(83,292,o),
(224,270,cs),
(333,253,ls),
(378,246,o),
(397,232,o),
(397,203,cs),
(397,168,o),
(377,152,o),
(322,152,cs),
(259,152,o),
(166,169,o),
(56,206,c),
(35,32,l),
(135,2,o),
(216,-12,o),
(321,-12,cs),
(502,-12,o),
(581,86,o),
(581,222,cs),
(581,316,o),
(539,413,o),
(389,434,cs),
(291,448,ls),
(232,456,o),
(219,472,o),
(219,499,cs),
(219,523,o),
(234,541,o),
(291,541,cs),
(351,541,o),
(431,528,o),
(532,493,c),
(556,661,l)
);
}
);
width = 605;
}
);
unicode = 83;
},
{
glyphname = Saltillo;
kernLeft = Saltillo;
kernRight = Saltillo;
lastChange = "2021-10-27 05:56:50 +0000";
layers = (
{
layerId = m01;
shapes = (
{
closed = 1;
nodes = (
(78,218,l),
(210,218,l),
(232,429,l),
(232,700,l),
(56,700,l),
(56,429,l)
);
}
);
width = 288;
},
{
layerId = m002;
shapes = (
{
closed = 1;
nodes = (
(78,218,l),
(210,218,l),
(232,429,l),
(232,700,l),
(56,700,l),
(56,429,l)
);
}
);
width = 288;
}
);
unicode = 42891;
},
{
glyphname = Germandbls;
kernLeft = Germandbls;
kernRight = Germandbls;
lastChange = "2021-10-27 05:56:50 +0000";
layers = (
{
anchors = (
{
name = bottom;
pos = (383,0);
},
{
name = top;
pos = (383,700);
}
);
layerId = m01;
shapes = (
{
closed = 1;
nodes = (
(417,530,l),
(380,575,l),
(380,470,l),
(405,548,l),
(299,425,l),
(299,302,l),
(338,302,ls),
(378,302,o),
(392,286,o),
(392,231,cs),
(392,176,o),
(375,157,o),
(338,157,cs),
(299,157,l),
(299,0,l),
(364,0,ls),
(509,0,o),
(578,60,o),
(578,182,cs),
(578,250,ls),
(578,350,o),
(527,398,o),
(440,398,c),
(468,340,l),
(468,460,l),
(438,369,l),
(606,554,l),
(575,476,l),
(575,700,l),
(316,700,ls),
(98,700,o),
(46,621,o),
(46,434,cs),
(46,0,l),
(241,0,l),
(241,434,ls),
(241,495,o),
(261,530,o),
(316,530,cs)
);
}
);
width = 608;
},
{
anchors = (
{
name = bottom;
pos = (383,0);
},
{
name = top;
pos = (383,700);
}
);
layerId = m002;
shapes = (
{
closed = 1;
nodes = (
(417,530,l),
(380,575,l),
(380,470,l),
(405,548,l),
(299,425,l),
(299,302,l),
(338,302,ls),
(378,302,o),
(392,286,o),
(392,231,cs),
(392,176,o),
(375,157,o),
(338,157,cs),
(299,157,l),
(299,0,l),
(364,0,ls),
(509,0,o),
(578,60,o),
(578,182,cs),
(578,250,ls),
(578,350,o),
(527,398,o),
(440,398,c),
(468,340,l),
(468,460,l),
(438,369,l),
(606,554,l),
(575,476,l),
(575,700,l),
(316,700,ls),
(98,700,o),
(46,621,o),
(46,434,cs),
(46,0,l),
(241,0,l),
(241,434,ls),
(241,495,o),
(261,530,o),
(316,530,cs)
);
}
);
width = 608;
}
);
unicode = 7838;
},
{
glyphname = Schwa;
kernLeft = O;
kernRight = O;
lastChange = "2021-10-27 05:56:50 +0000";
layers = (
{
anchors = (
{
name = bottom;
pos = (300,0);
},
{
name = top;
pos = (300,700);
}
);
layerId = m01;
shapes = (
{
closed = 1;
nodes = (
(552,-12,o),
(576,91,o),
(576,304,cs),
(576,396,ls),
(576,609,o),
(552,712,o),
(303,712,cs),
(54,712,o),
(30,625,o),
(30,481,cs),
(30,466,l),
(226,461,l),
(226,481,ls),
(226,522,o),
(243,547,o),
(303,547,cs),
(365,547,o),
(382,522,o),
(382,481,cs),
(382,217,ls),
(382,171,o),
(365,144,o),
(303,144,cs),
(238,144,o),
(220,171,o),
(220,217,cs),
(220,393,l),
(30,393,l),
(30,264,ls),
(30,88,o),
(54,-12,o),
(303,-12,cs)
);
},
{
closed = 1;
nodes = (
(474,268,l),
(474,393,l),
(89,393,l),
(89,268,l)
);
}
);
width = 606;
},
{
anchors = (
{
name = bottom;
pos = (300,0);
},
{
name = top;
pos = (300,700);
}
);
layerId = m002;
shapes = (
{
closed = 1;
nodes = (
(552,-12,o),
(576,91,o),
(576,304,cs),
(576,396,ls),
(576,609,o),
(552,712,o),
(303,712,cs),
(54,712,o),
(30,625,o),
(30,481,cs),
(30,466,l),
(226,461,l),
(226,481,ls),
(226,522,o),
(243,547,o),
(303,547,cs),
(365,547,o),
(382,522,o),
(382,481,cs),
(382,217,ls),
(382,171,o),
(365,144,o),
(303,144,cs),
(238,144,o),
(220,171,o),
(220,217,cs),
(220,393,l),
(30,393,l),
(30,264,ls),
(30,88,o),
(54,-12,o),
(303,-12,cs)
);
},
{
closed = 1;
nodes = (
(474,268,l),
(474,393,l),
(89,393,l),
(89,268,l)
);
}
);
width = 606;
}
);
unicode = 399;
},
{
glyphname = T;
kernLeft = T;
kernRight = T;
lastChange = "2021-10-27 07:14:48 +0000";
layers = (
{
anchors = (
{
name = bottom;
pos = (215,0);
},
{
name = center;
pos = (215,350);
},
{
name = top;
pos = (215,700);
}
);
layerId = m01;
shapes = (
{
closed = 1;
nodes = (
(304,0,l),
(304,700,l),
(126,700,l),
(126,0,l)
);
},
{
closed = 1;
nodes = (
(425,531,l),
(425,700,l),
(5,700,l),
(5,531,l)
);
}
);
width = 430;
},
{
anchors = (
{
name = bottom;
pos = (285,0);
},
{
name = center;
pos = (285,350);
},
{
name = top;
pos = (285,700);
}
);
layerId = m002;
shapes = (
{
closed = 1;
nodes = (
(384,0,l),
(384,700,l),
(186,700,l),
(186,0,l)
);
},
{
closed = 1;
nodes = (
(558,526,l),
(558,700,l),
(12,700,l),
(12,526,l)
);
}
);
width = 570;
}
);
unicode = 84;
},
{
glyphname = U;
kernLeft = U;
kernRight = U;
lastChange = "2021-10-28 07:04:02 +0000";
layers = (
{
anchors = (
{
name = bottom;
pos = (257,0);
},
{
name = ogonek;
pos = (401,16);
},
{
name = top;
pos = (257,700);
},
{
name = topright;
pos = (472,700);
}
);
background = {
shapes = (
{
pos = (-60,0);
ref = H;
}
);
};
layerId = m01;
shapes = (
{
closed = 1;
nodes = (
(439,-12,o),
(472,53,o),
(472,224,cs),
(472,700,l),
(292,700,l),
(292,204,ls),
(292,175,o),
(285,158,o),
(257,158,cs),
(229,158,o),
(222,175,o),
(222,204,cs),
(222,700,l),
(42,700,l),
(42,224,ls),
(42,53,o),
(75,-12,o),
(257,-12,cs)
);
}
);
width = 514;
},
{
anchors = (
{
name = bottom;
pos = (317,0);
},
{
name = ogonek;
pos = (487,14);
},
{
name = top;
pos = (317,700);
},
{
name = topright;
pos = (592,700);
}
);
background = {
shapes = (
{
pos = (-1,0);
ref = H;
}
);
};
layerId = m002;
shapes = (
{
closed = 1;
nodes = (
(550,-12,o),
(592,67,o),
(592,274,cs),
(592,700,l),
(392,700,l),
(392,224,ls),
(392,183,o),
(377,158,o),
(317,158,cs),
(257,158,o),
(242,183,o),
(242,224,cs),
(242,700,l),
(42,700,l),
(42,274,ls),
(42,67,o),
(84,-12,o),
(317,-12,cs)
);
}
);
width = 634;
}
);
metricLeft = "=H-8";
metricRight = "=|";
unicode = 85;
},
{
glyphname = V;
kernLeft = V;
kernRight = V;
lastChange = "2021-10-27 06:18:49 +0000";
layers = (
{
anchors = (
{
name = bottom;
pos = (226,0);
},
{
name = top;
pos = (226,700);
}
);
layerId = m01;
shapes = (
{
closed = 1;
nodes = (
(348,0,l),
(462,700,l),
(291,700,l),
(230,264,l),
(273,278,l),
(179,278,l),
(222,264,l),
(161,700,l),
(-10,700,l),
(104,0,l)
);
}
);
width = 452;
},
{
anchors = (
{
name = bottom;
pos = (304,0);
},
{
name = top;
pos = (304,700);
}
);
layerId = m002;
shapes = (
{
closed = 1;
nodes = (
(453,0,l),
(603,700,l),
(375,700,l),
(308,234,l),
(356,248,l),
(252,248,l),
(300,234,l),
(233,700,l),
(5,700,l),
(155,0,l)
);
}
);
width = 608;
}
);
unicode = 86;
},
{
glyphname = W;
kernLeft = W;
kernRight = W;
lastChange = "2021-10-27 07:11:54 +0000";
layers = (
{
anchors = (
{
name = bottom;
pos = (293,0);
},
{
name = top;
pos = (293,700);
}
);
layerId = m01;
shapes = (
{
closed = 1;
nodes = (
(257,0,l),
(297,393,l),
(253,344,l),
(333,344,l),
(289,393,l),
(329,0,l),
(515,0,l),
(591,700,l),
(451,700,l),
(402,143,l),
(440,242,l),
(370,242,l),
(413,143,l),
(371,700,l),
(224,700,l),
(182,143,l),
(222,242,l),
(152,242,l),
(193,143,l),
(144,700,l),
(-5,700,l),
(71,0,l)
);
}
);
width = 586;
},
{
anchors = (
{
name = bottom;
pos = (408,0);
},
{
name = top;
pos = (408,700);
}
);
layerId = m002;
shapes = (
{
closed = 1;
nodes = (
(358,0,l),
(414,403,l),
(348,318,l),
(468,318,l),
(402,403,l),
(458,0,l),
(706,0,l),
(811,700,l),
(620,700,l),
(549,143,l),
(606,268,l),
(499,268,l),
(565,143,l),
(483,700,l),
(333,700,l),
(251,143,l),
(317,268,l),
(210,268,l),
(267,143,l),
(196,700,l),
(5,700,l),
(110,0,l)
);
}
);
width = 816;
}
);
unicode = 87;
},
{
glyphname = X;
kernLeft = X;
kernRight = X;
lastChange = "2021-10-27 06:47:24 +0000";
layers = (
{
anchors = (
{
name = bottom;
pos = (234,0);
},
{
name = top;
pos = (234,700);
}
);
layerId = m01;
shapes = (
{
closed = 1;
nodes = (
(164,0,l),
(240,287,l),
(186,236,l),
(282,236,l),
(218,287,l),
(294,0,l),
(478,0,l),
(334,424,l),
(134,424,l),
(-10,0,l)
);
},
{
closed = 1;
nodes = (
(334,304,l),
(478,700,l),
(304,700,l),
(228,441,l),
(282,492,l),
(186,492,l),
(250,441,l),
(174,700,l),
(-10,700,l),
(134,304,l)
);
}
);
width = 468;
},
{
anchors = (
{
name = bottom;
pos = (312,0);
},
{
name = top;
pos = (312,700);
}
);
layerId = m002;
shapes = (
{
closed = 1;
nodes = (
(221,0,l),
(328,297,l),
(245,246,l),
(379,246,l),
(296,297,l),
(403,0,l),
(624,0,l),
(437,424,l),
(187,424,l),
(0,0,l)
);
},
{
closed = 1;
nodes = (
(437,304,l),
(624,700,l),
(403,700,l),
(296,431,l),
(379,482,l),
(245,482,l),
(328,431,l),
(221,700,l),
(0,700,l),
(187,304,l)
);
}
);
width = 624;
}
);
unicode = 88;
},
{
glyphname = Y;
kernLeft = Y;
kernRight = Y;
lastChange = "2021-10-27 07:14:24 +0000";
layers = (
{
anchors = (
{
name = bottom;
pos = (256,0);
},
{
name = top;
pos = (256,700);
},
{
name = topleft;
pos = (-56,700);
}
);
layerId = m01;
shapes = (
{
closed = 1;
nodes = (
(315,179,l),
(528,700,l),
(347,700,l),
(257,421,l),
(330,462,l),
(196,462,l),
(279,421,l),
(189,700,l),
(-16,700,l),
(197,179,l)
);
},
{
closed = 1;
nodes = (
(349,0,l),
(349,350,l),
(163,350,l),
(163,0,l)
);
}
);
width = 512;
},
{
anchors = (
{
name = bottom;
pos = (332,0);
},
{
name = top;
pos = (332,700);
},
{
name = topleft;
pos = (20,700);
}
);
layerId = m002;
shapes = (
{
closed = 1;
nodes = (
(411,269,l),
(674,700,l),
(456,700,l),
(316,461,l),
(399,498,l),
(265,498,l),
(348,461,l),
(208,700,l),
(-10,700,l),
(253,269,l)
);
},
{
closed = 1;
nodes = (
(435,0,l),
(435,440,l),
(229,440,l),
(229,0,l)
);
}
);
width = 664;
}
);
unicode = 89;
},
{
glyphname = Z;
kernLeft = Z;
kernRight = Z;
lastChange = "2021-10-27 06:03:55 +0000";
layers = (
{
anchors = (
{
name = bottom;
pos = (223,0);
},
{
name = center;
pos = (223,350);
},
{
name = top;
pos = (223,700);
}
);
layerId = m01;
shapes = (
{
closed = 1;
nodes = (
(426,0,l),
(426,164,l),
(118,164,l),
(185,71,l),
(447,609,l),
(416,451,l),
(416,700,l),
(27,700,l),
(27,536,l),
(362,536,l),
(250,624,l),
(9,121,l),
(20,249,l),
(20,0,l)
);
}
);
width = 446;
},
{
anchors = (
{
name = bottom;
pos = (284,0);
},
{
name = center;
pos = (284,350);
},
{
name = top;
pos = (284,700);
}
);
layerId = m002;
shapes = (
{
closed = 1;
nodes = (
(542,0,l),
(542,164,l),
(197,164,l),
(211,150,l),
(563,529,l),
(532,451,l),
(532,700,l),
(33,700,l),
(33,536,l),
(365,536,l),
(351,554,l),
(-5,171,l),
(26,249,l),
(26,0,l)
);
}
);
width = 568;
}
);
unicode = 90;
},
{
glyphname = A.ss01;
lastChange = "2021-10-28 02:11:39 +0000";
layers = (
{
anchors = (
{
name = bottom;
pos = (217,0);
},
{
name = ogonek;
pos = (444,0);
},
{
name = top;
pos = (217,700);
}
);
layerId = m01;
shapes = (
{
closed = 1;
nodes = (
(175,0,l),
(186,146,l),
(153,107,l),
(287,107,l),
(254,146,l),
(265,0,l),
(435,0,l),
(380,700,l),
(60,700,l),
(5,0,l)
);
},
{
closed = 1;
nodes = (
(205,556,l),
(162,542,l),
(278,542,l),
(235,556,l),
(260,208,l),
(270,257,l),
(170,257,l),
(180,208,l)
);
}
);
width = 440;
},
{
anchors = (
{
name = bottom;
pos = (304,0);
},
{
name = ogonek;
pos = (547,10);
},
{
name = top;
pos = (304,700);
}
);
layerId = m002;
shapes = (
{
closed = 1;
nodes = (
(233,0,l),
(249,116,l),
(200,72,l),
(408,72,l),
(359,116,l),
(375,0,l),
(603,0,l),
(453,700,l),
(155,700,l),
(5,0,l)
);
},
{
closed = 1;
nodes = (
(300,496,l),
(252,482,l),
(356,482,l),
(308,496,l),
(369,178,l),
(384,222,l),
(224,222,l),
(239,178,l)
);
}
);
width = 608;
}
);
},
{
glyphname = G.ss01;
lastChange = "2021-10-29 03:22:51 +0000";
layers = (
{
anchors = (
{
name = bottom;
pos = (251,0);
},
{
name = top;
pos = (251,700);
}
);
layerId = m01;
shapes = (
{
closed = 1;
nodes = (
(348,-12,o),
(433,16,o),
(464,41,c),
(464,406,l),
(251,406,l),
(251,278,l),
(329,278,l),
(299,313,l),
(299,115,l),
(325,159,l),
(293,145,o),
(280,141,o),
(254,141,cs),
(219,141,o),
(210,166,o),
(210,207,cs),
(210,490,ls),
(210,529,o),
(218,554,o),
(248,554,cs),
(277,554,o),
(284,537,o),
(284,508,cs),
(284,492,o),
(284,475,o),
(283,459,c),
(463,459,l),
(464,477,o),
(464,483,o),
(464,491,cs),
(464,625,o),
(446,712,o),
(250,712,cs),
(49,712,o),
(30,609,o),
(30,396,cs),
(30,304,ls),
(30,91,o),
(49,-12,o),
(250,-12,cs)
);
}
);
width = 501;
},
{
anchors = (
{
name = bottom;
pos = (318,0);
},
{
name = top;
pos = (318,700);
}
);
layerId = m002;
shapes = (
{
closed = 1;
nodes = (
(421,-12,o),
(497,2,o),
(590,27,c),
(590,397,l),
(287,397,l),
(287,266,l),
(435,266,l),
(390,301,l),
(390,135,l),
(443,166,l),
(405,154,o),
(374,147,o),
(335,147,cs),
(251,147,o),
(230,175,o),
(230,221,cs),
(230,476,ls),
(230,517,o),
(246,542,o),
(310,542,cs),
(374,542,o),
(390,519,o),
(390,482,cs),
(390,472,o),
(390,462,o),
(390,452,c),
(590,452,l),
(590,457,o),
(590,462,o),
(590,467,cs),
(590,620,o),
(566,712,o),
(310,712,cs),
(54,712,o),
(30,609,o),
(30,396,cs),
(30,304,ls),
(30,91,o),
(78,-12,o),
(335,-12,cs)
);
}
);
width = 635;
}
);
},
{
glyphname = M.ss01;
lastChange = "2021-10-28 01:50:24 +0000";
layers = (
{
anchors = (
{
name = bottom;
pos = (317,0);
},
{
name = top;
pos = (317,700);
}
);
layerId = m01;
shapes = (
{
closed = 1;
nodes = (
(168,0,l),
(188,594,l),
(157,480,l),
(238,480,l),
(171,594,l),
(250,0,l),
(362,0,l),
(441,594,l),
(374,480,l),
(455,480,l),
(424,594,l),
(444,0,l),
(609,0,l),
(569,700,l),
(366,700,l),
(307,267,l),
(351,329,l),
(271,329,l),
(316,267,l),
(264,700,l),
(64,700,l),
(24,0,l)
);
}
);
width = 633;
},
{
anchors = (
{
name = bottom;
pos = (411,0);
},
{
name = top;
pos = (411,700);
}
);
layerId = m002;
shapes = (
{
closed = 1;
nodes = (
(203,0,l),
(253,614,l),
(218,502,l),
(310,502,l),
(234,614,l),
(329,0,l),
(492,0,l),
(587,614,l),
(511,502,l),
(603,502,l),
(568,614,l),
(618,0,l),
(791,0,l),
(741,700,l),
(463,700,l),
(399,267,l),
(456,369,l),
(365,369,l),
(422,267,l),
(358,700,l),
(80,700,l),
(30,0,l)
);
}
);
width = 821;
}
);
},
{
glyphname = R.ss01;
lastChange = "2021-10-28 02:14:55 +0000";
layers = (
{
anchors = (
{
name = bottom;
pos = (259,0);
},
{
name = top;
pos = (259,700);
}
);
layerId = m01;
shapes = (
{
closed = 1;
nodes = (
(228,0,l),
(228,614,l),
(183,559,l),
(247,559,ls),
(286,559,o),
(297,533,o),
(297,476,cs),
(297,454,ls),
(297,394,o),
(286,367,o),
(247,367,cs),
(182,367,l),
(182,278,l),
(275,278,ls),
(412,278,o),
(469,326,o),
(469,460,cs),
(469,511,ls),
(469,631,o),
(430,700,o),
(258,700,cs),
(50,700,l),
(50,0,l)
);
},
{
closed = 1;
nodes = (
(488,0,l),
(401,326,l),
(242,299,l),
(302,0,l)
);
}
);
width = 506;
},
{
anchors = (
{
name = bottom;
pos = (312,0);
},
{
name = top;
pos = (312,700);
}
);
layerId = m002;
shapes = (
{
closed = 1;
nodes = (
(248,0,l),
(248,588,l),
(203,543,l),
(308,543,ls),
(362,543,o),
(378,515,o),
(378,465,cs),
(378,455,ls),
(378,405,o),
(362,377,o),
(308,377,cs),
(232,377,l),
(232,250,l),
(320,250,ls),
(527,250,o),
(573,322,o),
(573,434,cs),
(573,496,ls),
(573,627,o),
(527,700,o),
(320,700,cs),
(50,700,l),
(50,0,l)
);
},
{
closed = 1;
nodes = (
(578,0,l),
(461,333,l),
(262,307,l),
(344,0,l)
);
}
);
width = 603;
}
);
},
{
glyphname = nhookleft;
kernLeft = nhookleft;
kernRight = nhookleft;
lastChange = "2021-10-28 01:56:51 +0000";
layers = (
{
layerId = m01;
shapes = (
{
ref = N;
},
{
closed = 1;
nodes = (
(-16,-211,l),
(6,-212,o),
(14,-212,o),
(26,-212,cs),
(159,-212,o),
(194,-151,o),
(194,-50,cs),
(194,0,l),
(50,0,l),
(50,-24,ls),
(50,-65,o),
(40,-82,o),
(6,-82,cs),
(1,-82,o),
(-6,-82,o),
(-16,-81,c)
);
}
);
width = 514;
},
{
layerId = m002;
shapes = (
{
pos = (10,0);
ref = N;
},
{
closed = 1;
nodes = (
(-55,-211,l),
(-30,-212,o),
(-20,-212,o),
(-7,-212,cs),
(183,-212,o),
(233,-136,o),
(233,-10,cs),
(233,0,l),
(60,0,l),
(60,-24,ls),
(60,-65,o),
(45,-82,o),
(-7,-82,cs),
(-19,-82,o),
(-34,-82,o),
(-55,-81,c)
);
}
);
width = 610;
}
);
unicode = 626;
},
{
glyphname = nhookretroflex;
kernLeft = nhookretroflex;
kernRight = nhookretroflex;
lastChange = "2021-10-28 01:56:17 +0000";
layers = (
{
layerId = m01;
shapes = (
{
closed = 1;
nodes = (
(500,-212,o),
(508,-212,o),
(530,-211,c),
(530,-81,l),
(520,-82,o),
(513,-82,o),
(508,-82,cs),
(474,-82,o),
(464,-65,o),
(464,-24,cs),
(464,0,l),
(320,0,l),
(320,-50,ls),
(320,-151,o),
(355,-212,o),
(488,-212,cs)
);
},
{
ref = N;
}
);
width = 514;
},
{
layerId = m002;
shapes = (
{
closed = 1;
nodes = (
(658,-212,o),
(668,-212,o),
(693,-211,c),
(693,-81,l),
(672,-82,o),
(657,-82,o),
(645,-82,cs),
(593,-82,o),
(578,-65,o),
(578,-24,cs),
(578,0,l),
(395,0,l),
(395,-10,ls),
(395,-136,o),
(447,-212,o),
(645,-212,cs)
);
},
{
ref = N;
}
);
width = 648;
}
);
unicode = 627;
},
{
glyphname = zero;
kernLeft = zero;
kernRight = zero;
lastChange = "2021-10-27 07:53:20 +0000";
layers = (
{
layerId = m01;
shapes = (
{
closed = 1;
nodes = (
(405,-12,o),
(456,35,o),
(456,202,cs),
(456,498,ls),
(456,665,o),
(405,712,o),
(250,712,cs),
(95,712,o),
(44,665,o),
(44,498,cs),
(44,202,ls),
(44,35,o),
(95,-12,o),
(250,-12,cs)
);
},
{
closed = 1;
nodes = (
(224,138,o),
(218,155,o),
(218,184,cs),
(218,516,ls),
(218,545,o),
(224,562,o),
(250,562,cs),
(276,562,o),
(282,545,o),
(282,516,cs),
(282,184,ls),
(282,155,o),
(276,138,o),
(250,138,cs)
);
}
);
width = 500;
},
{
layerId = m002;
shapes = (
{
closed = 1;
nodes = (
(503,-12,o),
(540,73,o),
(540,304,cs),
(540,396,ls),
(540,627,o),
(503,712,o),
(290,712,cs),
(77,712,o),
(40,627,o),
(40,396,cs),
(40,304,ls),
(40,73,o),
(77,-12,o),
(290,-12,cs)
);
},
{
closed = 1;
nodes = (
(250,138,o),
(240,163,o),
(240,204,cs),
(240,496,ls),
(240,537,o),
(250,562,o),
(290,562,cs),
(330,562,o),
(340,537,o),
(340,496,cs),
(340,204,ls),
(340,163,o),
(330,138,o),
(290,138,cs)
);
}
);
width = 580;
}
);
unicode = 48;
},
{
glyphname = one;
kernLeft = one;
kernRight = one;
lastChange = "2021-10-28 01:46:29 +0000";
layers = (
{
layerId = m01;
shapes = (
{
closed = 1;
nodes = (
(268,0,l),
(268,700,l),
(110,700,l),
(88,655,o),
(54,633,o),
(8,630,c),
(8,413,l),
(62,427,o),
(92,452,o),
(104,487,c),
(50,466,l),
(135,466,l),
(90,493,l),
(90,0,l)
);
}
);
width = 318;
},
{
layerId = m002;
shapes = (
{
closed = 1;
nodes = (
(344,0,l),
(344,700,l),
(158,700,l),
(114,667,o),
(70,633,o),
(26,600,c),
(26,353,l),
(68,388,o),
(110,422,o),
(152,457,c),
(98,436,l),
(183,436,l),
(138,463,l),
(138,0,l)
);
}
);
width = 394;
}
);
unicode = 49;
},
{
glyphname = two;
kernLeft = two;
kernRight = two;
lastChange = "2021-10-28 01:47:26 +0000";
layers = (
{
layerId = m01;
shapes = (
{
closed = 1;
nodes = (
(420,0,l),
(420,164,l),
(111,164,l),
(230,110,l),
(230,219,l),
(160,78,l),
(338,314,ls),
(395,389,o),
(414,437,o),
(414,499,cs),
(414,511,ls),
(414,645,o),
(360,712,o),
(224,712,cs),
(77,712,o),
(20,654,o),
(20,507,cs),
(20,487,o),
(20,466,o),
(22,446,c),
(186,446,l),
(183,461,o),
(183,477,o),
(183,492,cs),
(183,538,o),
(192,554,o),
(213,554,cs),
(235,554,o),
(244,537,o),
(244,495,cs),
(244,464,o),
(241,444,o),
(211,404,cs),
(-3,119,l),
(22,249,l),
(22,0,l)
);
}
);
width = 440;
},
{
layerId = m002;
shapes = (
{
closed = 1;
nodes = (
(520,0,l),
(520,164,l),
(153,164,l),
(245,110,l),
(245,219,l),
(187,125,l),
(425,326,ls),
(489,380,o),
(514,427,o),
(514,484,cs),
(514,518,ls),
(514,649,o),
(439,712,o),
(276,712,cs),
(102,712,o),
(34,656,o),
(34,513,cs),
(34,492,o),
(34,470,o),
(34,449,c),
(214,442,l),
(214,457,o),
(214,471,o),
(214,486,cs),
(214,535,o),
(233,551,o),
(274,551,cs),
(313,551,o),
(328,535,o),
(328,495,cs),
(328,464,o),
(323,447,o),
(296,424,cs),
(6,171,l),
(36,249,l),
(36,0,l)
);
}
);
width = 542;
}
);
unicode = 50;
},
{
glyphname = three;
kernLeft = three;
kernRight = three;
lastChange = "2021-10-28 01:45:23 +0000";
layers = (
{
layerId = m01;
shapes = (
{
closed = 1;
nodes = (
(353,-12,o),
(416,50,o),
(416,177,cs),
(416,221,ls),
(416,334,o),
(383,387,o),
(296,387,c),
(330,337,l),
(330,433,l),
(292,389,l),
(369,390,o),
(406,422,o),
(406,511,cs),
(406,535,ls),
(406,650,o),
(346,712,o),
(217,712,cs),
(79,712,o),
(17,653,o),
(17,503,cs),
(17,489,o),
(17,476,o),
(19,462,c),
(176,462,l),
(174,475,o),
(174,488,o),
(174,501,cs),
(174,546,o),
(187,562,o),
(215,562,cs),
(242,562,o),
(250,537,o),
(250,482,cs),
(250,432,o),
(245,420,o),
(224,420,cs),
(170,420,l),
(170,291,l),
(218,291,ls),
(241,291,o),
(250,276,o),
(250,221,cs),
(250,164,o),
(242,139,o),
(217,139,cs),
(189,139,o),
(176,155,o),
(176,199,cs),
(176,215,o),
(176,230,o),
(178,246,c),
(12,246,l),
(10,230,o),
(10,213,o),
(10,197,cs),
(10,47,o),
(79,-12,o),
(219,-12,cs)
);
}
);
width = 432;
},
{
layerId = m002;
shapes = (
{
closed = 1;
nodes = (
(420,-12,o),
(495,50,o),
(495,177,cs),
(495,221,ls),
(495,334,o),
(457,387,o),
(355,387,c),
(389,337,l),
(389,433,l),
(351,389,l),
(441,390,o),
(485,422,o),
(485,511,cs),
(485,535,ls),
(485,650,o),
(413,712,o),
(259,712,cs),
(96,712,o),
(22,656,o),
(22,513,cs),
(22,500,o),
(22,488,o),
(22,475,c),
(199,468,l),
(199,476,o),
(199,483,o),
(199,491,cs),
(199,538,o),
(218,555,o),
(257,555,cs),
(297,555,o),
(309,532,o),
(309,482,cs),
(309,432,o),
(300,420,o),
(275,420,cs),
(209,420,l),
(209,291,l),
(265,291,ls),
(300,291,o),
(309,276,o),
(309,221,cs),
(309,168,o),
(297,145,o),
(259,145,cs),
(220,145,o),
(201,162,o),
(201,209,cs),
(201,219,o),
(201,229,o),
(201,239,c),
(15,232,l),
(15,217,o),
(15,202,o),
(15,187,cs),
(15,44,o),
(96,-12,o),
(261,-12,cs)
);
}
);
width = 515;
}
);
unicode = 51;
},
{
glyphname = four;
kernLeft = four;
kernRight = four;
lastChange = "2021-10-28 01:38:50 +0000";
layers = (
{
layerId = m01;
shapes = (
{
closed = 1;
nodes = (
(375,0,l),
(375,700,l),
(149,700,l),
(8,316,l),
(8,123,l),
(427,123,l),
(427,280,l),
(64,280,l),
(103,196,l),
(220,548,l),
(151,510,l),
(254,510,l),
(212,555,l),
(212,0,l)
);
}
);
width = 437;
},
{
layerId = m002;
shapes = (
{
closed = 1;
nodes = (
(457,0,l),
(457,700,l),
(241,700,l),
(20,324,l),
(20,113,l),
(544,113,l),
(544,240,l),
(76,240,l),
(97,192,l),
(272,498,l),
(203,460,l),
(306,460,l),
(261,505,l),
(261,0,l)
);
}
);
width = 550;
}
);
unicode = 52;
},
{
glyphname = five;
kernLeft = five;
kernRight = five;
lastChange = "2021-10-28 01:40:53 +0000";
layers = (
{
layerId = m01;
shapes = (
{
closed = 1;
nodes = (
(363,-12,o),
(415,53,o),
(415,187,cs),
(415,283,ls),
(415,416,o),
(373,473,o),
(279,473,cs),
(223,473,o),
(188,449,o),
(171,381,c),
(207,409,l),
(131,409,l),
(175,361,l),
(181,581,l),
(135,536,l),
(399,536,l),
(399,700,l),
(45,700,l),
(33,292,l),
(184,287,l),
(187,318,o),
(195,331,o),
(219,331,cs),
(241,331,o),
(249,316,o),
(249,263,cs),
(249,221,ls),
(249,170,o),
(242,145,o),
(219,145,cs),
(193,145,o),
(181,162,o),
(181,209,cs),
(181,218,o),
(182,227,o),
(184,236,c),
(28,236,l),
(26,220,o),
(25,203,o),
(25,187,cs),
(25,44,o),
(86,-12,o),
(225,-12,cs)
);
}
);
width = 435;
},
{
layerId = m002;
shapes = (
{
closed = 1;
nodes = (
(432,-12,o),
(495,53,o),
(495,187,cs),
(495,283,ls),
(495,402,o),
(443,453,o),
(329,453,cs),
(255,453,o),
(210,434,o),
(188,381,c),
(247,406,l),
(151,406,l),
(195,361,l),
(201,581,l),
(155,536,l),
(479,536,l),
(479,700,l),
(45,700,l),
(33,292,l),
(207,287,l),
(215,319,o),
(230,331,o),
(259,331,cs),
(296,331,o),
(309,316,o),
(309,263,cs),
(309,221,ls),
(309,170,o),
(297,145,o),
(259,145,cs),
(220,145,o),
(201,161,o),
(201,205,cs),
(201,210,o),
(201,214,o),
(201,219,c),
(25,212,l),
(25,204,o),
(25,195,o),
(25,187,cs),
(25,44,o),
(98,-12,o),
(265,-12,cs)
);
}
);
width = 515;
}
);
unicode = 53;
},
{
glyphname = six;
kernLeft = six;
kernRight = six;
lastChange = "2021-10-28 01:42:42 +0000";
layers = (
{
background = {
shapes = (
{
ref = zero;
}
);
};
layerId = m01;
shapes = (
{
closed = 1;
nodes = (
(423,-12,o),
(458,53,o),
(458,187,cs),
(458,283,ls),
(458,402,o),
(418,453,o),
(330,453,cs),
(264,453,o),
(226,426,o),
(210,349,c),
(264,398,l),
(193,398,l),
(216,347,l),
(216,506,ls),
(216,562,o),
(225,582,o),
(252,582,cs),
(279,582,o),
(288,565,o),
(288,525,cs),
(288,513,o),
(287,503,o),
(285,491,c),
(451,491,l),
(453,504,o),
(454,515,o),
(454,525,cs),
(454,635,o),
(431,712,o),
(252,712,cs),
(72,712,o),
(44,627,o),
(44,396,cs),
(44,257,ls),
(44,57,o),
(80,-12,o),
(252,-12,cs)
);
},
{
closed = 1;
nodes = (
(227,135,o),
(216,154,o),
(216,205,cs),
(216,261,ls),
(216,312,o),
(227,331,o),
(256,331,cs),
(285,331,o),
(296,312,o),
(296,261,cs),
(296,205,ls),
(296,154,o),
(285,135,o),
(256,135,cs)
);
}
);
width = 496;
},
{
layerId = m002;
shapes = (
{
closed = 1;
nodes = (
(489,-12,o),
(530,53,o),
(530,187,cs),
(530,283,ls),
(530,402,o),
(478,453,o),
(364,453,cs),
(287,453,o),
(244,426,o),
(226,349,c),
(278,398,l),
(209,398,l),
(232,347,l),
(232,506,ls),
(232,562,o),
(246,582,o),
(286,582,cs),
(326,582,o),
(340,562,o),
(340,516,cs),
(340,507,o),
(340,497,o),
(340,488,c),
(526,494,l),
(526,501,o),
(526,509,o),
(526,516,cs),
(526,631,o),
(499,712,o),
(286,712,cs),
(73,712,o),
(40,627,o),
(40,396,cs),
(40,257,ls),
(40,57,o),
(83,-12,o),
(286,-12,cs)
);
},
{
closed = 1;
nodes = (
(248,145,o),
(232,164,o),
(232,215,cs),
(232,261,ls),
(232,312,o),
(248,331,o),
(290,331,cs),
(332,331,o),
(348,312,o),
(348,261,cs),
(348,215,ls),
(348,164,o),
(332,145,o),
(290,145,cs)
);
}
);
width = 560;
}
);
unicode = 54;
},
{
glyphname = seven;
kernLeft = seven;
kernRight = seven;
lastChange = "2021-10-28 01:46:34 +0000";
layers = (
{
layerId = m01;
shapes = (
{
closed = 1;
nodes = (
(282,0,l),
(414,587,l),
(414,700,l),
(5,700,l),
(5,536,l),
(267,536,l),
(242,587,l),
(96,0,l)
);
}
);
width = 426;
},
{
layerId = m002;
shapes = (
{
closed = 1;
nodes = (
(301,0,l),
(473,517,l),
(473,700,l),
(14,700,l),
(14,536,l),
(306,536,l),
(298,590,l),
(95,0,l)
);
}
);
width = 495;
}
);
unicode = 55;
},
{
glyphname = eight;
kernLeft = eight;
kernRight = eight;
lastChange = "2021-10-28 01:44:08 +0000";
layers = (
{
layerId = m01;
shapes = (
{
closed = 1;
nodes = (
(407,-12,o),
(443,43,o),
(443,166,cs),
(443,205,ls),
(443,325,o),
(412,369,o),
(233,369,cs),
(54,369,o),
(23,325,o),
(23,205,cs),
(23,166,ls),
(23,43,o),
(59,-12,o),
(233,-12,cs)
);
},
{
closed = 1;
nodes = (
(205,108,o),
(197,129,o),
(197,173,cs),
(197,229,ls),
(197,271,o),
(205,294,o),
(233,294,cs),
(261,294,o),
(269,271,o),
(269,229,cs),
(269,173,ls),
(269,129,o),
(261,108,o),
(233,108,cs)
);
},
{
closed = 1;
nodes = (
(331,345,l),
(331,383,l),
(135,383,l),
(135,345,l)
);
},
{
closed = 1;
nodes = (
(205,406,o),
(197,427,o),
(197,471,cs),
(197,527,ls),
(197,569,o),
(205,592,o),
(233,592,cs),
(261,592,o),
(269,569,o),
(269,527,cs),
(269,471,ls),
(269,427,o),
(261,406,o),
(233,406,cs)
);
},
{
closed = 1;
nodes = (
(405,361,o),
(435,407,o),
(435,509,cs),
(435,543,ls),
(435,652,o),
(397,712,o),
(233,712,cs),
(69,712,o),
(31,652,o),
(31,543,cs),
(31,509,ls),
(31,407,o),
(61,361,o),
(233,361,cs)
);
}
);
width = 466;
},
{
layerId = m002;
shapes = (
{
closed = 1;
nodes = (
(481,-12,o),
(524,43,o),
(524,166,cs),
(524,205,ls),
(524,325,o),
(487,369,o),
(274,369,cs),
(61,369,o),
(24,325,o),
(24,205,cs),
(24,166,ls),
(24,43,o),
(67,-12,o),
(274,-12,cs)
);
},
{
closed = 1;
nodes = (
(231,108,o),
(218,129,o),
(218,173,cs),
(218,229,ls),
(218,271,o),
(231,294,o),
(274,294,cs),
(317,294,o),
(330,271,o),
(330,229,cs),
(330,173,ls),
(330,129,o),
(317,108,o),
(274,108,cs)
);
},
{
closed = 1;
nodes = (
(399,345,l),
(399,383,l),
(149,383,l),
(149,345,l)
);
},
{
closed = 1;
nodes = (
(231,406,o),
(218,427,o),
(218,471,cs),
(218,527,ls),
(218,569,o),
(231,592,o),
(274,592,cs),
(317,592,o),
(330,569,o),
(330,527,cs),
(330,471,ls),
(330,427,o),
(317,406,o),
(274,406,cs)
);
},
{
closed = 1;
nodes = (
(480,361,o),
(516,407,o),
(516,509,cs),
(516,543,ls),
(516,652,o),
(471,712,o),
(274,712,cs),
(77,712,o),
(32,652,o),
(32,543,cs),
(32,509,ls),
(32,407,o),
(68,361,o),
(274,361,cs)
);
}
);
width = 548;
}
);
unicode = 56;
},
{
glyphname = one.ss01;
lastChange = "2021-10-28 02:05:26 +0000";
layers = (
{
layerId = m01;
shapes = (
{
closed = 1;
nodes = (
(268,0,l),
(268,700,l),
(160,700,l),
(8,590,l),
(8,413,l),
(104,487,l),
(90,493,l),
(90,0,l)
);
}
);
width = 318;
},
{
layerId = m002;
shapes = (
{
closed = 1;
nodes = (
(344,0,l),
(344,700,l),
(158,700,l),
(26,600,l),
(26,353,l),
(152,457,l),
(138,463,l),
(138,0,l)
);
}
);
width = 394;
}
);
},
{
glyphname = period;
kernLeft = period;
kernRight = period;
lastChange = "2021-10-27 07:15:31 +0000";
layers = (
{
layerId = m01;
shapes = (
{
closed = 1;
nodes = (
(193,0,l),
(193,224,l),
(25,224,l),
(25,0,l)
);
}
);
width = 218;
},
{
layerId = m002;
shapes = (
{
closed = 1;
nodes = (
(233,0,l),
(233,224,l),
(45,224,l),
(45,0,l)
);
}
);
width = 278;
}
);
unicode = 46;
},
{
glyphname = comma;
kernLeft = period;
kernRight = period;
lastChange = "2021-10-27 07:21:05 +0000";
layers = (
{
layerId = m002;
shapes = (
{
closed = 1;
nodes = (
(233,0,l),
(233,224,l),
(45,224,l),
(45,0,l)
);
},
{
closed = 1;
nodes = (
(111,-175,ls),
(208,-175,o),
(233,-148,o),
(233,-46,cs),
(233,0,l),
(139,0,l),
(139,-48,ls),
(139,-82,o),
(127,-94,o),
(90,-94,cs),
(47,-94,l),
(47,-175,l)
);
}
);
width = 278;
},
{
associatedMasterId = m01;
layerId = "C1416530-EEE7-49B8-9A55-F20BDD5C0B40";
name = "27 Oct 21, 18:18";
shapes = (
{
closed = 1;
nodes = (
(198,0,l),
(198,224,l),
(30,224,l),
(30,0,l)
);
},
{
closed = 1;
nodes = (
(92,-150,l),
(115,-101,o),
(151,-51,o),
(198,0,c),
(104,0,l),
(60,-43,o),
(21,-93,o),
(-14,-150,c)
);
}
);
width = 223;
},
{
layerId = m01;
name = Condensed;
shapes = (
{
closed = 1;
nodes = (
(193,0,l),
(193,214,l),
(25,214,l),
(25,0,l)
);
},
{
closed = 1;
nodes = (
(101,-170,ls),
(163,-170,o),
(193,-150,o),
(193,-74,cs),
(193,0,l),
(104,0,l),
(104,-35,ls),
(104,-79,o),
(96,-94,o),
(56,-94,cs),
(25,-94,l),
(33,-170,l)
);
}
);
width = 218;
}
);
unicode = 44;
},
{
glyphname = ellipsis;
kernLeft = period;
kernRight = period;
lastChange = "2021-10-27 05:56:50 +0000";
layers = (
{
guides = (
{
pos = (-38,93);
showMeasurement = 1;
}
);
layerId = m01;
shapes = (
{
closed = 1;
nodes = (
(620,0,l),
(770,0,l),
(770,194,l),
(620,194,l)
);
},
{
closed = 1;
nodes = (
(50,0,l),
(200,0,l),
(200,194,l),
(50,194,l)
);
},
{
closed = 1;
nodes = (
(335,0,l),
(485,0,l),
(485,194,l),
(335,194,l)
);
}
);
width = 820;
},
{
guides = (
{
pos = (-38,93);
showMeasurement = 1;
}
);
layerId = m002;
shapes = (
{
closed = 1;
nodes = (
(620,0,l),
(770,0,l),
(770,194,l),
(620,194,l)
);
},
{
closed = 1;
nodes = (
(50,0,l),
(200,0,l),
(200,194,l),
(50,194,l)
);
},
{
closed = 1;
nodes = (
(335,0,l),
(485,0,l),
(485,194,l),
(335,194,l)
);
}
);
width = 820;
}
);
unicode = 8230;
},
{
glyphname = exclam;
kernLeft = exclam;
kernRight = exclam;
lastChange = "2021-10-28 01:59:34 +0000";
layers = (
{
layerId = m01;
shapes = (
{
closed = 1;
nodes = (
(165,233,l),
(204,455,l),
(204,700,l),
(44,700,l),
(44,455,l),
(83,233,l)
);
},
{
pos = (15,0);
ref = period;
scale = (1,0.7357);
}
);
width = 248;
},
{
layerId = m002;
shapes = (
{
closed = 1;
nodes = (
(207,240,l),
(248,415,l),
(248,700,l),
(60,700,l),
(60,415,l),
(101,240,l)
);
},
{
pos = (15,0);
ref = period;
scale = (1,0.7357);
}
);
width = 308;
}
);
unicode = 33;
},
{
glyphname = question;
kernLeft = question;
kernRight = question;
lastChange = "2021-10-28 01:59:13 +0000";
layers = (
{
layerId = m01;
shapes = (
{
closed = 1;
nodes = (
(243,225,l),
(243,249,ls),
(243,281,o),
(246,304,o),
(266,327,cs),
(304,370,ls),
(342,413,o),
(360,451,o),
(360,503,cs),
(360,534,ls),
(360,654,o),
(304,712,o),
(182,712,cs),
(56,712,o),
(6,658,o),
(6,530,cs),
(6,514,o),
(7,497,o),
(9,481,c),
(159,481,l),
(157,495,o),
(156,510,o),
(156,525,cs),
(156,558,o),
(164,569,o),
(180,569,cs),
(199,569,o),
(207,556,o),
(207,523,cs),
(207,482,o),
(206,453,o),
(185,431,cs),
(150,393,ls),
(115,355,o),
(116,326,o),
(116,264,cs),
(116,225,l)
);
},
{
pos = (71,0);
ref = period;
scale = (1,0.7357);
}
);
width = 372;
},
{
layerId = m002;
shapes = (
{
closed = 1;
nodes = (
(303,225,l),
(303,256,ls),
(303,283,o),
(309,302,o),
(330,319,cs),
(401,377,ls),
(446,414,o),
(458,451,o),
(458,503,cs),
(458,534,ls),
(458,654,o),
(389,712,o),
(240,712,cs),
(85,712,o),
(24,658,o),
(24,530,cs),
(24,508,o),
(24,486,o),
(24,464,c),
(194,458,l),
(194,474,o),
(194,489,o),
(194,505,cs),
(194,553,o),
(208,569,o),
(238,569,cs),
(271,569,o),
(285,553,o),
(285,513,cs),
(285,477,o),
(278,459,o),
(257,441,cs),
(196,387,ls),
(168,363,o),
(156,336,o),
(156,304,cs),
(156,225,l)
);
},
{
pos = (92,0);
ref = period;
scale = (1,0.7357);
}
);
width = 488;
}
);
unicode = 63;
},
{
glyphname = bullet;
kernLeft = bullet;
kernRight = bullet;
lastChange = "2021-10-27 05:56:50 +0000";
layers = (
{
layerId = m01;
shapes = (
{
closed = 1;
nodes = (
(60,257,ls),
(60,172,o),
(98,126,o),
(210,126,cs),
(322,126,o),
(360,172,o),
(360,257,cs),
(360,315,ls),
(360,400,o),
(322,446,o),
(210,446,cs),
(98,446,o),
(60,400,o),
(60,315,cs)
);
}
);
width = 420;
},
{
layerId = m002;
shapes = (
{
closed = 1;
nodes = (
(60,257,ls),
(60,172,o),
(98,126,o),
(210,126,cs),
(322,126,o),
(360,172,o),
(360,257,cs),
(360,315,ls),
(360,400,o),
(322,446,o),
(210,446,cs),
(98,446,o),
(60,400,o),
(60,315,cs)
);
}
);
width = 420;
}
);
unicode = 8226;
},
{
glyphname = interrobang;
kernLeft = interrobang;
kernRight = interrobang;
lastChange = "2021-10-27 05:56:50 +0000";
layers = (
{
layerId = m01;
shapes = (
{
pos = (43,0);
ref = period;
scale = (1,0.7357);
},
{
closed = 1;
nodes = (
(15,556,l),
(102,574,o),
(157,578,o),
(181,578,cs),
(261,578,o),
(278,560,o),
(278,509,cs),
(278,463,o),
(269,451,o),
(245,432,cs),
(179,381,l),
(223,370,l),
(237,781,l),
(110,781,l),
(125,235,l),
(235,235,l),
(235,256,ls),
(235,283,o),
(239,304,o),
(262,319,cs),
(334,366,ls),
(398,408,o),
(415,448,o),
(415,518,cs),
(415,529,ls),
(415,644,o),
(349,707,o),
(181,707,cs),
(128,707,o),
(73,704,o),
(15,690,c)
);
}
);
width = 445;
},
{
layerId = m002;
shapes = (
{
pos = (43,0);
ref = period;
scale = (1,0.7357);
},
{
closed = 1;
nodes = (
(15,556,l),
(102,574,o),
(157,578,o),
(181,578,cs),
(261,578,o),
(278,560,o),
(278,509,cs),
(278,463,o),
(269,451,o),
(245,432,cs),
(179,381,l),
(223,370,l),
(237,781,l),
(110,781,l),
(125,235,l),
(235,235,l),
(235,256,ls),
(235,283,o),
(239,304,o),
(262,319,cs),
(334,366,ls),
(398,408,o),
(415,448,o),
(415,518,cs),
(415,529,ls),
(415,644,o),
(349,707,o),
(181,707,cs),
(128,707,o),
(73,704,o),
(15,690,c)
);
}
);
width = 445;
}
);
unicode = 8253;
},
{
glyphname = numbersign;
kernLeft = numbersign;
kernRight = numbersign;
lastChange = "2021-10-27 05:56:50 +0000";
layers = (
{
layerId = m01;
shapes = (
{
closed = 1;
nodes = (
(102,0,l),
(232,0,l),
(312,700,l),
(182,700,l)
);
},
{
closed = 1;
nodes = (
(337,0,l),
(467,0,l),
(547,700,l),
(417,700,l)
);
},
{
closed = 1;
nodes = (
(59,435,l),
(613,435,l),
(613,525,l),
(59,525,l)
);
},
{
closed = 1;
nodes = (
(30,169,l),
(584,169,l),
(584,259,l),
(30,259,l)
);
}
);
width = 643;
},
{
layerId = m002;
shapes = (
{
closed = 1;
nodes = (
(102,0,l),
(232,0,l),
(312,700,l),
(182,700,l)
);
},
{
closed = 1;
nodes = (
(337,0,l),
(467,0,l),
(547,700,l),
(417,700,l)
);
},
{
closed = 1;
nodes = (
(59,435,l),
(613,435,l),
(613,525,l),
(59,525,l)
);
},
{
closed = 1;
nodes = (
(30,169,l),
(584,169,l),
(584,259,l),
(30,259,l)
);
}
);
width = 643;
}
);
unicode = 35;
},
{
glyphname = slash;
kernLeft = slash;
kernRight = slash;
lastChange = "2021-10-27 05:56:50 +0000";
layers = (
{
layerId = m01;
shapes = (
{
closed = 1;
nodes = (
(-14,-100,l),
(116,-100,l),
(396,730,l),
(266,730,l)
);
}
);
width = 396;
},
{
layerId = m002;
shapes = (
{
closed = 1;
nodes = (
(-14,-100,l),
(116,-100,l),
(396,730,l),
(266,730,l)
);
}
);
width = 396;
}
);
unicode = 47;
},
{
glyphname = hyphen;
kernLeft = hyphen;
kernRight = hyphen;
lastChange = "2021-10-27 07:16:41 +0000";
layers = (
{
layerId = m01;
shapes = (
{
closed = 1;
nodes = (
(220,257,l),
(220,427,l),
(20,427,l),
(20,257,l)
);
}
);
width = 240;
},
{
layerId = m002;
shapes = (
{
closed = 1;
nodes = (
(240,257,l),
(240,427,l),
(20,427,l),
(20,257,l)
);
}
);
width = 260;
}
);
unicode = 45;
},
{
glyphname = endash;
kernLeft = hyphen;
kernRight = hyphen;
lastChange = "2021-10-27 05:56:50 +0000";
layers = (
{
layerId = m01;
shapes = (
{
closed = 1;
nodes = (
(25,277,l),
(467,277,l),
(467,407,l),
(25,407,l)
);
}
);
width = 492;
},
{
layerId = m002;
shapes = (
{
closed = 1;
nodes = (
(25,277,l),
(467,277,l),
(467,407,l),
(25,407,l)
);
}
);
width = 492;
}
);
unicode = 8211;
},
{
glyphname = emdash;
kernLeft = hyphen;
kernRight = hyphen;
lastChange = "2021-10-27 05:56:50 +0000";
layers = (
{
layerId = m01;
shapes = (
{
closed = 1;
nodes = (
(20,277,l),
(712,277,l),
(712,407,l),
(20,407,l)
);
}
);
width = 732;
},
{
layerId = m002;
shapes = (
{
closed = 1;
nodes = (
(20,277,l),
(712,277,l),
(712,407,l),
(20,407,l)
);
}
);
width = 732;
}
);
unicode = 8212;
},
{
glyphname = parenleft;
kernLeft = parenleft;
kernRight = parenleft;
lastChange = "2021-10-29 03:53:04 +0000";
layers = (
{
layerId = m01;
shapes = (
{
closed = 1;
nodes = (
(206,548,o),
(255,633,o),
(353,740,c),
(230,740,l),
(113,640,o),
(55,492,o),
(55,325,cs),
(55,158,o),
(113,10,o),
(230,-90,c),
(353,-90,l),
(255,17,o),
(206,102,o),
(206,205,cs),
(206,445,ls)
);
}
);
width = 333;
},
{
layerId = m002;
shapes = (
{
closed = 1;
nodes = (
(206,538,o),
(255,623,o),
(353,730,c),
(230,730,l),
(113,630,o),
(55,482,o),
(55,315,cs),
(55,148,o),
(113,0,o),
(230,-100,c),
(353,-100,l),
(255,7,o),
(206,92,o),
(206,195,cs),
(206,435,ls)
);
}
);
width = 333;
}
);
unicode = 40;
},
{
glyphname = braceleft;
kernLeft = braceleft;
kernRight = braceleft;
lastChange = "2021-10-29 03:53:09 +0000";
layers = (
{
layerId = m01;
shapes = (
{
closed = 1;
nodes = (
(226,562,ls),
(226,623,o),
(239,632,o),
(286,632,cs),
(326,632,l),
(326,740,l),
(233,740,ls),
(136,740,o),
(103,710,o),
(103,591,cs),
(103,457,ls),
(103,401,o),
(90,385,o),
(43,385,cs),
(20,385,l),
(20,265,l),
(43,265,ls),
(90,265,o),
(103,249,o),
(103,193,cs),
(103,59,ls),
(103,-60,o),
(136,-90,o),
(233,-90,cs),
(326,-90,l),
(326,18,l),
(286,18,ls),
(239,18,o),
(226,27,o),
(226,88,cs),
(226,255,ls),
(226,295,o),
(195,315,o),
(170,315,c),
(170,335,l),
(195,335,o),
(226,355,o),
(226,395,cs)
);
}
);
width = 336;
},
{
layerId = m002;
shapes = (
{
closed = 1;
nodes = (
(226,552,ls),
(226,613,o),
(239,622,o),
(286,622,cs),
(326,622,l),
(326,730,l),
(233,730,ls),
(136,730,o),
(103,700,o),
(103,581,cs),
(103,447,ls),
(103,391,o),
(90,375,o),
(43,375,cs),
(20,375,l),
(20,255,l),
(43,255,ls),
(90,255,o),
(103,239,o),
(103,183,cs),
(103,49,ls),
(103,-70,o),
(136,-100,o),
(233,-100,cs),
(326,-100,l),
(326,8,l),
(286,8,ls),
(239,8,o),
(226,17,o),
(226,78,cs),
(226,245,ls),
(226,285,o),
(195,305,o),
(170,305,c),
(170,325,l),
(195,325,o),
(226,345,o),
(226,385,cs)
);
}
);
width = 336;
}
);
unicode = 123;
},
{
glyphname = bracketleft;
kernLeft = bracketleft;
kernRight = bracketleft;
lastChange = "2021-10-29 03:53:10 +0000";
layers = (
{
layerId = m01;
shapes = (
{
closed = 1;
nodes = (
(333,-90,l),
(333,18,l),
(233,18,l),
(233,632,l),
(333,632,l),
(333,740,l),
(90,740,l),
(90,-90,l)
);
}
);
width = 333;
},
{
layerId = m002;
shapes = (
{
closed = 1;
nodes = (
(333,-100,l),
(333,8,l),
(233,8,l),
(233,622,l),
(333,622,l),
(333,730,l),
(90,730,l),
(90,-100,l)
);
}
);
width = 333;
}
);
unicode = 91;
},
{
glyphname = quotedblbase;
kernLeft = period;
kernRight = period;
lastChange = "2021-10-27 05:56:50 +0000";
layers = (
{
layerId = m01;
shapes = (
{
closed = 1;
nodes = (
(45,0,l),
(203,0,l),
(203,224,l),
(45,224,l)
);
},
{
closed = 1;
nodes = (
(109,-48,ls),
(109,-82,o),
(97,-94,o),
(60,-94,cs),
(47,-94,l),
(47,-175,l),
(81,-175,ls),
(178,-175,o),
(203,-148,o),
(203,-46,cs),
(203,0,l),
(109,0,l)
);
},
{
closed = 1;
nodes = (
(260,0,l),
(418,0,l),
(418,224,l),
(260,224,l)
);
},
{
closed = 1;
nodes = (
(324,-48,l),
(324,-82,o),
(312,-94,o),
(275,-94,c),
(262,-94,l),
(262,-175,l),
(296,-175,l),
(393,-175,o),
(418,-148,o),
(418,-46,c),
(418,0,l),
(324,0,l)
);
}
);
width = 463;
},
{
layerId = m002;
shapes = (
{
closed = 1;
nodes = (
(45,0,l),
(203,0,l),
(203,224,l),
(45,224,l)
);
},
{
closed = 1;
nodes = (
(109,-48,ls),
(109,-82,o),
(97,-94,o),
(60,-94,cs),
(47,-94,l),
(47,-175,l),
(81,-175,ls),
(178,-175,o),
(203,-148,o),
(203,-46,cs),
(203,0,l),
(109,0,l)
);
},
{
closed = 1;
nodes = (
(260,0,l),
(418,0,l),
(418,224,l),
(260,224,l)
);
},
{
closed = 1;
nodes = (
(324,-48,l),
(324,-82,o),
(312,-94,o),
(275,-94,c),
(262,-94,l),
(262,-175,l),
(296,-175,l),
(393,-175,o),
(418,-148,o),
(418,-46,c),
(418,0,l),
(324,0,l)
);
}
);
width = 463;
}
);
metricLeft = comma;
metricRight = comma;
unicode = 8222;
},
{
glyphname = quotedblright;
kernLeft = quote;
kernRight = quote;
lastChange = "2021-10-27 07:29:45 +0000";
layers = (
{
layerId = m01;
shapes = (
{
closed = 1;
nodes = (
(185,492,l),
(185,700,l),
(25,700,l),
(25,492,l)
);
},
{
closed = 1;
nodes = (
(93,316,ls),
(155,316,o),
(185,336,o),
(185,412,cs),
(185,492,l),
(96,492,l),
(96,451,ls),
(96,407,o),
(89,392,o),
(56,392,cs),
(25,392,l),
(33,316,l)
);
},
{
closed = 1;
nodes = (
(388,492,l),
(388,700,l),
(228,700,l),
(228,492,l)
);
},
{
closed = 1;
nodes = (
(296,316,ls),
(358,316,o),
(388,336,o),
(388,412,cs),
(388,492,l),
(299,492,l),
(299,451,ls),
(299,407,o),
(292,392,o),
(259,392,cs),
(228,392,l),
(236,316,l)
);
}
);
width = 413;
},
{
layerId = m002;
shapes = (
{
closed = 1;
nodes = (
(45,476,l),
(203,476,l),
(203,700,l),
(45,700,l)
);
},
{
closed = 1;
nodes = (
(109,428,ls),
(109,394,o),
(97,382,o),
(60,382,cs),
(47,382,l),
(47,301,l),
(81,301,ls),
(178,301,o),
(203,328,o),
(203,430,cs),
(203,476,l),
(109,476,l)
);
},
{
closed = 1;
nodes = (
(260,476,l),
(418,476,l),
(418,700,l),
(260,700,l)
);
},
{
closed = 1;
nodes = (
(324,428,l),
(324,394,o),
(312,382,o),
(275,382,c),
(262,382,l),
(262,301,l),
(296,301,l),
(393,301,o),
(418,328,o),
(418,430,c),
(418,476,l),
(324,476,l)
);
}
);
width = 462;
}
);
metricLeft = comma;
metricRight = comma;
unicode = 8221;
},
{
glyphname = guillemetleft;
kernLeft = guillemetleft;
kernRight = guillemetleft;
lastChange = "2021-10-27 05:56:50 +0000";
layers = (
{
layerId = m01;
shapes = (
{
closed = 1;
nodes = (
(120,120,l),
(270,120,l),
(180,320,l),
(270,520,l),
(120,520,l),
(30,320,l)
);
},
{
closed = 1;
nodes = (
(360,120,l),
(510,120,l),
(420,320,l),
(510,520,l),
(360,520,l),
(270,320,l)
);
}
);
width = 540;
},
{
layerId = m002;
shapes = (
{
closed = 1;
nodes = (
(120,120,l),
(270,120,l),
(180,320,l),
(270,520,l),
(120,520,l),
(30,320,l)
);
},
{
closed = 1;
nodes = (
(360,120,l),
(510,120,l),
(420,320,l),
(510,520,l),
(360,520,l),
(270,320,l)
);
}
);
width = 540;
}
);
unicode = 171;
},
{
glyphname = guilsinglleft;
kernLeft = guillemotleft;
kernRight = guillemotleft;
lastChange = "2021-10-27 05:56:50 +0000";
layers = (
{
layerId = m01;
shapes = (
{
closed = 1;
nodes = (
(130,120,l),
(300,120,l),
(200,320,l),
(300,520,l),
(130,520,l),
(30,320,l)
);
}
);
width = 330;
},
{
layerId = m002;
shapes = (
{
closed = 1;
nodes = (
(130,120,l),
(300,120,l),
(200,320,l),
(300,520,l),
(130,520,l),
(30,320,l)
);
}
);
width = 330;
}
);
unicode = 8249;
},
{
glyphname = quotedbl;
kernLeft = quote;
kernRight = quote;
lastChange = "2021-10-27 05:56:50 +0000";
layers = (
{
layerId = m01;
shapes = (
{
closed = 1;
nodes = (
(50,346,l),
(196,346,l),
(196,700,l),
(50,700,l)
);
},
{
closed = 1;
nodes = (
(272,346,l),
(418,346,l),
(418,700,l),
(272,700,l)
);
}
);
width = 468;
},
{
layerId = m002;
shapes = (
{
closed = 1;
nodes = (
(50,346,l),
(196,346,l),
(196,700,l),
(50,700,l)
);
},
{
closed = 1;
nodes = (
(272,346,l),
(418,346,l),
(418,700,l),
(272,700,l)
);
}
);
width = 468;
}
);
unicode = 34;
},
{
glyphname = quotesingle;
kernLeft = quote;
kernRight = quote;
lastChange = "2021-10-27 05:56:50 +0000";
layers = (
{
layerId = m01;
shapes = (
{
closed = 1;
nodes = (
(50,346,l),
(224,346,l),
(224,700,l),
(50,700,l)
);
}
);
width = 274;
},
{
layerId = m002;
shapes = (
{
closed = 1;
nodes = (
(50,346,l),
(224,346,l),
(224,700,l),
(50,700,l)
);
}
);
width = 274;
}
);
unicode = 39;
},
{
glyphname = whitestar;
lastChange = "2021-10-27 05:56:50 +0000";
layers = (
{
background = {
shapes = (
{
closed = 1;
nodes = (
(430,378,l),
(632,379,l),
(624,405,l),
(459,287,l),
(522,95,l),
(544,111,l),
(382,231,l),
(217,110,l),
(239,94,l),
(303,288,l),
(138,406,l),
(130,380,l),
(333,379,l),
(395,573,l),
(367,573,l)
);
}
);
};
layerId = m01;
shapes = (
{
closed = 1;
nodes = (
(382,156,l),
(613,-13,l),
(620,-8,l),
(530,264,l),
(763,432,l),
(761,440,l),
(473,439,l),
(386,713,l),
(377,713,l),
(289,440,l),
(3,441,l),
(0,432,l),
(233,265,l),
(143,-7,l),
(151,-13,l)
);
},
{
closed = 1;
nodes = (
(257,146,l),
(303,288,l),
(183,374,l),
(185,379,l),
(333,379,l),
(379,520,l),
(384,520,l),
(429,379,l),
(579,379,l),
(581,374,l),
(459,287,l),
(505,146,l),
(501,143,l),
(382,231,l),
(262,143,l)
);
}
);
width = 763;
},
{
background = {
shapes = (
{
closed = 1;
nodes = (
(430,378,l),
(632,379,l),
(624,405,l),
(459,287,l),
(522,95,l),
(544,111,l),
(382,231,l),
(217,110,l),
(239,94,l),
(303,288,l),
(138,406,l),
(130,380,l),
(333,379,l),
(395,573,l),
(367,573,l)
);
}
);
};
layerId = m002;
shapes = (
{
closed = 1;
nodes = (
(382,156,l),
(613,-13,l),
(620,-8,l),
(530,264,l),
(763,432,l),
(761,440,l),
(473,439,l),
(386,713,l),
(377,713,l),
(289,440,l),
(3,441,l),
(0,432,l),
(233,265,l),
(143,-7,l),
(151,-13,l)
);
},
{
closed = 1;
nodes = (
(257,146,l),
(303,288,l),
(183,374,l),
(185,379,l),
(333,379,l),
(379,520,l),
(384,520,l),
(429,379,l),
(579,379,l),
(581,374,l),
(459,287,l),
(505,146,l),
(501,143,l),
(382,231,l),
(262,143,l)
);
}
);
width = 763;
}
);
unicode = 9734;
},
{
glyphname = ballotBox;
lastChange = "2021-10-27 05:56:50 +0000";
layers = (
{
layerId = m01;
shapes = (
{
closed = 1;
nodes = (
(60,184,ls),
(60,29,o),
(89,0,o),
(244,0,cs),
(576,0,ls),
(731,0,o),
(760,29,o),
(760,184,cs),
(760,516,ls),
(760,671,o),
(731,700,o),
(576,700,cs),
(244,700,ls),
(89,700,o),
(60,671,o),
(60,516,cs)
);
},
{
closed = 1;
nodes = (
(120,634,o),
(126,640,o),
(244,640,cs),
(576,640,ls),
(694,640,o),
(700,634,o),
(700,516,cs),
(700,184,ls),
(700,66,o),
(694,60,o),
(576,60,cs),
(244,60,ls),
(126,60,o),
(120,66,o),
(120,184,cs),
(120,516,ls)
);
}
);
width = 820;
},
{
layerId = m002;
shapes = (
{
closed = 1;
nodes = (
(60,184,ls),
(60,29,o),
(89,0,o),
(244,0,cs),
(576,0,ls),
(731,0,o),
(760,29,o),
(760,184,cs),
(760,516,ls),
(760,671,o),
(731,700,o),
(576,700,cs),
(244,700,ls),
(89,700,o),
(60,671,o),
(60,516,cs)
);
},
{
closed = 1;
nodes = (
(120,634,o),
(126,640,o),
(244,640,cs),
(576,640,ls),
(694,640,o),
(700,634,o),
(700,516,cs),
(700,184,ls),
(700,66,o),
(694,60,o),
(576,60,cs),
(244,60,ls),
(126,60,o),
(120,66,o),
(120,184,cs),
(120,516,ls)
);
}
);
width = 820;
}
);
unicode = 9744;
},
{
glyphname = ballotBoxWithCheck;
lastChange = "2021-10-27 05:56:50 +0000";
layers = (
{
layerId = m01;
shapes = (
{
ref = ballotBox;
},
{
closed = 1;
nodes = (
(163,348,l),
(350,128,l),
(658,535,l),
(610,577,l),
(322,218,l),
(380,220,l),
(208,395,l)
);
}
);
width = 820;
},
{
layerId = m002;
shapes = (
{
ref = ballotBox;
},
{
closed = 1;
nodes = (
(163,348,l),
(350,128,l),
(658,535,l),
(610,577,l),
(322,218,l),
(380,220,l),
(208,395,l)
);
}
);
width = 820;
}
);
unicode = 9745;
},
{
glyphname = ballotBoxWithX;
lastChange = "2021-10-27 05:56:50 +0000";
layers = (
{
layerId = m01;
shapes = (
{
closed = 1;
nodes = (
(60,184,ls),
(60,29,o),
(89,0,o),
(244,0,cs),
(576,0,ls),
(731,0,o),
(760,29,o),
(760,184,cs),
(760,516,ls),
(760,671,o),
(731,700,o),
(576,700,cs),
(244,700,ls),
(89,700,o),
(60,671,o),
(60,516,cs)
);
},
{
closed = 1;
nodes = (
(120,634,o),
(126,640,o),
(244,640,cs),
(576,640,ls),
(694,640,o),
(700,634,o),
(700,516,cs),
(700,184,ls),
(700,66,o),
(694,60,o),
(576,60,cs),
(244,60,ls),
(126,60,o),
(120,66,o),
(120,184,cs),
(120,516,ls)
);
},
{
closed = 1;
nodes = (
(385,322,l),
(438,375,l),
(234,578,l),
(182,526,l)
);
},
{
closed = 1;
nodes = (
(382,375,l),
(435,322,l),
(638,526,l),
(586,578,l)
);
},
{
closed = 1;
nodes = (
(438,325,l),
(385,378,l),
(182,174,l),
(234,122,l)
);
},
{
closed = 1;
nodes = (
(435,378,l),
(382,325,l),
(586,122,l),
(638,174,l)
);
}
);
width = 820;
},
{
layerId = m002;
shapes = (
{
closed = 1;
nodes = (
(60,184,ls),
(60,29,o),
(89,0,o),
(244,0,cs),
(576,0,ls),
(731,0,o),
(760,29,o),
(760,184,cs),
(760,516,ls),
(760,671,o),
(731,700,o),
(576,700,cs),
(244,700,ls),
(89,700,o),
(60,671,o),
(60,516,cs)
);
},
{
closed = 1;
nodes = (
(120,634,o),
(126,640,o),
(244,640,cs),
(576,640,ls),
(694,640,o),
(700,634,o),
(700,516,cs),
(700,184,ls),
(700,66,o),
(694,60,o),
(576,60,cs),
(244,60,ls),
(126,60,o),
(120,66,o),
(120,184,cs),
(120,516,ls)
);
},
{
closed = 1;
nodes = (
(385,322,l),
(438,375,l),
(234,578,l),
(182,526,l)
);
},
{
closed = 1;
nodes = (
(382,375,l),
(435,322,l),
(638,526,l),
(586,578,l)
);
},
{
closed = 1;
nodes = (
(438,325,l),
(385,378,l),
(182,174,l),
(234,122,l)
);
},
{
closed = 1;
nodes = (
(435,378,l),
(382,325,l),
(586,122,l),
(638,174,l)
);
}
);
width = 820;
}
);
unicode = 9746;
},
{
glyphname = heavyDoubleTurnedCommaQuotationMarkOrnament;
lastChange = "2021-10-27 05:56:50 +0000";
layers = (
{
layerId = m01;
shapes = (
{
closed = 1;
nodes = (
(678,355,l),
(399,355,l),
(399,50,l),
(678,50,l)
);
},
{
closed = 1;
nodes = (
(555,437,ls),
(555,496,o),
(577,518,o),
(641,518,cs),
(681,518,l),
(681,660,l),
(615,660,ls),
(443,660,o),
(399,613,o),
(399,436,cs),
(399,355,l),
(555,355,l)
);
},
{
closed = 1;
nodes = (
(338,355,l),
(60,355,l),
(60,50,l),
(338,50,l)
);
},
{
closed = 1;
nodes = (
(216,437,ls),
(216,496,o),
(237,518,o),
(302,518,cs),
(342,518,l),
(342,660,l),
(275,660,ls),
(104,660,o),
(60,613,o),
(60,436,cs),
(60,355,l),
(216,355,l)
);
}
);
width = 741;
},
{
layerId = m002;
shapes = (
{
closed = 1;
nodes = (
(678,355,l),
(399,355,l),
(399,50,l),
(678,50,l)
);
},
{
closed = 1;
nodes = (
(555,437,ls),
(555,496,o),
(577,518,o),
(641,518,cs),
(681,518,l),
(681,660,l),
(615,660,ls),
(443,660,o),
(399,613,o),
(399,436,cs),
(399,355,l),
(555,355,l)
);
},
{
closed = 1;
nodes = (
(338,355,l),
(60,355,l),
(60,50,l),
(338,50,l)
);
},
{
closed = 1;
nodes = (
(216,437,ls),
(216,496,o),
(237,518,o),
(302,518,cs),
(342,518,l),
(342,660,l),
(275,660,ls),
(104,660,o),
(60,613,o),
(60,436,cs),
(60,355,l),
(216,355,l)
);
}
);
width = 741;
}
);
unicode = 10077;
},
{
glyphname = heavyBlackHeart;
lastChange = "2021-10-27 05:56:50 +0000";
layers = (
{
layerId = m01;
shapes = (
{
closed = 1;
nodes = (
(401,-10,l),
(492,269,o),
(760,215,o),
(760,436,cs),
(760,467,ls),
(760,593,o),
(709,670,o),
(578,670,cs),
(462,670,o),
(423,613,o),
(396,473,c),
(435,504,l),
(351,504,l),
(390,473,l),
(363,613,o),
(324,670,o),
(208,670,cs),
(77,670,o),
(26,593,o),
(26,467,cs),
(26,436,ls),
(26,215,o),
(294,269,o),
(385,-10,c)
);
}
);
width = 786;
},
{
layerId = m002;
shapes = (
{
closed = 1;
nodes = (
(401,-10,l),
(492,269,o),
(760,215,o),
(760,436,cs),
(760,467,ls),
(760,593,o),
(709,670,o),
(578,670,cs),
(462,670,o),
(423,613,o),
(396,473,c),
(435,504,l),
(351,504,l),
(390,473,l),
(363,613,o),
(324,670,o),
(208,670,cs),
(77,670,o),
(26,593,o),
(26,467,cs),
(26,436,ls),
(26,215,o),
(294,269,o),
(385,-10,c)
);
}
);
width = 786;
}
);
unicode = 10084;
},
{
glyphname = at;
lastChange = "2021-12-06 04:49:49 +0000";
layers = (
{
layerId = m01;
shapes = (
{
closed = 1;
nodes = (
(432,-12,o),
(508,-9,o),
(572,-2,c),
(572,105,l),
(519,97,o),
(445,92,o),
(340,92,cs),
(202,92,o),
(149,108,o),
(149,236,cs),
(149,458,ls),
(149,575,o),
(201,618,o),
(335,618,cs),
(468,618,o),
(507,575,o),
(507,458,cs),
(507,309,ls),
(507,252,o),
(499,234,o),
(456,234,c),
(471,205,l),
(422,557,l),
(253,557,l),
(194,155,l),
(307,155,l),
(315,223,l),
(297,201,l),
(378,201,l),
(360,215,l),
(363,172,o),
(375,155,o),
(426,155,cs),
(439,155,ls),
(578,155,o),
(617,202,o),
(617,335,cs),
(617,423,ls),
(617,606,o),
(555,712,o),
(335,712,cs),
(114,712,o),
(40,606,o),
(40,423,cs),
(40,239,ls),
(40,63,o),
(114,-12,o),
(340,-12,cs)
);
},
{
closed = 1;
nodes = (
(335,464,l),
(313,457,l),
(363,457,l),
(340,464,l),
(366,254,l),
(371,282,l),
(304,282,l),
(311,254,l)
);
}
);
width = 657;
},
{
layerId = m002;
shapes = (
{
closed = 1;
nodes = (
(432,-12,o),
(508,-9,o),
(572,-2,c),
(572,105,l),
(519,97,o),
(445,92,o),
(340,92,cs),
(202,92,o),
(149,108,o),
(149,236,cs),
(149,458,ls),
(149,575,o),
(201,618,o),
(335,618,cs),
(468,618,o),
(507,575,o),
(507,458,cs),
(507,309,ls),
(507,252,o),
(499,234,o),
(456,234,c),
(471,205,l),
(422,557,l),
(253,557,l),
(194,155,l),
(307,155,l),
(315,223,l),
(297,201,l),
(378,201,l),
(360,215,l),
(363,172,o),
(375,155,o),
(426,155,cs),
(439,155,ls),
(578,155,o),
(617,202,o),
(617,335,cs),
(617,423,ls),
(617,606,o),
(555,712,o),
(335,712,cs),
(114,712,o),
(40,606,o),
(40,423,cs),
(40,239,ls),
(40,63,o),
(114,-12,o),
(340,-12,cs)
);
},
{
closed = 1;
nodes = (
(335,464,l),
(313,457,l),
(363,457,l),
(340,464,l),
(366,254,l),
(371,282,l),
(304,282,l),
(311,254,l)
);
}
);
width = 657;
}
);
unicode = 64;
},
{
glyphname = ampersand;
lastChange = "2021-10-27 05:56:50 +0000";
layers = (
{
layerId = m01;
shapes = (
{
closed = 1;
nodes = (
(407,0,l),
(598,0,l),
(288,427,ls),
(266,457,o),
(260,475,o),
(260,523,cs),
(260,553,o),
(269,576,o),
(305,576,cs),
(341,576,o),
(349,554,o),
(349,518,cs),
(349,468,l),
(503,475,l),
(503,518,ls),
(503,645,o),
(445,712,o),
(300,712,cs),
(156,712,o),
(83,650,o),
(83,535,cs),
(83,511,ls),
(83,449,o),
(106,413,o),
(160,339,cs)
);
},
{
closed = 1;
nodes = (
(176,284,o),
(187,298,o),
(210,303,c),
(219,362,l),
(164,387,l),
(62,387,o),
(24,334,o),
(24,231,cs),
(24,177,ls),
(24,50,o),
(97,-12,o),
(230,-12,cs),
(294,-12,o),
(344,12,o),
(375,55,c),
(414,73,o),
(437,108,o),
(449,138,cs),
(557,403,l),
(406,406,l),
(320,167,ls),
(303,121,o),
(284,105,o),
(242,105,cs),
(194,105,o),
(176,127,o),
(176,179,cs),
(176,246,ls)
);
},
{
closed = 1;
nodes = (
(333,274,l),
(396,274,l),
(396,316,l),
(333,316,l)
);
},
{
closed = 1;
nodes = (
(329,45,l),
(395,45,l),
(395,69,l),
(329,69,l)
);
}
);
width = 578;
},
{
associatedMasterId = m01;
layerId = "9E7D00B4-DE7B-4488-B250-4CACC519F230";
name = "16 Feb 21, 16:36";
shapes = (
{
closed = 1;
nodes = (
(414,-12,o),
(495,44,o),
(495,187,cs),
(495,232,l),
(309,239,l),
(309,209,ls),
(309,162,o),
(290,145,o),
(251,145,cs),
(213,145,o),
(201,168,o),
(201,221,cs),
(201,276,o),
(210,291,o),
(245,291,cs),
(491,291,l),
(491,420,l),
(235,420,ls),
(210,420,o),
(201,432,o),
(201,482,cs),
(201,532,o),
(213,555,o),
(253,555,cs),
(286,555,o),
(300,535,o),
(300,506,cs),
(300,488,l),
(477,495,l),
(477,528,ls),
(477,653,o),
(408,712,o),
(251,712,cs),
(97,712,o),
(25,650,o),
(25,535,cs),
(25,511,ls),
(25,422,o),
(69,390,o),
(159,389,c),
(121,433,l),
(121,337,l),
(155,387,l),
(53,387,o),
(15,334,o),
(15,221,cs),
(15,177,ls),
(15,50,o),
(90,-12,o),
(249,-12,cs)
);
}
);
width = 600;
},
{
layerId = m002;
shapes = (
{
closed = 1;
nodes = (
(407,0,l),
(598,0,l),
(288,427,ls),
(266,457,o),
(260,475,o),
(260,523,cs),
(260,553,o),
(269,576,o),
(305,576,cs),
(341,576,o),
(349,554,o),
(349,518,cs),
(349,468,l),
(503,475,l),
(503,518,ls),
(503,645,o),
(445,712,o),
(300,712,cs),
(156,712,o),
(83,650,o),
(83,535,cs),
(83,511,ls),
(83,449,o),
(106,413,o),
(160,339,cs)
);
},
{
closed = 1;
nodes = (
(176,284,o),
(187,298,o),
(210,303,c),
(219,362,l),
(164,387,l),
(62,387,o),
(24,334,o),
(24,231,cs),
(24,177,ls),
(24,50,o),
(97,-12,o),
(230,-12,cs),
(294,-12,o),
(344,12,o),
(375,55,c),
(414,73,o),
(437,108,o),
(449,138,cs),
(557,403,l),
(406,406,l),
(320,167,ls),
(303,121,o),
(284,105,o),
(242,105,cs),
(194,105,o),
(176,127,o),
(176,179,cs),
(176,246,ls)
);
},
{
closed = 1;
nodes = (
(333,274,l),
(396,274,l),
(396,316,l),
(333,316,l)
);
},
{
closed = 1;
nodes = (
(329,45,l),
(395,45,l),
(395,69,l),
(329,69,l)
);
}
);
width = 578;
},
{
associatedMasterId = m002;
layerId = "9A41E2FA-80C1-4E8B-ACB6-5E90B85EA572";
name = "16 Feb 21, 16:36";
shapes = (
{
closed = 1;
nodes = (
(414,-12,o),
(495,44,o),
(495,187,cs),
(495,232,l),
(309,239,l),
(309,209,ls),
(309,162,o),
(290,145,o),
(251,145,cs),
(213,145,o),
(201,168,o),
(201,221,cs),
(201,276,o),
(210,291,o),
(245,291,cs),
(491,291,l),
(491,420,l),
(235,420,ls),
(210,420,o),
(201,432,o),
(201,482,cs),
(201,532,o),
(213,555,o),
(253,555,cs),
(286,555,o),
(300,535,o),
(300,506,cs),
(300,488,l),
(477,495,l),
(477,528,ls),
(477,653,o),
(408,712,o),
(251,712,cs),
(97,712,o),
(25,650,o),
(25,535,cs),
(25,511,ls),
(25,422,o),
(69,390,o),
(159,389,c),
(121,433,l),
(121,337,l),
(155,387,l),
(53,387,o),
(15,334,o),
(15,221,cs),
(15,177,ls),
(15,50,o),
(90,-12,o),
(249,-12,cs)
);
}
);
width = 600;
}
);
unicode = 38;
},
{
glyphname = paragraph;
lastChange = "2021-10-27 05:56:50 +0000";
layers = (
{
layerId = m01;
shapes = (
{
closed = 1;
nodes = (
(406,-120,l),
(406,700,l),
(276,700,l),
(276,-120,l)
);
},
{
closed = 1;
nodes = (
(335,220,l),
(335,700,l),
(258,700,ls),
(89,700,o),
(20,627,o),
(20,469,cs),
(20,451,ls),
(20,293,o),
(89,220,o),
(258,220,cs)
);
},
{
closed = 1;
nodes = (
(615,-120,l),
(615,700,l),
(485,700,l),
(485,-120,l)
);
}
);
width = 685;
},
{
layerId = m002;
shapes = (
{
closed = 1;
nodes = (
(406,-120,l),
(406,700,l),
(276,700,l),
(276,-120,l)
);
},
{
closed = 1;
nodes = (
(335,220,l),
(335,700,l),
(258,700,ls),
(89,700,o),
(20,627,o),
(20,469,cs),
(20,451,ls),
(20,293,o),
(89,220,o),
(258,220,cs)
);
},
{
closed = 1;
nodes = (
(615,-120,l),
(615,700,l),
(485,700,l),
(485,-120,l)
);
}
);
width = 685;
}
);
unicode = 182;
},
{
glyphname = section;
lastChange = "2021-10-27 05:56:50 +0000";
layers = (
{
layerId = m01;
shapes = (
{
closed = 1;
nodes = (
(422,630,o),
(370,680,o),
(233,680,cs),
(102,680,o),
(40,630,o),
(40,519,cs),
(40,499,ls),
(40,421,o),
(79,390,o),
(163,364,cs),
(272,330,ls),
(302,321,o),
(317,312,o),
(317,285,cs),
(317,257,o),
(301,244,o),
(261,244,c),
(261,165,l),
(386,165,o),
(446,206,o),
(446,297,cs),
(446,307,ls),
(446,380,o),
(417,418,o),
(330,446,cs),
(229,478,ls),
(187,491,o),
(178,496,o),
(178,517,cs),
(178,549,o),
(190,569,o),
(230,569,cs),
(271,569,o),
(291,551,o),
(291,510,cs),
(291,489,l),
(422,494,l),
(422,528,ls)
);
},
{
closed = 1;
nodes = (
(210,432,l),
(81,432,o),
(20,376,o),
(20,293,cs),
(20,283,ls),
(20,211,o),
(60,172,o),
(143,148,cs),
(252,117,ls),
(283,108,o),
(297,102,o),
(297,80,cs),
(297,39,o),
(281,21,o),
(241,21,cs),
(194,21,o),
(175,39,o),
(175,81,cs),
(175,99,l),
(40,91,l),
(40,63,ls),
(40,-43,o),
(97,-85,o),
(235,-85,cs),
(364,-85,o),
(426,-46,o),
(426,81,cs),
(426,94,ls),
(426,173,o),
(396,209,o),
(315,232,cs),
(209,262,ls),
(167,274,o),
(158,284,o),
(158,309,cs),
(158,337,o),
(170,353,o),
(210,353,c)
);
}
);
width = 466;
},
{
layerId = m002;
shapes = (
{
closed = 1;
nodes = (
(422,630,o),
(370,680,o),
(233,680,cs),
(102,680,o),
(40,630,o),
(40,519,cs),
(40,499,ls),
(40,421,o),
(79,390,o),
(163,364,cs),
(272,330,ls),
(302,321,o),
(317,312,o),
(317,285,cs),
(317,257,o),
(301,244,o),
(261,244,c),
(261,165,l),
(386,165,o),
(446,206,o),
(446,297,cs),
(446,307,ls),
(446,380,o),
(417,418,o),
(330,446,cs),
(229,478,ls),
(187,491,o),
(178,496,o),
(178,517,cs),
(178,549,o),
(190,569,o),
(230,569,cs),
(271,569,o),
(291,551,o),
(291,510,cs),
(291,489,l),
(422,494,l),
(422,528,ls)
);
},
{
closed = 1;
nodes = (
(210,432,l),
(81,432,o),
(20,376,o),
(20,293,cs),
(20,283,ls),
(20,211,o),
(60,172,o),
(143,148,cs),
(252,117,ls),
(283,108,o),
(297,102,o),
(297,80,cs),
(297,39,o),
(281,21,o),
(241,21,cs),
(194,21,o),
(175,39,o),
(175,81,cs),
(175,99,l),
(40,91,l),
(40,63,ls),
(40,-43,o),
(97,-85,o),
(235,-85,cs),
(364,-85,o),
(426,-46,o),
(426,81,cs),
(426,94,ls),
(426,173,o),
(396,209,o),
(315,232,cs),
(209,262,ls),
(167,274,o),
(158,284,o),
(158,309,cs),
(158,337,o),
(170,353,o),
(210,353,c)
);
}
);
width = 466;
}
);
unicode = 167;
},
{
glyphname = copyright;
lastChange = "2021-10-27 05:56:50 +0000";
layers = (
{
anchors = (
{
name = bottom;
pos = (449,0);
},
{
name = center;
pos = (449,350);
},
{
name = ogonek;
pos = (785,10);
},
{
name = top;
pos = (449,700);
},
{
name = topleft;
pos = (56,700);
},
{
name = topright;
pos = (601,705);
}
);
layerId = m01;
shapes = (
{
closed = 1;
nodes = (
(507,321,l),
(507,308,ls),
(507,275,o),
(495,256,o),
(450,256,cs),
(407,256,o),
(394,275,o),
(394,308,cs),
(394,391,ls),
(394,425,o),
(407,445,o),
(450,445,cs),
(495,445,o),
(507,425,o),
(507,391,cs),
(507,382,l),
(661,382,l),
(661,391,ls),
(661,498,o),
(620,560,o),
(450,560,cs),
(280,560,o),
(240,495,o),
(240,362,cs),
(240,338,ls),
(240,205,o),
(280,140,o),
(450,140,cs),
(620,140,o),
(661,202,o),
(661,310,cs),
(661,321,l)
);
},
{
closed = 1;
nodes = (
(729,-12,o),
(850,107,o),
(850,332,cs),
(850,368,ls),
(850,593,o),
(729,712,o),
(450,712,cs),
(171,712,o),
(50,593,o),
(50,368,cs),
(50,332,ls),
(50,107,o),
(171,-12,o),
(450,-12,cs)
);
},
{
closed = 1;
nodes = (
(251,58,o),
(135,116,o),
(135,331,cs),
(135,369,ls),
(135,584,o),
(251,642,o),
(450,642,cs),
(649,642,o),
(765,584,o),
(765,369,cs),
(765,331,ls),
(765,116,o),
(649,58,o),
(450,58,cs)
);
}
);
width = 900;
},
{
anchors = (
{
name = bottom;
pos = (449,0);
},
{
name = center;
pos = (449,350);
},
{
name = ogonek;
pos = (785,10);
},
{
name = top;
pos = (449,700);
},
{
name = topleft;
pos = (56,700);
},
{
name = topright;
pos = (601,705);
}
);
layerId = m002;
shapes = (
{
closed = 1;
nodes = (
(507,321,l),
(507,308,ls),
(507,275,o),
(495,256,o),
(450,256,cs),
(407,256,o),
(394,275,o),
(394,308,cs),
(394,391,ls),
(394,425,o),
(407,445,o),
(450,445,cs),
(495,445,o),
(507,425,o),
(507,391,cs),
(507,382,l),
(661,382,l),
(661,391,ls),
(661,498,o),
(620,560,o),
(450,560,cs),
(280,560,o),
(240,495,o),
(240,362,cs),
(240,338,ls),
(240,205,o),
(280,140,o),
(450,140,cs),
(620,140,o),
(661,202,o),
(661,310,cs),
(661,321,l)
);
},
{
closed = 1;
nodes = (
(729,-12,o),
(850,107,o),
(850,332,cs),
(850,368,ls),
(850,593,o),
(729,712,o),
(450,712,cs),
(171,712,o),
(50,593,o),
(50,368,cs),
(50,332,ls),
(50,107,o),
(171,-12,o),
(450,-12,cs)
);
},
{
closed = 1;
nodes = (
(251,58,o),
(135,116,o),
(135,331,cs),
(135,369,ls),
(135,584,o),
(251,642,o),
(450,642,cs),
(649,642,o),
(765,584,o),
(765,369,cs),
(765,331,ls),
(765,116,o),
(649,58,o),
(450,58,cs)
);
}
);
width = 900;
}
);
unicode = 169;
},
{
glyphname = registered;
lastChange = "2021-10-27 05:56:50 +0000";
layers = (
{
anchors = (
{
name = bottom;
pos = (320,300);
},
{
name = top;
pos = (320,609);
}
);
layerId = m01;
shapes = (
{
closed = 1;
nodes = (
(510,162,o),
(604,252,o),
(604,427,cs),
(604,447,ls),
(604,621,o),
(510,712,o),
(317,712,cs),
(124,712,o),
(30,621,o),
(30,447,cs),
(30,427,ls),
(30,252,o),
(124,162,o),
(317,162,cs)
);
},
{
closed = 1;
nodes = (
(285,292,l),
(285,591,l),
(185,591,l),
(185,292,l)
);
},
{
closed = 1;
nodes = (
(178,219,o),
(97,269,o),
(97,423,cs),
(97,451,ls),
(97,604,o),
(178,655,o),
(318,655,cs),
(458,655,o),
(537,604,o),
(537,451,cs),
(537,423,ls),
(537,269,o),
(458,219,o),
(318,219,cs)
);
},
{
closed = 1;
nodes = (
(472,292,l),
(472,295,l),
(469,303,o),
(467,317,o),
(467,337,cs),
(467,382,ls),
(467,418,o),
(452,438,o),
(398,438,c),
(408,419,l),
(408,460,l),
(398,442,l),
(450,442,o),
(466,454,o),
(466,495,cs),
(466,510,ls),
(466,562,o),
(442,591,o),
(338,591,cs),
(259,591,l),
(259,522,l),
(330,522,ls),
(358,522,o),
(367,514,o),
(367,496,cs),
(367,488,ls),
(367,471,o),
(358,464,o),
(330,464,cs),
(257,464,l),
(257,398,l),
(330,398,ls),
(357,398,o),
(364,389,o),
(364,366,cs),
(364,326,ls),
(364,313,o),
(365,302,o),
(366,292,c)
);
}
);
width = 634;
},
{
anchors = (
{
name = bottom;
pos = (320,300);
},
{
name = top;
pos = (320,609);
}
);
layerId = m002;
shapes = (
{
closed = 1;
nodes = (
(510,162,o),
(604,252,o),
(604,427,cs),
(604,447,ls),
(604,621,o),
(510,712,o),
(317,712,cs),
(124,712,o),
(30,621,o),
(30,447,cs),
(30,427,ls),
(30,252,o),
(124,162,o),
(317,162,cs)
);
},
{
closed = 1;
nodes = (
(285,292,l),
(285,591,l),
(185,591,l),
(185,292,l)
);
},
{
closed = 1;
nodes = (
(178,219,o),
(97,269,o),
(97,423,cs),
(97,451,ls),
(97,604,o),
(178,655,o),
(318,655,cs),
(458,655,o),
(537,604,o),
(537,451,cs),
(537,423,ls),
(537,269,o),
(458,219,o),
(318,219,cs)
);
},
{
closed = 1;
nodes = (
(472,292,l),
(472,295,l),
(469,303,o),
(467,317,o),
(467,337,cs),
(467,382,ls),
(467,418,o),
(452,438,o),
(398,438,c),
(408,419,l),
(408,460,l),
(398,442,l),
(450,442,o),
(466,454,o),
(466,495,cs),
(466,510,ls),
(466,562,o),
(442,591,o),
(338,591,cs),
(259,591,l),
(259,522,l),
(330,522,ls),
(358,522,o),
(367,514,o),
(367,496,cs),
(367,488,ls),
(367,471,o),
(358,464,o),
(330,464,cs),
(257,464,l),
(257,398,l),
(330,398,ls),
(357,398,o),
(364,389,o),
(364,366,cs),
(364,326,ls),
(364,313,o),
(365,302,o),
(366,292,c)
);
}
);
width = 634;
}
);
unicode = 174;
},
{
glyphname = trademark;
lastChange = "2021-10-27 05:56:50 +0000";
layers = (
{
layerId = m01;
shapes = (
{
closed = 1;
nodes = (
(91,368,l),
(195,368,l),
(195,700,l),
(91,700,l)
);
},
{
closed = 1;
nodes = (
(10,597,l),
(276,597,l),
(276,700,l),
(10,700,l)
);
},
{
closed = 1;
nodes = (
(306,368,l),
(391,368,l),
(391,629,l),
(374,557,l),
(419,557,l),
(382,629,l),
(443,368,l),
(522,368,l),
(583,629,l),
(546,557,l),
(591,557,l),
(574,629,l),
(574,368,l),
(659,368,l),
(659,700,l),
(523,700,l),
(477,534,l),
(505,563,l),
(460,563,l),
(488,534,l),
(442,700,l),
(306,700,l)
);
}
);
width = 693;
},
{
layerId = m002;
shapes = (
{
closed = 1;
nodes = (
(91,368,l),
(195,368,l),
(195,700,l),
(91,700,l)
);
},
{
closed = 1;
nodes = (
(10,597,l),
(276,597,l),
(276,700,l),
(10,700,l)
);
},
{
closed = 1;
nodes = (
(306,368,l),
(391,368,l),
(391,629,l),
(374,557,l),
(419,557,l),
(382,629,l),
(443,368,l),
(522,368,l),
(583,629,l),
(546,557,l),
(591,557,l),
(574,629,l),
(574,368,l),
(659,368,l),
(659,700,l),
(523,700,l),
(477,534,l),
(505,563,l),
(460,563,l),
(488,534,l),
(442,700,l),
(306,700,l)
);
}
);
width = 693;
}
);
unicode = 8482;
},
{
glyphname = degree;
lastChange = "2021-10-27 05:56:50 +0000";
layers = (
{
layerId = m01;
shapes = (
{
closed = 1;
nodes = (
(131,526,ls),
(131,496,o),
(150,477,o),
(191,477,cs),
(232,477,o),
(251,496,o),
(251,526,cs),
(251,552,ls),
(251,582,o),
(232,601,o),
(191,601,cs),
(150,601,o),
(131,582,o),
(131,552,cs)
);
},
{
closed = 1;
nodes = (
(20,649,o),
(73,712,o),
(191,712,cs),
(309,712,o),
(362,649,o),
(362,550,cs),
(362,528,ls),
(362,429,o),
(309,366,o),
(191,366,cs),
(73,366,o),
(20,429,o),
(20,528,cs),
(20,550,ls)
);
}
);
width = 382;
},
{
layerId = m002;
shapes = (
{
closed = 1;
nodes = (
(131,526,ls),
(131,496,o),
(150,477,o),
(191,477,cs),
(232,477,o),
(251,496,o),
(251,526,cs),
(251,552,ls),
(251,582,o),
(232,601,o),
(191,601,cs),
(150,601,o),
(131,582,o),
(131,552,cs)
);
},
{
closed = 1;
nodes = (
(20,649,o),
(73,712,o),
(191,712,cs),
(309,712,o),
(362,649,o),
(362,550,cs),
(362,528,ls),
(362,429,o),
(309,366,o),
(191,366,cs),
(73,366,o),
(20,429,o),
(20,528,cs),
(20,550,ls)
);
}
);
width = 382;
}
);
unicode = 176;
},
{
glyphname = bar;
lastChange = "2021-10-27 05:56:50 +0000";
layers = (
{
layerId = m01;
shapes = (
{
closed = 1;
nodes = (
(60,-100,l),
(190,-100,l),
(190,730,l),
(60,730,l)
);
}
);
width = 250;
},
{
layerId = m002;
shapes = (
{
closed = 1;
nodes = (
(60,-100,l),
(190,-100,l),
(190,730,l),
(60,730,l)
);
}
);
width = 250;
}
);
unicode = 124;
},
{
glyphname = globeMeridians;
lastChange = "2021-10-27 05:56:50 +0000";
layers = (
{
layerId = m01;
shapes = (
{
closed = 1;
nodes = (
(624,-12,o),
(738,117,o),
(738,336,cs),
(738,364,ls),
(738,583,o),
(624,712,o),
(389,712,cs),
(154,712,o),
(40,583,o),
(40,364,cs),
(40,336,ls),
(40,117,o),
(154,-12,o),
(389,-12,cs)
);
},
{
closed = 1;
nodes = (
(218,44,o),
(104,115,o),
(104,331,cs),
(104,369,ls),
(104,585,o),
(218,656,o),
(389,656,cs),
(560,656,o),
(674,585,o),
(674,369,cs),
(674,331,ls),
(674,115,o),
(560,44,o),
(389,44,cs)
);
},
{
closed = 1;
nodes = (
(359,29,l),
(419,29,l),
(419,671,l),
(359,671,l)
);
},
{
closed = 1;
nodes = (
(80,284,l),
(80,221,l),
(698,221,l),
(698,284,l)
);
},
{
closed = 1;
nodes = (
(424,24,l),
(509,69,o),
(579,175,o),
(579,336,cs),
(579,364,ls),
(579,525,o),
(509,631,o),
(424,676,c),
(354,676,l),
(269,631,o),
(199,525,o),
(199,364,cs),
(199,336,ls),
(199,175,o),
(269,69,o),
(354,24,c)
);
},
{
closed = 1;
nodes = (
(261,369,ls),
(261,522,o),
(304,596,o),
(415,668,c),
(363,668,l),
(474,596,o),
(517,522,o),
(517,369,cs),
(517,331,ls),
(517,178,o),
(474,104,o),
(363,32,c),
(415,32,l),
(304,104,o),
(261,178,o),
(261,331,cs)
);
},
{
closed = 1;
nodes = (
(80,479,l),
(80,416,l),
(698,416,l),
(698,479,l)
);
}
);
width = 778;
},
{
layerId = m002;
shapes = (
{
closed = 1;
nodes = (
(624,-12,o),
(738,117,o),
(738,336,cs),
(738,364,ls),
(738,583,o),
(624,712,o),
(389,712,cs),
(154,712,o),
(40,583,o),
(40,364,cs),
(40,336,ls),
(40,117,o),
(154,-12,o),
(389,-12,cs)
);
},
{
closed = 1;
nodes = (
(218,44,o),
(104,115,o),
(104,331,cs),
(104,369,ls),
(104,585,o),
(218,656,o),
(389,656,cs),
(560,656,o),
(674,585,o),
(674,369,cs),
(674,331,ls),
(674,115,o),
(560,44,o),
(389,44,cs)
);
},
{
closed = 1;
nodes = (
(359,29,l),
(419,29,l),
(419,671,l),
(359,671,l)
);
},
{
closed = 1;
nodes = (
(80,284,l),
(80,221,l),
(698,221,l),
(698,284,l)
);
},
{
closed = 1;
nodes = (
(424,24,l),
(509,69,o),
(579,175,o),
(579,336,cs),
(579,364,ls),
(579,525,o),
(509,631,o),
(424,676,c),
(354,676,l),
(269,631,o),
(199,525,o),
(199,364,cs),
(199,336,ls),
(199,175,o),
(269,69,o),
(354,24,c)
);
},
{
closed = 1;
nodes = (
(261,369,ls),
(261,522,o),
(304,596,o),
(415,668,c),
(363,668,l),
(474,596,o),
(517,522,o),
(517,369,cs),
(517,331,ls),
(517,178,o),
(474,104,o),
(363,32,c),
(415,32,l),
(304,104,o),
(261,178,o),
(261,331,cs)
);
},
{
closed = 1;
nodes = (
(80,479,l),
(80,416,l),
(698,416,l),
(698,479,l)
);
}
);
width = 778;
}
);
unicode = 127760;
},
{
glyphname = cedi;
lastChange = "2021-10-27 05:56:50 +0000";
layers = (
{
layerId = m01;
shapes = (
{
ref = C;
},
{
closed = 1;
nodes = (
(223,615,l),
(383,615,l),
(383,770,l),
(223,770,l)
);
},
{
closed = 1;
nodes = (
(223,-70,l),
(383,-70,l),
(383,85,l),
(223,85,l)
);
}
);
width = 606;
},
{
layerId = m002;
shapes = (
{
ref = C;
},
{
closed = 1;
nodes = (
(223,615,l),
(383,615,l),
(383,770,l),
(223,770,l)
);
},
{
closed = 1;
nodes = (
(223,-70,l),
(383,-70,l),
(383,85,l),
(223,85,l)
);
}
);
width = 606;
}
);
unicode = 8373;
},
{
glyphname = cent;
lastChange = "2021-10-27 05:56:50 +0000";
layers = (
{
anchors = (
{
name = bottom;
pos = (303,0);
},
{
name = top;
pos = (303,700);
}
);
layerId = m01;
shapes = (
{
closed = 1;
nodes = (
(376,323,l),
(376,284,ls),
(376,243,o),
(360,218,o),
(303,218,cs),
(246,218,o),
(230,243,o),
(230,284,cs),
(230,416,ls),
(230,457,o),
(246,482,o),
(303,482,cs),
(360,482,o),
(376,457,o),
(376,416,cs),
(376,381,l),
(576,381,l),
(576,406,ls),
(576,556,o),
(547,642,o),
(303,642,cs),
(59,642,o),
(30,552,o),
(30,366,cs),
(30,334,ls),
(30,148,o),
(59,58,o),
(303,58,cs),
(547,58,o),
(576,144,o),
(576,294,cs),
(576,323,l)
);
},
{
closed = 1;
nodes = (
(223,571,l),
(383,571,l),
(383,700,l),
(223,700,l)
);
},
{
closed = 1;
nodes = (
(223,0,l),
(383,0,l),
(383,129,l),
(223,129,l)
);
}
);
width = 606;
},
{
anchors = (
{
name = bottom;
pos = (303,0);
},
{
name = top;
pos = (303,700);
}
);
layerId = m002;
shapes = (
{
closed = 1;
nodes = (
(376,323,l),
(376,284,ls),
(376,243,o),
(360,218,o),
(303,218,cs),
(246,218,o),
(230,243,o),
(230,284,cs),
(230,416,ls),
(230,457,o),
(246,482,o),
(303,482,cs),
(360,482,o),
(376,457,o),
(376,416,cs),
(376,381,l),
(576,381,l),
(576,406,ls),
(576,556,o),
(547,642,o),
(303,642,cs),
(59,642,o),
(30,552,o),
(30,366,cs),
(30,334,ls),
(30,148,o),
(59,58,o),
(303,58,cs),
(547,58,o),
(576,144,o),
(576,294,cs),
(576,323,l)
);
},
{
closed = 1;
nodes = (
(223,571,l),
(383,571,l),
(383,700,l),
(223,700,l)
);
},
{
closed = 1;
nodes = (
(223,0,l),
(383,0,l),
(383,129,l),
(223,129,l)
);
}
);
width = 606;
}
);
unicode = 162;
},
{
glyphname = colonsign;
lastChange = "2021-10-27 05:56:50 +0000";
layers = (
{
layerId = m01;
shapes = (
{
ref = C;
},
{
closed = 1;
nodes = (
(154,-87,l),
(211,110,l),
(103,110,l),
(46,-87,l)
);
},
{
closed = 1;
nodes = (
(323,576,l),
(382,783,l),
(274,783,l),
(215,576,l)
);
},
{
closed = 1;
nodes = (
(334,-87,l),
(391,110,l),
(283,110,l),
(226,-87,l)
);
},
{
closed = 1;
nodes = (
(503,576,l),
(562,783,l),
(454,783,l),
(395,576,l)
);
}
);
width = 606;
},
{
layerId = m002;
shapes = (
{
ref = C;
},
{
closed = 1;
nodes = (
(154,-87,l),
(211,110,l),
(103,110,l),
(46,-87,l)
);
},
{
closed = 1;
nodes = (
(323,576,l),
(382,783,l),
(274,783,l),
(215,576,l)
);
},
{
closed = 1;
nodes = (
(334,-87,l),
(391,110,l),
(283,110,l),
(226,-87,l)
);
},
{
closed = 1;
nodes = (
(503,576,l),
(562,783,l),
(454,783,l),
(395,576,l)
);
}
);
width = 606;
}
);
unicode = 8353;
},
{
glyphname = currency;
lastChange = "2021-10-27 05:56:50 +0000";
layers = (
{
layerId = m01;
shapes = (
{
closed = 1;
nodes = (
(474,87,o),
(552,179,o),
(552,324,cs),
(552,356,ls),
(552,500,o),
(474,592,o),
(302,592,cs),
(130,592,o),
(53,500,o),
(53,356,cs),
(53,324,ls),
(53,179,o),
(130,87,o),
(302,87,cs)
);
},
{
closed = 1;
nodes = (
(109,58,l),
(227,176,l),
(138,264,l),
(20,147,l)
);
},
{
closed = 1;
nodes = (
(138,415,l),
(227,504,l),
(109,622,l),
(20,533,l)
);
},
{
closed = 1;
nodes = (
(243,249,o),
(215,277,o),
(215,321,cs),
(215,358,ls),
(215,402,o),
(243,430,o),
(302,430,cs),
(362,430,o),
(390,402,o),
(390,358,cs),
(390,321,ls),
(390,277,o),
(362,249,o),
(302,249,cs)
);
},
{
closed = 1;
nodes = (
(466,415,l),
(584,533,l),
(495,622,l),
(378,504,l)
);
},
{
closed = 1;
nodes = (
(495,58,l),
(584,147,l),
(466,264,l),
(378,176,l)
);
}
);
width = 604;
},
{
layerId = m002;
shapes = (
{
closed = 1;
nodes = (
(474,87,o),
(552,179,o),
(552,324,cs),
(552,356,ls),
(552,500,o),
(474,592,o),
(302,592,cs),
(130,592,o),
(53,500,o),
(53,356,cs),
(53,324,ls),
(53,179,o),
(130,87,o),
(302,87,cs)
);
},
{
closed = 1;
nodes = (
(109,58,l),
(227,176,l),
(138,264,l),
(20,147,l)
);
},
{
closed = 1;
nodes = (
(138,415,l),
(227,504,l),
(109,622,l),
(20,533,l)
);
},
{
closed = 1;
nodes = (
(243,249,o),
(215,277,o),
(215,321,cs),
(215,358,ls),
(215,402,o),
(243,430,o),
(302,430,cs),
(362,430,o),
(390,402,o),
(390,358,cs),
(390,321,ls),
(390,277,o),
(362,249,o),
(302,249,cs)
);
},
{
closed = 1;
nodes = (
(466,415,l),
(584,533,l),
(495,622,l),
(378,504,l)
);
},
{
closed = 1;
nodes = (
(495,58,l),
(584,147,l),
(466,264,l),
(378,176,l)
);
}
);
width = 604;
}
);
unicode = 164;
},
{
glyphname = dollar;
lastChange = "2021-10-27 05:56:50 +0000";
layers = (
{
layerId = m01;
shapes = (
{
closed = 1;
nodes = (
(481,626,o),
(420,676,o),
(258,676,cs),
(103,676,o),
(31,626,o),
(31,493,cs),
(31,456,ls),
(31,363,o),
(76,321,o),
(176,292,cs),
(280,262,ls),
(318,251,o),
(333,244,o),
(333,218,cs),
(333,179,o),
(315,161,o),
(267,161,cs),
(218,161,o),
(201,178,o),
(199,220,cs),
(198,241,l),
(30,232,l),
(30,199,ls),
(30,64,o),
(98,24,o),
(260,24,cs),
(413,24,o),
(486,61,o),
(486,211,cs),
(486,244,ls),
(486,335,o),
(451,384,o),
(355,410,cs),
(253,438,ls),
(203,452,o),
(193,459,o),
(193,484,cs),
(193,514,o),
(207,533,o),
(254,533,cs),
(299,533,o),
(317,516,o),
(319,475,cs),
(320,451,l),
(481,457,l),
(481,497,ls)
);
},
{
closed = 1;
nodes = (
(179,611,l),
(339,611,l),
(339,740,l),
(179,740,l)
);
},
{
closed = 1;
nodes = (
(179,-40,l),
(339,-40,l),
(339,89,l),
(179,89,l)
);
}
);
width = 513;
},
{
layerId = m002;
shapes = (
{
closed = 1;
nodes = (
(481,626,o),
(420,676,o),
(258,676,cs),
(103,676,o),
(31,626,o),
(31,493,cs),
(31,456,ls),
(31,363,o),
(76,321,o),
(176,292,cs),
(280,262,ls),
(318,251,o),
(333,244,o),
(333,218,cs),
(333,179,o),
(315,161,o),
(267,161,cs),
(218,161,o),
(201,178,o),
(199,220,cs),
(198,241,l),
(30,232,l),
(30,199,ls),
(30,64,o),
(98,24,o),
(260,24,cs),
(413,24,o),
(486,61,o),
(486,211,cs),
(486,244,ls),
(486,335,o),
(451,384,o),
(355,410,cs),
(253,438,ls),
(203,452,o),
(193,459,o),
(193,484,cs),
(193,514,o),
(207,533,o),
(254,533,cs),
(299,533,o),
(317,516,o),
(319,475,cs),
(320,451,l),
(481,457,l),
(481,497,ls)
);
},
{
closed = 1;
nodes = (
(179,611,l),
(339,611,l),
(339,740,l),
(179,740,l)
);
},
{
closed = 1;
nodes = (
(179,-40,l),
(339,-40,l),
(339,89,l),
(179,89,l)
);
}
);
width = 513;
}
);
unicode = 36;
},
{
glyphname = dong;
lastChange = "2021-10-27 05:56:50 +0000";
layers = (
{
layerId = m01;
shapes = (
{
closed = 1;
nodes = (
(330,96,o),
(349,166,o),
(349,291,cs),
(349,332,ls),
(349,457,o),
(330,528,o),
(201,528,cs),
(54,528,o),
(30,465,o),
(30,332,cs),
(30,291,ls),
(30,158,o),
(54,96,o),
(201,96,cs)
);
},
{
closed = 1;
nodes = (
(214,206,o),
(201,225,o),
(201,262,cs),
(201,361,ls),
(201,398,o),
(214,418,o),
(269,418,cs),
(324,418,o),
(337,398,o),
(337,361,cs),
(337,262,ls),
(337,225,o),
(324,206,o),
(269,206,cs)
);
},
{
closed = 1;
nodes = (
(337,103,l),
(508,103,l),
(508,700,l),
(337,700,l)
);
},
{
closed = 1;
nodes = (
(307,437,l),
(392,437,l),
(392,466,l),
(307,466,l)
);
},
{
closed = 1;
nodes = (
(315,157,l),
(401,157,l),
(401,187,l),
(315,187,l)
);
},
{
closed = 1;
nodes = (
(40,-53,l),
(508,-53,l),
(508,47,l),
(40,47,l)
);
},
{
closed = 1;
nodes = (
(211,559,l),
(561,559,l),
(561,635,l),
(211,635,l)
);
}
);
width = 571;
},
{
layerId = m002;
shapes = (
{
closed = 1;
nodes = (
(330,96,o),
(349,166,o),
(349,291,cs),
(349,332,ls),
(349,457,o),
(330,528,o),
(201,528,cs),
(54,528,o),
(30,465,o),
(30,332,cs),
(30,291,ls),
(30,158,o),
(54,96,o),
(201,96,cs)
);
},
{
closed = 1;
nodes = (
(214,206,o),
(201,225,o),
(201,262,cs),
(201,361,ls),
(201,398,o),
(214,418,o),
(269,418,cs),
(324,418,o),
(337,398,o),
(337,361,cs),
(337,262,ls),
(337,225,o),
(324,206,o),
(269,206,cs)
);
},
{
closed = 1;
nodes = (
(337,103,l),
(508,103,l),
(508,700,l),
(337,700,l)
);
},
{
closed = 1;
nodes = (
(307,437,l),
(392,437,l),
(392,466,l),
(307,466,l)
);
},
{
closed = 1;
nodes = (
(315,157,l),
(401,157,l),
(401,187,l),
(315,187,l)
);
},
{
closed = 1;
nodes = (
(40,-53,l),
(508,-53,l),
(508,47,l),
(40,47,l)
);
},
{
closed = 1;
nodes = (
(211,559,l),
(561,559,l),
(561,635,l),
(211,635,l)
);
}
);
width = 571;
}
);
unicode = 8363;
},
{
glyphname = euro;
lastChange = "2021-10-27 05:56:50 +0000";
layers = (
{
layerId = m01;
shapes = (
{
closed = 1;
nodes = (
(10,382,l),
(379,382,l),
(388,470,l),
(20,470,l)
);
},
{
closed = 1;
nodes = (
(10,234,l),
(379,234,l),
(388,322,l),
(20,322,l)
);
},
{
closed = 1;
nodes = (
(391,203,l),
(391,184,ls),
(391,155,o),
(380,138,o),
(340,138,cs),
(285,138,o),
(269,165,o),
(269,210,cs),
(269,490,ls),
(269,535,o),
(285,562,o),
(340,562,cs),
(380,562,o),
(391,545,o),
(391,516,cs),
(391,504,l),
(566,504,l),
(566,519,ls),
(566,642,o),
(533,712,o),
(326,712,cs),
(120,712,o),
(85,609,o),
(85,396,cs),
(85,304,ls),
(85,91,o),
(120,-12,o),
(326,-12,cs),
(533,-12,o),
(566,56,o),
(566,174,cs),
(566,203,l)
);
}
);
width = 596;
},
{
associatedMasterId = m01;
layerId = "BEFBC63C-4E9B-42BF-B10B-A3D8D03D3399";
name = "16 Feb 21, 17:08";
shapes = (
{
closed = 1;
nodes = (
(433,700,l),
(393,709,o),
(363,712,o),
(331,712,cs),
(92,712,o),
(68,609,o),
(68,396,cs),
(68,304,ls),
(68,91,o),
(92,-12,o),
(324,-12,cs),
(365,-12,o),
(397,-8,o),
(437,2,c),
(434,166,l),
(403,160,o),
(379,158,o),
(341,158,cs),
(276,158,o),
(258,183,o),
(258,224,cs),
(258,476,ls),
(258,517,o),
(276,542,o),
(341,542,cs),
(375,542,o),
(403,539,o),
(426,533,c)
);
},
{
closed = 1;
nodes = (
(20,367,l),
(370,367,l),
(380,466,l),
(30,466,l)
);
},
{
closed = 1;
nodes = (
(20,224,l),
(370,224,l),
(380,323,l),
(30,323,l)
);
}
);
width = 452;
},
{
layerId = m002;
shapes = (
{
closed = 1;
nodes = (
(10,382,l),
(379,382,l),
(388,470,l),
(20,470,l)
);
},
{
closed = 1;
nodes = (
(10,234,l),
(379,234,l),
(388,322,l),
(20,322,l)
);
},
{
closed = 1;
nodes = (
(391,203,l),
(391,184,ls),
(391,155,o),
(380,138,o),
(340,138,cs),
(285,138,o),
(269,165,o),
(269,210,cs),
(269,490,ls),
(269,535,o),
(285,562,o),
(340,562,cs),
(380,562,o),
(391,545,o),
(391,516,cs),
(391,504,l),
(566,504,l),
(566,519,ls),
(566,642,o),
(533,712,o),
(326,712,cs),
(120,712,o),
(85,609,o),
(85,396,cs),
(85,304,ls),
(85,91,o),
(120,-12,o),
(326,-12,cs),
(533,-12,o),
(566,56,o),
(566,174,cs),
(566,203,l)
);
}
);
width = 596;
},
{
associatedMasterId = m002;
layerId = "F66C13DF-6441-4182-8BEB-D4B9602E4107";
name = "16 Feb 21, 17:08";
shapes = (
{
closed = 1;
nodes = (
(433,700,l),
(393,709,o),
(363,712,o),
(331,712,cs),
(92,712,o),
(68,609,o),
(68,396,cs),
(68,304,ls),
(68,91,o),
(92,-12,o),
(324,-12,cs),
(365,-12,o),
(397,-8,o),
(437,2,c),
(434,166,l),
(403,160,o),
(379,158,o),
(341,158,cs),
(276,158,o),
(258,183,o),
(258,224,cs),
(258,476,ls),
(258,517,o),
(276,542,o),
(341,542,cs),
(375,542,o),
(403,539,o),
(426,533,c)
);
},
{
closed = 1;
nodes = (
(20,367,l),
(370,367,l),
(380,466,l),
(30,466,l)
);
},
{
closed = 1;
nodes = (
(20,224,l),
(370,224,l),
(380,323,l),
(30,323,l)
);
}
);
width = 452;
}
);
unicode = 8364;
},
{
glyphname = franc;
lastChange = "2021-10-27 05:56:50 +0000";
layers = (
{
anchors = (
{
name = bottom;
pos = (338,0);
},
{
name = top;
pos = (338,700);
}
);
layerId = m01;
shapes = (
{
closed = 1;
nodes = (
(111,0,l),
(309,0,l),
(309,700,l),
(111,700,l)
);
},
{
closed = 1;
nodes = (
(250,272,l),
(561,272,l),
(561,425,l),
(250,425,l)
);
},
{
closed = 1;
nodes = (
(240,533,l),
(594,533,l),
(594,700,l),
(240,700,l)
);
},
{
closed = 1;
nodes = (
(15,87,l),
(449,87,l),
(449,204,l),
(15,204,l)
);
}
);
width = 616;
},
{
anchors = (
{
name = bottom;
pos = (338,0);
},
{
name = top;
pos = (338,700);
}
);
layerId = m002;
shapes = (
{
closed = 1;
nodes = (
(111,0,l),
(309,0,l),
(309,700,l),
(111,700,l)
);
},
{
closed = 1;
nodes = (
(250,272,l),
(561,272,l),
(561,425,l),
(250,425,l)
);
},
{
closed = 1;
nodes = (
(240,533,l),
(594,533,l),
(594,700,l),
(240,700,l)
);
},
{
closed = 1;
nodes = (
(15,87,l),
(449,87,l),
(449,204,l),
(15,204,l)
);
}
);
width = 616;
}
);
unicode = 8355;
},
{
glyphname = guarani;
lastChange = "2021-10-27 05:56:50 +0000";
layers = (
{
anchors = (
{
name = bottom;
pos = (318,0);
},
{
name = top;
pos = (318,700);
}
);
layerId = m01;
shapes = (
{
closed = 1;
nodes = (
(590,387,l),
(287,387,l),
(287,266,l),
(435,266,l),
(390,291,l),
(390,214,ls),
(390,173,o),
(374,148,o),
(310,148,cs),
(246,148,o),
(230,173,o),
(230,214,cs),
(230,486,ls),
(230,527,o),
(246,552,o),
(310,552,cs),
(374,552,o),
(390,527,o),
(390,486,cs),
(390,446,l),
(590,446,l),
(590,461,ls),
(590,618,o),
(566,712,o),
(310,712,cs),
(54,712,o),
(30,609,o),
(30,396,cs),
(30,304,ls),
(30,91,o),
(71,-12,o),
(290,-12,cs),
(403,-12,o),
(443,30,o),
(460,108,c),
(411,77,l),
(505,77,l),
(460,122,l),
(460,0,l),
(590,0,l)
);
},
{
closed = 1;
nodes = (
(215,615,l),
(375,615,l),
(375,770,l),
(215,770,l)
);
},
{
closed = 1;
nodes = (
(215,-70,l),
(375,-70,l),
(375,85,l),
(215,85,l)
);
}
);
width = 635;
},
{
anchors = (
{
name = bottom;
pos = (318,0);
},
{
name = top;
pos = (318,700);
}
);
layerId = m002;
shapes = (
{
closed = 1;
nodes = (
(590,387,l),
(287,387,l),
(287,266,l),
(435,266,l),
(390,291,l),
(390,214,ls),
(390,173,o),
(374,148,o),
(310,148,cs),
(246,148,o),
(230,173,o),
(230,214,cs),
(230,486,ls),
(230,527,o),
(246,552,o),
(310,552,cs),
(374,552,o),
(390,527,o),
(390,486,cs),
(390,446,l),
(590,446,l),
(590,461,ls),
(590,618,o),
(566,712,o),
(310,712,cs),
(54,712,o),
(30,609,o),
(30,396,cs),
(30,304,ls),
(30,91,o),
(71,-12,o),
(290,-12,cs),
(403,-12,o),
(443,30,o),
(460,108,c),
(411,77,l),
(505,77,l),
(460,122,l),
(460,0,l),
(590,0,l)
);
},
{
closed = 1;
nodes = (
(215,615,l),
(375,615,l),
(375,770,l),
(215,770,l)
);
},
{
closed = 1;
nodes = (
(215,-70,l),
(375,-70,l),
(375,85,l),
(215,85,l)
);
}
);
width = 635;
}
);
unicode = 8370;
},
{
glyphname = kip;
lastChange = "2021-10-27 05:56:50 +0000";
layers = (
{
layerId = m01;
shapes = (
{
pos = (35,0);
ref = K;
},
{
closed = 1;
nodes = (
(12,299,l),
(625,299,l),
(625,445,l),
(12,445,l)
);
}
);
width = 660;
},
{
layerId = m002;
shapes = (
{
pos = (35,0);
ref = K;
},
{
closed = 1;
nodes = (
(12,299,l),
(625,299,l),
(625,445,l),
(12,445,l)
);
}
);
width = 660;
}
);
unicode = 8365;
},
{
glyphname = lira;
lastChange = "2021-10-27 05:56:50 +0000";
layers = (
{
layerId = m01;
shapes = (
{
closed = 1;
nodes = (
(498,0,l),
(498,151,l),
(142,149,l),
(220,134,l),
(220,182,l),
(162,142,l),
(243,158,o),
(289,190,o),
(271,286,cs),
(245,421,ls),
(239,450,o),
(237,470,o),
(237,497,cs),
(237,543,o),
(253,561,o),
(287,561,cs),
(322,561,o),
(338,549,o),
(338,511,cs),
(338,494,l),
(500,501,l),
(500,531,ls),
(500,661,o),
(439,712,o),
(284,712,cs),
(133,712,o),
(63,646,o),
(63,514,cs),
(63,497,ls),
(63,472,o),
(68,439,o),
(79,394,cs),
(111,262,ls),
(123,212,o),
(104,192,o),
(58,184,c),
(58,0,l)
);
},
{
closed = 1;
nodes = (
(390,370,l),
(393,460,l),
(23,460,l),
(20,370,l)
);
},
{
closed = 1;
nodes = (
(390,228,l),
(393,318,l),
(23,318,l),
(20,228,l)
);
}
);
width = 530;
},
{
layerId = m002;
shapes = (
{
closed = 1;
nodes = (
(498,0,l),
(498,151,l),
(142,149,l),
(220,134,l),
(220,182,l),
(162,142,l),
(243,158,o),
(289,190,o),
(271,286,cs),
(245,421,ls),
(239,450,o),
(237,470,o),
(237,497,cs),
(237,543,o),
(253,561,o),
(287,561,cs),
(322,561,o),
(338,549,o),
(338,511,cs),
(338,494,l),
(500,501,l),
(500,531,ls),
(500,661,o),
(439,712,o),
(284,712,cs),
(133,712,o),
(63,646,o),
(63,514,cs),
(63,497,ls),
(63,472,o),
(68,439,o),
(79,394,cs),
(111,262,ls),
(123,212,o),
(104,192,o),
(58,184,c),
(58,0,l)
);
},
{
closed = 1;
nodes = (
(390,370,l),
(393,460,l),
(23,460,l),
(20,370,l)
);
},
{
closed = 1;
nodes = (
(390,228,l),
(393,318,l),
(23,318,l),
(20,228,l)
);
}
);
width = 530;
}
);
unicode = 8356;
},
{
glyphname = liraTurkish;
lastChange = "2021-10-27 05:56:50 +0000";
layers = (
{
anchors = (
{
name = bottom;
pos = (325,0);
},
{
name = center;
pos = (305,391);
},
{
name = top;
pos = (195,700);
},
{
name = topright;
pos = (291,700);
}
);
layerId = m01;
shapes = (
{
closed = 1;
nodes = (
(93,0,l),
(291,0,l),
(291,700,l),
(93,700,l)
);
},
{
closed = 1;
nodes = (
(552,0,o),
(604,79,o),
(604,266,cs),
(604,301,l),
(404,301,l),
(404,236,ls),
(404,195,o),
(389,170,o),
(354,170,cs),
(222,170,l),
(222,0,l),
(354,0,ls)
);
},
{
closed = 1;
nodes = (
(385,530,l),
(385,630,l),
(15,490,l),
(15,390,l)
);
},
{
closed = 1;
nodes = (
(385,348,l),
(385,448,l),
(15,308,l),
(15,208,l)
);
}
);
width = 616;
},
{
anchors = (
{
name = bottom;
pos = (325,0);
},
{
name = center;
pos = (305,391);
},
{
name = top;
pos = (195,700);
},
{
name = topright;
pos = (291,700);
}
);
layerId = m002;
shapes = (
{
closed = 1;
nodes = (
(93,0,l),
(291,0,l),
(291,700,l),
(93,700,l)
);
},
{
closed = 1;
nodes = (
(552,0,o),
(604,79,o),
(604,266,cs),
(604,301,l),
(404,301,l),
(404,236,ls),
(404,195,o),
(389,170,o),
(354,170,cs),
(222,170,l),
(222,0,l),
(354,0,ls)
);
},
{
closed = 1;
nodes = (
(385,530,l),
(385,630,l),
(15,490,l),
(15,390,l)
);
},
{
closed = 1;
nodes = (
(385,348,l),
(385,448,l),
(15,308,l),
(15,208,l)
);
}
);
width = 616;
}
);
unicode = 8378;
},
{
glyphname = manat;
lastChange = "2021-10-27 05:56:50 +0000";
layers = (
{
anchors = (
{
name = bottom;
pos = (317,0);
},
{
name = ogonek;
pos = (487,14);
},
{
name = top;
pos = (317,700);
},
{
name = topright;
pos = (592,700);
}
);
layerId = m01;
shapes = (
{
closed = 1;
nodes = (
(188,0,l),
(188,364,ls),
(188,423,o),
(214,466,o),
(317,466,cs),
(420,466,o),
(446,423,o),
(446,364,cs),
(446,0,l),
(592,0,l),
(592,314,ls),
(592,521,o),
(530,600,o),
(317,600,cs),
(104,600,o),
(42,521,o),
(42,314,cs),
(42,0,l)
);
},
{
closed = 1;
nodes = (
(388,536,l),
(388,700,l),
(246,700,l),
(246,536,l)
);
},
{
closed = 1;
nodes = (
(255,536,l),
(255,0,l),
(379,0,l),
(379,536,l)
);
}
);
width = 634;
},
{
anchors = (
{
name = bottom;
pos = (317,0);
},
{
name = ogonek;
pos = (487,14);
},
{
name = top;
pos = (317,700);
},
{
name = topright;
pos = (592,700);
}
);
layerId = m002;
shapes = (
{
closed = 1;
nodes = (
(188,0,l),
(188,364,ls),
(188,423,o),
(214,466,o),
(317,466,cs),
(420,466,o),
(446,423,o),
(446,364,cs),
(446,0,l),
(592,0,l),
(592,314,ls),
(592,521,o),
(530,600,o),
(317,600,cs),
(104,600,o),
(42,521,o),
(42,314,cs),
(42,0,l)
);
},
{
closed = 1;
nodes = (
(388,536,l),
(388,700,l),
(246,700,l),
(246,536,l)
);
},
{
closed = 1;
nodes = (
(255,536,l),
(255,0,l),
(379,0,l),
(379,536,l)
);
}
);
width = 634;
}
);
unicode = 8380;
},
{
glyphname = naira;
lastChange = "2021-10-27 05:56:50 +0000";
layers = (
{
layerId = m01;
shapes = (
{
pos = (45,0);
ref = N;
},
{
closed = 1;
nodes = (
(191,262,l),
(191,438,l),
(10,438,l),
(10,262,l)
);
},
{
closed = 1;
nodes = (
(708,262,l),
(708,438,l),
(557,438,l),
(557,262,l)
);
}
);
width = 718;
},
{
layerId = m002;
shapes = (
{
pos = (45,0);
ref = N;
},
{
closed = 1;
nodes = (
(191,262,l),
(191,438,l),
(10,438,l),
(10,262,l)
);
},
{
closed = 1;
nodes = (
(708,262,l),
(708,438,l),
(557,438,l),
(557,262,l)
);
}
);
width = 718;
}
);
unicode = 8358;
},
{
glyphname = peseta;
lastChange = "2021-10-27 05:56:50 +0000";
layers = (
{
layerId = m01;
shapes = (
{
pos = (37,0);
ref = P;
},
{
closed = 1;
nodes = (
(688,371,l),
(688,547,l),
(537,547,l),
(537,371,l)
);
},
{
closed = 1;
nodes = (
(161,371,l),
(161,547,l),
(10,547,l),
(10,371,l)
);
}
);
width = 698;
},
{
layerId = m002;
shapes = (
{
pos = (37,0);
ref = P;
},
{
closed = 1;
nodes = (
(688,371,l),
(688,547,l),
(537,547,l),
(537,371,l)
);
},
{
closed = 1;
nodes = (
(161,371,l),
(161,547,l),
(10,547,l),
(10,371,l)
);
}
);
width = 698;
}
);
unicode = 8359;
},
{
glyphname = peso;
lastChange = "2021-10-27 05:56:50 +0000";
layers = (
{
layerId = m01;
shapes = (
{
pos = (42,0);
ref = P;
},
{
closed = 1;
nodes = (
(693,495,l),
(693,611,l),
(542,611,l),
(542,495,l)
);
},
{
closed = 1;
nodes = (
(166,495,l),
(166,611,l),
(15,611,l),
(15,495,l)
);
},
{
closed = 1;
nodes = (
(693,312,l),
(693,428,l),
(542,428,l),
(542,312,l)
);
},
{
closed = 1;
nodes = (
(166,312,l),
(166,428,l),
(15,428,l),
(15,312,l)
);
}
);
width = 703;
},
{
layerId = m002;
shapes = (
{
pos = (42,0);
ref = P;
},
{
closed = 1;
nodes = (
(693,495,l),
(693,611,l),
(542,611,l),
(542,495,l)
);
},
{
closed = 1;
nodes = (
(166,495,l),
(166,611,l),
(15,611,l),
(15,495,l)
);
},
{
closed = 1;
nodes = (
(693,312,l),
(693,428,l),
(542,428,l),
(542,312,l)
);
},
{
closed = 1;
nodes = (
(166,312,l),
(166,428,l),
(15,428,l),
(15,312,l)
);
}
);
width = 703;
}
);
unicode = 8369;
},
{
glyphname = ruble;
lastChange = "2021-10-27 05:56:50 +0000";
layers = (
{
anchors = (
{
name = bottom;
pos = (331,0);
},
{
name = top;
pos = (331,700);
}
);
layerId = m01;
shapes = (
{
closed = 1;
nodes = (
(562,266,o),
(608,340,o),
(608,454,cs),
(608,516,ls),
(608,634,o),
(562,700,o),
(355,700,cs),
(227,700,l),
(227,543,l),
(343,543,ls),
(397,543,o),
(413,515,o),
(413,465,cs),
(413,455,ls),
(413,405,o),
(397,377,o),
(343,377,cs),
(207,377,l),
(207,266,l),
(355,266,ls)
);
},
{
closed = 1;
nodes = (
(85,0,l),
(283,0,l),
(283,700,l),
(85,700,l)
);
},
{
closed = 1;
nodes = (
(201,266,l),
(201,374,l),
(16,374,l),
(16,266,l)
);
},
{
closed = 1;
nodes = (
(483,83,l),
(483,191,l),
(16,191,l),
(16,83,l)
);
}
);
width = 628;
},
{
anchors = (
{
name = bottom;
pos = (331,0);
},
{
name = top;
pos = (331,700);
}
);
layerId = m002;
shapes = (
{
closed = 1;
nodes = (
(562,266,o),
(608,340,o),
(608,454,cs),
(608,516,ls),
(608,634,o),
(562,700,o),
(355,700,cs),
(227,700,l),
(227,543,l),
(343,543,ls),
(397,543,o),
(413,515,o),
(413,465,cs),
(413,455,ls),
(413,405,o),
(397,377,o),
(343,377,cs),
(207,377,l),
(207,266,l),
(355,266,ls)
);
},
{
closed = 1;
nodes = (
(85,0,l),
(283,0,l),
(283,700,l),
(85,700,l)
);
},
{
closed = 1;
nodes = (
(201,266,l),
(201,374,l),
(16,374,l),
(16,266,l)
);
},
{
closed = 1;
nodes = (
(483,83,l),
(483,191,l),
(16,191,l),
(16,83,l)
);
}
);
width = 628;
}
);
unicode = 8381;
},
{
glyphname = sterling;
lastChange = "2021-10-27 05:56:50 +0000";
layers = (
{
layerId = m01;
shapes = (
{
closed = 1;
nodes = (
(498,0,l),
(498,151,l),
(142,149,l),
(220,134,l),
(220,182,l),
(162,142,l),
(243,158,o),
(289,190,o),
(271,286,cs),
(245,421,ls),
(239,450,o),
(237,470,o),
(237,497,cs),
(237,543,o),
(253,561,o),
(287,561,cs),
(322,561,o),
(338,544,o),
(338,493,cs),
(338,469,l),
(500,476,l),
(500,513,ls),
(500,656,o),
(439,712,o),
(284,712,cs),
(133,712,o),
(63,646,o),
(63,514,cs),
(63,497,ls),
(63,472,o),
(68,439,o),
(79,394,cs),
(111,262,ls),
(123,212,o),
(104,192,o),
(58,184,c),
(58,0,l)
);
},
{
closed = 1;
nodes = (
(400,258,l),
(414,386,l),
(44,386,l),
(30,258,l)
);
}
);
width = 530;
},
{
layerId = m002;
shapes = (
{
closed = 1;
nodes = (
(498,0,l),
(498,151,l),
(142,149,l),
(220,134,l),
(220,182,l),
(162,142,l),
(243,158,o),
(289,190,o),
(271,286,cs),
(245,421,ls),
(239,450,o),
(237,470,o),
(237,497,cs),
(237,543,o),
(253,561,o),
(287,561,cs),
(322,561,o),
(338,544,o),
(338,493,cs),
(338,469,l),
(500,476,l),
(500,513,ls),
(500,656,o),
(439,712,o),
(284,712,cs),
(133,712,o),
(63,646,o),
(63,514,cs),
(63,497,ls),
(63,472,o),
(68,439,o),
(79,394,cs),
(111,262,ls),
(123,212,o),
(104,192,o),
(58,184,c),
(58,0,l)
);
},
{
closed = 1;
nodes = (
(400,258,l),
(414,386,l),
(44,386,l),
(30,258,l)
);
}
);
width = 530;
}
);
unicode = 163;
},
{
glyphname = won;
lastChange = "2021-10-27 05:56:50 +0000";
layers = (
{
anchors = (
{
name = bottom;
pos = (379,0);
},
{
name = top;
pos = (379,700);
}
);
layerId = m01;
shapes = (
{
closed = 1;
nodes = (
(257,116,l),
(308,241,l),
(225,241,l),
(270,116,l),
(207,700,l),
(64,700,l),
(146,0,l),
(340,0,l),
(384,403,l),
(333,318,l),
(426,318,l),
(375,403,l),
(419,0,l),
(613,0,l),
(695,700,l),
(551,700,l),
(489,116,l),
(534,241,l),
(451,241,l),
(502,116,l),
(431,700,l),
(328,700,l)
);
},
{
closed = 1;
nodes = (
(20,422,l),
(736,422,l),
(736,526,l),
(20,526,l)
);
},
{
closed = 1;
nodes = (
(20,226,l),
(160,226,l),
(160,330,l),
(20,330,l)
);
},
{
closed = 1;
nodes = (
(596,226,l),
(736,226,l),
(736,330,l),
(596,330,l)
);
}
);
width = 756;
},
{
anchors = (
{
name = bottom;
pos = (379,0);
},
{
name = top;
pos = (379,700);
}
);
layerId = m002;
shapes = (
{
closed = 1;
nodes = (
(257,116,l),
(308,241,l),
(225,241,l),
(270,116,l),
(207,700,l),
(64,700,l),
(146,0,l),
(340,0,l),
(384,403,l),
(333,318,l),
(426,318,l),
(375,403,l),
(419,0,l),
(613,0,l),
(695,700,l),
(551,700,l),
(489,116,l),
(534,241,l),
(451,241,l),
(502,116,l),
(431,700,l),
(328,700,l)
);
},
{
closed = 1;
nodes = (
(20,422,l),
(736,422,l),
(736,526,l),
(20,526,l)
);
},
{
closed = 1;
nodes = (
(20,226,l),
(160,226,l),
(160,330,l),
(20,330,l)
);
},
{
closed = 1;
nodes = (
(596,226,l),
(736,226,l),
(736,330,l),
(596,330,l)
);
}
);
width = 756;
}
);
unicode = 8361;
},
{
glyphname = yen;
lastChange = "2021-10-27 05:56:50 +0000";
layers = (
{
layerId = m01;
shapes = (
{
closed = 1;
nodes = (
(288,491,l),
(371,528,l),
(237,528,l),
(320,491,l),
(205,700,l),
(5,700,l),
(225,359,l),
(383,359,l),
(603,700,l),
(403,700,l)
);
},
{
closed = 1;
nodes = (
(201,0,l),
(407,0,l),
(407,500,l),
(201,500,l)
);
},
{
closed = 1;
nodes = (
(55,277,l),
(553,277,l),
(553,381,l),
(55,381,l)
);
},
{
closed = 1;
nodes = (
(55,107,l),
(553,107,l),
(553,211,l),
(55,211,l)
);
}
);
width = 608;
},
{
layerId = m002;
shapes = (
{
closed = 1;
nodes = (
(288,491,l),
(371,528,l),
(237,528,l),
(320,491,l),
(205,700,l),
(5,700,l),
(225,359,l),
(383,359,l),
(603,700,l),
(403,700,l)
);
},
{
closed = 1;
nodes = (
(201,0,l),
(407,0,l),
(407,500,l),
(201,500,l)
);
},
{
closed = 1;
nodes = (
(55,277,l),
(553,277,l),
(553,381,l),
(55,381,l)
);
},
{
closed = 1;
nodes = (
(55,107,l),
(553,107,l),
(553,211,l),
(55,211,l)
);
}
);
width = 608;
}
);
unicode = 165;
},
{
glyphname = plus;
lastChange = "2021-10-27 05:56:50 +0000";
layers = (
{
layerId = m01;
shapes = (
{
closed = 1;
nodes = (
(183,108,l),
(361,108,l),
(361,552,l),
(183,552,l)
);
},
{
closed = 1;
nodes = (
(30,257,l),
(514,257,l),
(514,403,l),
(30,403,l)
);
}
);
width = 544;
},
{
layerId = m002;
shapes = (
{
closed = 1;
nodes = (
(183,108,l),
(361,108,l),
(361,552,l),
(183,552,l)
);
},
{
closed = 1;
nodes = (
(30,257,l),
(514,257,l),
(514,403,l),
(30,403,l)
);
}
);
width = 544;
}
);
unicode = 43;
},
{
glyphname = percent;
lastChange = "2021-10-27 05:56:50 +0000";
layers = (
{
associatedMasterId = m01;
layerId = "1A518D6C-D90F-40FF-938D-93BB8B206B87";
name = "16 Feb 21, 16:58";
shapes = (
{
closed = 1;
nodes = (
(153,0,l),
(557,700,l),
(426,700,l),
(22,0,l)
);
},
{
pos = (304,0);
ref = _percent;
},
{
pos = (20,443);
ref = _percent;
}
);
width = 584;
},
{
layerId = m01;
name = Regular;
shapes = (
{
closed = 1;
nodes = (
(10,92,l),
(483,480,l),
(483,615,l),
(10,227,l)
);
},
{
pos = (206,0);
ref = _percent;
},
{
pos = (22,443);
ref = _percent;
}
);
width = 493;
},
{
associatedMasterId = m002;
layerId = "125B1961-1FBA-442D-AB77-DAEA42F6C7C4";
name = "16 Feb 21, 16:58";
shapes = (
{
closed = 1;
nodes = (
(153,0,l),
(557,700,l),
(426,700,l),
(22,0,l)
);
},
{
pos = (304,0);
ref = _percent;
},
{
pos = (20,443);
ref = _percent;
}
);
width = 584;
},
{
layerId = m002;
name = Regular;
shapes = (
{
closed = 1;
nodes = (
(10,92,l),
(483,480,l),
(483,615,l),
(10,227,l)
);
},
{
pos = (206,0);
ref = _percent;
},
{
pos = (22,443);
ref = _percent;
}
);
width = 493;
}
);
unicode = 37;
},
{
glyphname = upArrow;
lastChange = "2021-10-27 05:56:50 +0000";
layers = (
{
associatedMasterId = m01;
layerId = "F7AE5126-066D-4DBA-81BD-960EA5941A67";
name = "19 Feb 21, 17:25";
shapes = (
{
closed = 1;
nodes = (
(217,58,l),
(383,58,l),
(383,502,l),
(217,502,l)
);
},
{
closed = 1;
nodes = (
(50,441,l),
(50,241,l),
(300,427,l),
(550,241,l),
(550,441,l),
(300,621,l)
);
},
{
closed = 1;
nodes = (
(165,359,l),
(435,359,l),
(435,421,l),
(165,421,l)
);
}
);
width = 600;
},
{
layerId = m01;
name = Headline;
shapes = (
{
closed = 1;
nodes = (
(205,58,l),
(395,58,l),
(395,447,l),
(205,447,l)
);
},
{
closed = 1;
nodes = (
(0,351,l),
(0,341,l),
(600,341,l),
(600,351,l),
(300,651,l)
);
}
);
width = 600;
},
{
associatedMasterId = m002;
layerId = "6102957F-EC56-422F-8077-7C4B0D0D3DBF";
name = "19 Feb 21, 17:25";
shapes = (
{
closed = 1;
nodes = (
(217,58,l),
(383,58,l),
(383,502,l),
(217,502,l)
);
},
{
closed = 1;
nodes = (
(50,441,l),
(50,241,l),
(300,427,l),
(550,241,l),
(550,441,l),
(300,621,l)
);
},
{
closed = 1;
nodes = (
(165,359,l),
(435,359,l),
(435,421,l),
(165,421,l)
);
}
);
width = 600;
},
{
layerId = m002;
name = Headline;
shapes = (
{
closed = 1;
nodes = (
(205,58,l),
(395,58,l),
(395,447,l),
(205,447,l)
);
},
{
closed = 1;
nodes = (
(0,351,l),
(0,341,l),
(600,341,l),
(600,351,l),
(300,651,l)
);
}
);
width = 600;
}
);
unicode = 8593;
},
{
glyphname = leftRightArrow;
lastChange = "2021-10-27 05:56:50 +0000";
layers = (
{
layerId = m01;
shapes = (
{
closed = 1;
nodes = (
(175,420,l),
(175,260,l),
(676,260,l),
(676,420,l)
);
},
{
closed = 1;
nodes = (
(620,570,l),
(446,570,l),
(617,340,l),
(446,110,l),
(620,110,l),
(786,340,l)
);
},
{
closed = 1;
nodes = (
(554,464,l),
(554,216,l),
(606,216,l),
(606,464,l)
);
},
{
closed = 1;
nodes = (
(196,110,l),
(370,110,l),
(199,340,l),
(370,570,l),
(196,570,l),
(30,340,l)
);
},
{
closed = 1;
nodes = (
(210,216,l),
(262,216,l),
(262,464,l),
(210,464,l)
);
}
);
width = 816;
},
{
layerId = m002;
shapes = (
{
closed = 1;
nodes = (
(175,420,l),
(175,260,l),
(676,260,l),
(676,420,l)
);
},
{
closed = 1;
nodes = (
(620,570,l),
(446,570,l),
(617,340,l),
(446,110,l),
(620,110,l),
(786,340,l)
);
},
{
closed = 1;
nodes = (
(554,464,l),
(554,216,l),
(606,216,l),
(606,464,l)
);
},
{
closed = 1;
nodes = (
(196,110,l),
(370,110,l),
(199,340,l),
(370,570,l),
(196,570,l),
(30,340,l)
);
},
{
closed = 1;
nodes = (
(210,216,l),
(262,216,l),
(262,464,l),
(210,464,l)
);
}
);
width = 816;
}
);
unicode = 8596;
},
{
glyphname = dieresiscomb;
lastChange = "2021-10-29 03:08:53 +0000";
layers = (
{
anchors = (
{
name = _top;
pos = (307,500);
},
{
name = top;
pos = (307,666);
}
);
layerId = m01;
shapes = (
{
closed = 1;
nodes = (
(484,552,l),
(484,666,l),
(344,666,l),
(344,552,l)
);
},
{
closed = 1;
nodes = (
(269,552,l),
(269,666,l),
(129,666,l),
(129,552,l)
);
}
);
width = 600;
},
{
anchors = (
{
name = _top;
pos = (307,500);
},
{
name = top;
pos = (307,680);
}
);
layerId = m002;
shapes = (
{
closed = 1;
nodes = (
(484,552,l),
(484,680,l),
(344,680,l),
(344,552,l)
);
},
{
closed = 1;
nodes = (
(269,552,l),
(269,680,l),
(129,680,l),
(129,552,l)
);
}
);
width = 600;
}
);
unicode = 776;
},
{
glyphname = dotaccentcomb;
lastChange = "2021-10-27 05:56:50 +0000";
layers = (
{
anchors = (
{
name = _top;
pos = (281,500);
},
{
name = top;
pos = (281,700);
}
);
layerId = m01;
shapes = (
{
closed = 1;
nodes = (
(199,552,l),
(363,552,l),
(363,680,l),
(199,680,l)
);
}
);
width = 600;
},
{
anchors = (
{
name = _top;
pos = (281,500);
},
{
name = top;
pos = (281,700);
}
);
layerId = m002;
shapes = (
{
closed = 1;
nodes = (
(199,552,l),
(363,552,l),
(363,680,l),
(199,680,l)
);
}
);
width = 600;
}
);
unicode = 775;
},
{
glyphname = gravecomb;
lastChange = "2021-10-27 05:56:50 +0000";
layers = (
{
anchors = (
{
name = _top;
pos = (377,500);
},
{
name = top;
pos = (281,700);
}
);
layerId = m01;
shapes = (
{
closed = 1;
nodes = (
(139,680,l),
(299,552,l),
(463,552,l),
(333,680,l)
);
}
);
width = 600;
},
{
anchors = (
{
name = _top;
pos = (377,500);
},
{
name = top;
pos = (281,700);
}
);
layerId = m002;
shapes = (
{
closed = 1;
nodes = (
(139,680,l),
(299,552,l),
(463,552,l),
(333,680,l)
);
}
);
width = 600;
}
);
unicode = 768;
},
{
glyphname = acutecomb;
lastChange = "2021-10-27 05:56:50 +0000";
layers = (
{
anchors = (
{
name = _top;
pos = (205,500);
},
{
name = top;
pos = (301,700);
}
);
layerId = m01;
shapes = (
{
closed = 1;
nodes = (
(119,552,l),
(283,552,l),
(443,680,l),
(249,680,l)
);
}
);
width = 600;
},
{
anchors = (
{
name = _top;
pos = (205,500);
},
{
name = top;
pos = (301,700);
}
);
layerId = m002;
shapes = (
{
closed = 1;
nodes = (
(119,552,l),
(283,552,l),
(443,680,l),
(249,680,l)
);
}
);
width = 600;
}
);
unicode = 769;
},
{
glyphname = hungarumlautcomb;
lastChange = "2021-10-29 03:27:28 +0000";
layers = (
{
anchors = (
{
name = _top;
pos = (286,500);
},
{
name = top;
pos = (286,700);
}
);
layerId = m01;
shapes = (
{
closed = 1;
nodes = (
(436,552,l),
(519,654,l),
(399,654,l),
(318,552,l)
);
},
{
closed = 1;
nodes = (
(253,552,l),
(336,654,l),
(216,654,l),
(135,552,l)
);
}
);
width = 600;
},
{
anchors = (
{
name = _top;
pos = (286,500);
},
{
name = top;
pos = (286,700);
}
);
layerId = m002;
shapes = (
{
closed = 1;
nodes = (
(449,552,l),
(554,670,l),
(427,670,l),
(325,552,l)
);
},
{
closed = 1;
nodes = (
(243,552,l),
(348,670,l),
(221,670,l),
(119,552,l)
);
}
);
width = 600;
}
);
unicode = 779;
},
{
glyphname = caroncomb.alt;
lastChange = "2021-10-29 03:23:21 +0000";
layers = (
{
anchors = (
{
name = _topright;
pos = (124,700);
}
);
layerId = m01;
shapes = (
{
closed = 1;
nodes = (
(270,474,l),
(340,700,l),
(204,700,l),
(164,474,l)
);
}
);
width = 600;
},
{
anchors = (
{
name = _topright;
pos = (124,700);
}
);
layerId = m002;
shapes = (
{
closed = 1;
nodes = (
(270,474,l),
(340,700,l),
(204,700,l),
(164,474,l)
);
}
);
width = 600;
}
);
},
{
glyphname = circumflexcomb;
lastChange = "2021-10-29 03:09:36 +0000";
layers = (
{
anchors = (
{
name = _top;
pos = (291,500);
},
{
name = top;
pos = (467,573);
}
);
layerId = m01;
shapes = (
{
closed = 1;
nodes = (
(248,552,l),
(303,613,l),
(261,598,l),
(321,598,l),
(279,613,l),
(334,552,l),
(441,552,l),
(376,670,l),
(206,670,l),
(141,552,l)
);
}
);
width = 600;
},
{
anchors = (
{
name = _top;
pos = (291,500);
},
{
name = top;
pos = (482,612);
}
);
layerId = m002;
shapes = (
{
closed = 1;
nodes = (
(194,552,l),
(306,623,l),
(252,611,l),
(330,611,l),
(276,623,l),
(388,552,l),
(485,552,l),
(375,680,l),
(207,680,l),
(97,552,l)
);
}
);
width = 600;
}
);
unicode = 770;
},
{
glyphname = caroncomb;
lastChange = "2021-10-28 07:03:47 +0000";
layers = (
{
anchors = (
{
name = _top;
pos = (291,500);
},
{
name = top;
pos = (291,700);
}
);
layerId = m01;
shapes = (
{
closed = 1;
nodes = (
(376,552,l),
(441,670,l),
(334,670,l),
(279,609,l),
(321,624,l),
(261,624,l),
(303,609,l),
(248,670,l),
(141,670,l),
(206,552,l)
);
}
);
width = 600;
},
{
anchors = (
{
name = _top;
pos = (291,500);
},
{
name = top;
pos = (291,700);
}
);
layerId = m002;
shapes = (
{
closed = 1;
nodes = (
(402,552,l),
(505,670,l),
(359,670,l),
(275,569,l),
(334,600,l),
(248,600,l),
(307,569,l),
(223,670,l),
(77,670,l),
(180,552,l)
);
}
);
width = 600;
}
);
unicode = 780;
},
{
glyphname = brevecomb;
lastChange = "2021-10-29 03:26:26 +0000";
layers = (
{
anchors = (
{
name = _top;
pos = (191,500);
},
{
name = top;
pos = (191,650);
}
);
layerId = m01;
shapes = (
{
closed = 1;
nodes = (
(328,670,l),
(328,668,o),
(328,666,o),
(328,664,cs),
(328,591,o),
(289,540,o),
(190,540,cs),
(92,540,o),
(53,591,o),
(53,664,cs),
(53,666,o),
(53,668,o),
(53,670,c),
(141,670,l),
(141,657,ls),
(141,630,o),
(157,614,o),
(190,614,cs),
(223,614,o),
(239,630,o),
(239,657,cs),
(239,670,l)
);
}
);
width = 600;
},
{
anchors = (
{
name = _top;
pos = (191,500);
},
{
name = top;
pos = (201,670);
}
);
layerId = m002;
shapes = (
{
closed = 1;
nodes = (
(328,670,l),
(328,668,o),
(328,666,o),
(328,664,cs),
(328,591,o),
(289,540,o),
(190,540,cs),
(92,540,o),
(53,591,o),
(53,664,cs),
(53,666,o),
(53,668,o),
(53,670,c),
(141,670,l),
(141,657,ls),
(141,630,o),
(157,614,o),
(190,614,cs),
(223,614,o),
(239,630,o),
(239,657,cs),
(239,670,l)
);
}
);
width = 600;
}
);
unicode = 774;
},
{
glyphname = ringcomb;
lastChange = "2021-10-29 03:10:34 +0000";
layers = (
{
anchors = (
{
name = _top;
pos = (191,500);
},
{
name = top;
pos = (191,757);
}
);
layerId = m01;
shapes = (
{
closed = 1;
nodes = (
(268,534,o),
(299,568,o),
(299,617,cs),
(299,666,o),
(268,700,o),
(190,700,cs),
(113,700,o),
(82,666,o),
(82,617,cs),
(82,568,o),
(113,534,o),
(190,534,cs)
);
},
{
closed = 1;
nodes = (
(165,587,o),
(154,596,o),
(154,617,cs),
(154,637,o),
(165,647,o),
(190,647,cs),
(215,647,o),
(226,637,o),
(226,617,cs),
(226,596,o),
(215,587,o),
(190,587,cs)
);
}
);
width = 382;
},
{
anchors = (
{
name = _top;
pos = (191,500);
},
{
name = top;
pos = (191,757);
}
);
layerId = m002;
shapes = (
{
closed = 1;
nodes = (
(282,520,o),
(318,571,o),
(318,644,cs),
(318,717,o),
(282,768,o),
(190,768,cs),
(99,768,o),
(63,717,o),
(63,644,cs),
(63,571,o),
(99,520,o),
(190,520,cs)
);
},
{
closed = 1;
nodes = (
(157,594,o),
(141,617,o),
(141,644,cs),
(141,672,o),
(157,694,o),
(190,694,cs),
(223,694,o),
(239,672,o),
(239,644,cs),
(239,617,o),
(223,594,o),
(190,594,cs)
);
}
);
width = 382;
}
);
unicode = 778;
},
{
glyphname = tildecomb;
lastChange = "2021-10-29 03:07:45 +0000";
layers = (
{
anchors = (
{
name = _top;
pos = (308,500);
},
{
name = top;
pos = (308,665);
}
);
layerId = m01;
shapes = (
{
closed = 1;
nodes = (
(421,547,o),
(455,572,o),
(450,650,c),
(370,650,l),
(373,630,o),
(368,624,o),
(352,624,cs),
(346,624,o),
(339,625,o),
(330,630,cs),
(311,640,ls),
(292,650,o),
(277,654,o),
(253,654,cs),
(194,654,o),
(160,618,o),
(165,550,c),
(245,550,l),
(242,569,o),
(249,577,o),
(263,577,cs),
(270,577,o),
(277,575,o),
(286,570,cs),
(304,560,ls),
(317,553,o),
(334,547,o),
(357,547,cs)
);
}
);
width = 600;
},
{
anchors = (
{
name = _top;
pos = (308,500);
},
{
name = top;
pos = (308,688);
}
);
layerId = m002;
shapes = (
{
closed = 1;
nodes = (
(453,549,o),
(499,577,o),
(499,664,c),
(399,664,l),
(399,638,o),
(392,630,o),
(371,630,cs),
(359,630,o),
(348,632,o),
(336,638,cs),
(312,650,ls),
(286,663,o),
(266,668,o),
(234,668,cs),
(162,668,o),
(116,628,o),
(116,553,c),
(216,553,l),
(216,577,o),
(225,587,o),
(246,587,cs),
(258,587,o),
(267,584,o),
(279,578,cs),
(303,565,ls),
(319,556,o),
(343,549,o),
(374,549,cs)
);
}
);
width = 600;
}
);
unicode = 771;
},
{
glyphname = macroncomb;
lastChange = "2021-10-29 03:52:48 +0000";
layers = (
{
anchors = (
{
name = _top;
pos = (281.115,509.778);
},
{
name = top;
pos = (281.115,672.889);
}
);
layerId = m01;
shapes = (
{
closed = 1;
nodes = (
(414,562,l),
(414,651,l),
(148,651,l),
(148,562,l)
);
}
);
width = 600;
},
{
anchors = (
{
name = _top;
pos = (281.115,509.778);
},
{
name = top;
pos = (281.115,672.889);
}
);
layerId = m002;
shapes = (
{
closed = 1;
nodes = (
(476,562,l),
(476,651,l),
(86,651,l),
(86,562,l)
);
}
);
width = 600;
}
);
unicode = 772;
},
{
glyphname = hookabovecomb;
lastChange = "2021-10-27 05:56:50 +0000";
layers = (
{
anchors = (
{
name = _top;
pos = (297,520);
},
{
name = top;
pos = (307,746);
}
);
layerId = m01;
shapes = (
{
closed = 1;
nodes = (
(225,669,l),
(241,673,o),
(252,674,o),
(262,674,cs),
(285,674,o),
(298,664,o),
(298,649,cs),
(298,640,ls),
(298,625,o),
(290,617,o),
(244,584,c),
(290,552,l),
(359,588,o),
(388,616,o),
(388,659,cs),
(388,706,o),
(357,746,o),
(267,746,cs),
(258,746,o),
(246,745,o),
(225,742,c)
);
}
);
width = 600;
},
{
anchors = (
{
name = _top;
pos = (297,520);
},
{
name = top;
pos = (307,746);
}
);
layerId = m002;
shapes = (
{
closed = 1;
nodes = (
(225,669,l),
(241,673,o),
(252,674,o),
(262,674,cs),
(285,674,o),
(298,664,o),
(298,649,cs),
(298,640,ls),
(298,625,o),
(290,617,o),
(244,584,c),
(290,552,l),
(359,588,o),
(388,616,o),
(388,659,cs),
(388,706,o),
(357,746,o),
(267,746,cs),
(258,746,o),
(246,745,o),
(225,742,c)
);
}
);
width = 600;
}
);
unicode = 777;
},
{
glyphname = commaturnedabovecomb;
lastChange = "2021-10-27 05:56:50 +0000";
layers = (
{
anchors = (
{
name = _top;
pos = (150,500);
},
{
name = top;
pos = (150,743);
}
);
layerId = m01;
shapes = (
{
closed = 1;
nodes = (
(228,645,l),
(71,645,l),
(71,559,l),
(228,559,l)
);
},
{
closed = 1;
nodes = (
(135,658,ls),
(135,685,o),
(143,695,o),
(179,695,cs),
(226,695,l),
(226,743,l),
(166,743,ls),
(95,743,o),
(71,717,o),
(71,657,cs),
(71,645,l),
(135,645,l)
);
}
);
width = 278;
},
{
anchors = (
{
name = _top;
pos = (150,500);
},
{
name = top;
pos = (150,743);
}
);
layerId = m002;
shapes = (
{
closed = 1;
nodes = (
(228,645,l),
(71,645,l),
(71,559,l),
(228,559,l)
);
},
{
closed = 1;
nodes = (
(135,658,ls),
(135,685,o),
(143,695,o),
(179,695,cs),
(226,695,l),
(226,743,l),
(166,743,ls),
(95,743,o),
(71,717,o),
(71,657,cs),
(71,645,l),
(135,645,l)
);
}
);
width = 278;
}
);
unicode = 786;
},
{
glyphname = horncomb;
lastChange = "2021-10-29 03:05:50 +0000";
layers = (
{
anchors = (
{
name = _topright;
pos = (317,654);
},
{
name = topright;
pos = (436,754);
}
);
layerId = m01;
shapes = (
{
closed = 1;
nodes = (
(293,555,ls),
(374,555,o),
(408,590,o),
(408,665,cs),
(408,695,o),
(406,721,o),
(394,754,c),
(288,754,l),
(293,724,o),
(294,707,o),
(294,688,cs),
(294,663,o),
(285,654,o),
(259,654,cs),
(224,654,l),
(224,555,l)
);
}
);
width = 600;
},
{
anchors = (
{
name = _topright;
pos = (238,654);
},
{
name = topright;
pos = (436,754);
}
);
layerId = m002;
shapes = (
{
closed = 1;
nodes = (
(295,555,ls),
(398,555,o),
(438,590,o),
(438,692,cs),
(438,707,o),
(437,726,o),
(430,754,c),
(318,754,l),
(323,729,o),
(324,715,o),
(324,687,cs),
(324,668,o),
(315,654,o),
(273,654,cs),
(224,654,l),
(224,555,l)
);
}
);
width = 600;
}
);
unicode = 795;
},
{
glyphname = commaaccentcomb;
lastChange = "2021-10-27 05:56:50 +0000";
layers = (
{
anchors = (
{
name = _bottom;
pos = (150,0);
},
{
name = bottom;
pos = (150,-241);
}
);
layerId = m01;
shapes = (
{
closed = 1;
nodes = (
(71,-133,l),
(228,-133,l),
(228,-47,l),
(71,-47,l)
);
},
{
closed = 1;
nodes = (
(164,-146,ls),
(164,-173,o),
(156,-183,o),
(120,-183,cs),
(73,-183,l),
(73,-231,l),
(133,-231,ls),
(204,-231,o),
(228,-205,o),
(228,-145,cs),
(228,-133,l),
(164,-133,l)
);
}
);
width = 600;
},
{
anchors = (
{
name = _bottom;
pos = (150,0);
},
{
name = bottom;
pos = (150,-241);
}
);
layerId = m002;
shapes = (
{
closed = 1;
nodes = (
(71,-133,l),
(228,-133,l),
(228,-47,l),
(71,-47,l)
);
},
{
closed = 1;
nodes = (
(164,-146,ls),
(164,-173,o),
(156,-183,o),
(120,-183,cs),
(73,-183,l),
(73,-231,l),
(133,-231,ls),
(204,-231,o),
(228,-205,o),
(228,-145,cs),
(228,-133,l),
(164,-133,l)
);
}
);
width = 600;
}
);
unicode = 806;
},
{
glyphname = cedillacomb;
lastChange = "2021-10-29 03:18:05 +0000";
layers = (
{
anchors = (
{
name = _bottom;
pos = (233,0);
},
{
name = bottom;
pos = (224,-227);
}
);
layerId = m01;
shapes = (
{
closed = 1;
nodes = (
(328,-207,o),
(372,-180,o),
(372,-118,cs),
(372,-66,o),
(329,-49,o),
(248,-49,c),
(263,-72,l),
(284,8,l),
(187,8,l),
(162,-100,l),
(182,-97,o),
(201,-96,o),
(218,-96,cs),
(248,-96,o),
(263,-103,o),
(263,-118,cs),
(263,-134,o),
(248,-140,o),
(218,-140,cs),
(195,-140,o),
(171,-138,o),
(143,-134,c),
(143,-200,l),
(168,-204,o),
(201,-207,o),
(227,-207,cs)
);
}
);
width = 600;
},
{
anchors = (
{
name = _bottom;
pos = (262,3);
},
{
name = bottom;
pos = (224,-227);
}
);
layerId = m002;
shapes = (
{
closed = 1;
nodes = (
(347,-207,o),
(392,-180,o),
(392,-118,cs),
(392,-66,o),
(352,-49,o),
(278,-49,c),
(281,-72,l),
(307,8,l),
(223,8,l),
(188,-100,l),
(209,-97,o),
(230,-96,o),
(248,-96,cs),
(271,-96,o),
(283,-103,o),
(283,-118,cs),
(283,-134,o),
(267,-140,o),
(234,-140,cs),
(206,-140,o),
(177,-138,o),
(143,-134,c),
(143,-200,l),
(173,-204,o),
(212,-207,o),
(243,-207,cs)
);
}
);
width = 600;
}
);
unicode = 807;
},
{
glyphname = ogonekcomb;
lastChange = "2021-10-27 05:56:50 +0000";
layers = (
{
anchors = (
{
name = _ogonek;
pos = (356,0);
}
);
layerId = m01;
shapes = (
{
closed = 1;
nodes = (
(329,-222,o),
(363,-192,o),
(367,-135,c),
(288,-135,l),
(286,-148,o),
(279,-156,o),
(247,-156,cs),
(215,-156,o),
(203,-145,o),
(203,-125,cs),
(203,-113,ls),
(203,-81,o),
(226,-60,o),
(356,0,c),
(293,24,l),
(171,-28,o),
(119,-68,o),
(119,-130,cs),
(119,-180,o),
(152,-222,o),
(247,-222,cs)
);
}
);
width = 600;
},
{
anchors = (
{
name = _ogonek;
pos = (356,0);
}
);
layerId = m002;
shapes = (
{
closed = 1;
nodes = (
(329,-222,o),
(363,-192,o),
(367,-135,c),
(288,-135,l),
(286,-148,o),
(279,-156,o),
(247,-156,cs),
(215,-156,o),
(203,-145,o),
(203,-125,cs),
(203,-113,ls),
(203,-81,o),
(226,-60,o),
(356,0,c),
(293,24,l),
(171,-28,o),
(119,-68,o),
(119,-130,cs),
(119,-180,o),
(152,-222,o),
(247,-222,cs)
);
}
);
width = 600;
}
);
unicode = 808;
},
{
glyphname = strokeshortcomb;
lastChange = "2021-10-29 03:22:12 +0000";
layers = (
{
anchors = (
{
name = _center;
pos = (151,342);
}
);
layerId = m01;
shapes = (
{
closed = 1;
nodes = (
(287,277,l),
(287,407,l),
(15,407,l),
(15,277,l)
);
}
);
width = 492;
},
{
anchors = (
{
name = _center;
pos = (151,342);
}
);
layerId = m002;
shapes = (
{
closed = 1;
nodes = (
(311,277,l),
(311,407,l),
(-9,407,l),
(-9,277,l)
);
}
);
width = 600;
}
);
unicode = 821;
},
{
glyphname = commaaccentcomb.loclMAH;
lastChange = "2021-12-06 04:49:54 +0000";
layers = (
{
anchors = (
{
name = _bottom;
pos = (281.83,0.088);
},
{
name = bottom;
pos = (244,-230);
}
);
layerId = m01;
shapes = (
{
closed = 1;
nodes = (
(371,-200,o),
(415,-173,o),
(415,-111,cs),
(415,-52,o),
(369,-33,o),
(283,-33,cs),
(265,-33,o),
(251,-34,o),
(237,-36,c),
(237,-90,l),
(245,-89,o),
(253,-89,o),
(261,-89,cs),
(291,-89,o),
(306,-96,o),
(306,-111,cs),
(306,-127,o),
(291,-133,o),
(261,-133,cs),
(238,-133,o),
(214,-131,o),
(186,-127,c),
(186,-193,l),
(211,-197,o),
(244,-200,o),
(270,-200,cs)
);
}
);
width = 600;
},
{
anchors = (
{
name = _bottom;
pos = (281.83,0.088);
},
{
name = bottom;
pos = (244,-230);
}
);
layerId = m002;
shapes = (
{
closed = 1;
nodes = (
(371,-200,o),
(415,-173,o),
(415,-111,cs),
(415,-52,o),
(369,-33,o),
(283,-33,cs),
(265,-33,o),
(251,-34,o),
(237,-36,c),
(237,-90,l),
(245,-89,o),
(253,-89,o),
(261,-89,cs),
(291,-89,o),
(306,-96,o),
(306,-111,cs),
(306,-127,o),
(291,-133,o),
(261,-133,cs),
(238,-133,o),
(214,-131,o),
(186,-127,c),
(186,-193,l),
(211,-197,o),
(244,-200,o),
(270,-200,cs)
);
}
);
width = 600;
}
);
},
{
export = 0;
glyphname = _asterisk;
lastChange = "2021-12-06 04:50:06 +0000";
layers = (
{
layerId = m01;
shapes = (
{
closed = 1;
nodes = (
(103,475,l),
(205,475,l),
(222,700,l),
(86,700,l)
);
},
{
closed = 1;
nodes = (
(125,397,l),
(183,397,l),
(183,542,l),
(125,542,l)
);
}
);
width = 300;
},
{
layerId = m002;
shapes = (
{
closed = 1;
nodes = (
(103,475,l),
(205,475,l),
(222,700,l),
(86,700,l)
);
},
{
closed = 1;
nodes = (
(125,397,l),
(183,397,l),
(183,542,l),
(125,542,l)
);
}
);
width = 600;
}
);
},
{
export = 0;
glyphname = _eightPointStar;
lastChange = "2021-10-27 05:56:50 +0000";
layers = (
{
layerId = m01;
shapes = (
{
closed = 1;
nodes = (
(177,368,l),
(423,368,l),
(304,700,l),
(296,700,l)
);
}
);
width = 600;
},
{
layerId = m002;
shapes = (
{
closed = 1;
nodes = (
(177,368,l),
(423,368,l),
(304,700,l),
(296,700,l)
);
}
);
width = 600;
}
);
},
{
export = 0;
glyphname = _percent;
lastChange = "2021-10-27 05:56:50 +0000";
layers = (
{
layerId = m01;
shapes = (
{
closed = 1;
nodes = (
(84,118,ls),
(84,88,o),
(99,68,o),
(130,68,cs),
(161,68,o),
(175,88,o),
(175,118,cs),
(175,139,ls),
(175,169,o),
(161,189,o),
(130,189,cs),
(99,189,o),
(84,169,o),
(84,139,cs)
);
},
{
closed = 1;
nodes = (
(0,218,o),
(40,269,o),
(130,269,cs),
(219,269,o),
(260,218,o),
(260,138,cs),
(260,120,ls),
(260,39,o),
(219,-12,o),
(130,-12,cs),
(40,-12,o),
(0,39,o),
(0,120,cs),
(0,138,ls)
);
}
);
width = 600;
},
{
layerId = m002;
shapes = (
{
closed = 1;
nodes = (
(84,118,ls),
(84,88,o),
(99,68,o),
(130,68,cs),
(161,68,o),
(175,88,o),
(175,118,cs),
(175,139,ls),
(175,169,o),
(161,189,o),
(130,189,cs),
(99,189,o),
(84,169,o),
(84,139,cs)
);
},
{
closed = 1;
nodes = (
(0,218,o),
(40,269,o),
(130,269,cs),
(219,269,o),
(260,218,o),
(260,138,cs),
(260,120,ls),
(260,39,o),
(219,-12,o),
(130,-12,cs),
(40,-12,o),
(0,39,o),
(0,120,cs),
(0,138,ls)
);
}
);
width = 600;
}
);
},
{
export = 0;
glyphname = _sixPointStar;
lastChange = "2021-10-27 05:56:50 +0000";
layers = (
{
layerId = m01;
shapes = (
{
closed = 1;
nodes = (
(168,368,l),
(432,368,l),
(304,700,l),
(296,700,l)
);
}
);
width = 600;
},
{
layerId = m002;
shapes = (
{
closed = 1;
nodes = (
(168,368,l),
(432,368,l),
(304,700,l),
(296,700,l)
);
}
);
width = 600;
}
);
},
{
export = 0;
glyphname = _star;
lastChange = "2021-10-27 05:56:50 +0000";
layers = (
{
layerId = m01;
shapes = (
{
closed = 1;
nodes = (
(190,368,l),
(410,368,l),
(304,700,l),
(296,700,l)
);
}
